%TF.GenerationSoftware,KiCad,Pcbnew,5.99.0-unknown-5c21f93803~130~ubuntu20.04.1*%
%TF.CreationDate,2021-06-27T12:50:21+02:00*%
%TF.ProjectId,ESP32-Reflow,45535033-322d-4526-9566-6c6f772e6b69,rev?*%
%TF.SameCoordinates,Original*%
%TF.FileFunction,Copper,L2,Bot*%
%TF.FilePolarity,Positive*%
%FSLAX46Y46*%
G04 Gerber Fmt 4.6, Leading zero omitted, Abs format (unit mm)*
G04 Created by KiCad (PCBNEW 5.99.0-unknown-5c21f93803~130~ubuntu20.04.1) date 2021-06-27 12:50:21*
%MOMM*%
%LPD*%
G01*
G04 APERTURE LIST*
G04 Aperture macros list*
%AMRoundRect*
0 Rectangle with rounded corners*
0 $1 Rounding radius*
0 $2 $3 $4 $5 $6 $7 $8 $9 X,Y pos of 4 corners*
0 Add a 4 corners polygon primitive as box body*
4,1,4,$2,$3,$4,$5,$6,$7,$8,$9,$2,$3,0*
0 Add four circle primitives for the rounded corners*
1,1,$1+$1,$2,$3*
1,1,$1+$1,$4,$5*
1,1,$1+$1,$6,$7*
1,1,$1+$1,$8,$9*
0 Add four rect primitives between the rounded corners*
20,1,$1+$1,$2,$3,$4,$5,0*
20,1,$1+$1,$4,$5,$6,$7,0*
20,1,$1+$1,$6,$7,$8,$9,0*
20,1,$1+$1,$8,$9,$2,$3,0*%
G04 Aperture macros list end*
%TA.AperFunction,ComponentPad*%
%ADD10C,3.800000*%
%TD*%
%TA.AperFunction,ComponentPad*%
%ADD11O,1.950000X1.700000*%
%TD*%
%TA.AperFunction,ComponentPad*%
%ADD12RoundRect,0.250000X-0.725000X0.600000X-0.725000X-0.600000X0.725000X-0.600000X0.725000X0.600000X0*%
%TD*%
%TA.AperFunction,ComponentPad*%
%ADD13RoundRect,0.250000X0.725000X-0.600000X0.725000X0.600000X-0.725000X0.600000X-0.725000X-0.600000X0*%
%TD*%
%TA.AperFunction,ComponentPad*%
%ADD14RoundRect,0.250000X-0.750000X0.600000X-0.750000X-0.600000X0.750000X-0.600000X0.750000X0.600000X0*%
%TD*%
%TA.AperFunction,ComponentPad*%
%ADD15O,2.000000X1.700000*%
%TD*%
%TA.AperFunction,ComponentPad*%
%ADD16RoundRect,0.250000X0.750000X-0.600000X0.750000X0.600000X-0.750000X0.600000X-0.750000X-0.600000X0*%
%TD*%
%TA.AperFunction,ComponentPad*%
%ADD17O,1.700000X1.700000*%
%TD*%
%TA.AperFunction,ComponentPad*%
%ADD18R,1.700000X1.700000*%
%TD*%
%TA.AperFunction,ViaPad*%
%ADD19C,0.800000*%
%TD*%
%TA.AperFunction,ViaPad*%
%ADD20C,0.700000*%
%TD*%
%TA.AperFunction,ViaPad*%
%ADD21C,0.600000*%
%TD*%
%TA.AperFunction,Conductor*%
%ADD22C,0.300000*%
%TD*%
G04 APERTURE END LIST*
D10*
%TO.P,REF\u002A\u002A,1*%
%TO.N,N/C*%
X139000000Y-100200000D03*
%TD*%
D11*
%TO.P,J7,5,Pin_5*%
%TO.N,RT_CLK*%
X108325000Y-115800000D03*
%TO.P,J7,4,Pin_4*%
%TO.N,RT_DT*%
X108325000Y-113300000D03*
%TO.P,J7,3,Pin_3*%
%TO.N,RT_SW*%
X108325000Y-110800000D03*
%TO.P,J7,2,Pin_2*%
%TO.N,+3V3*%
X108325000Y-108300000D03*
D12*
%TO.P,J7,1,Pin_1*%
%TO.N,GND*%
X108325000Y-105800000D03*
%TD*%
D13*
%TO.P,J6,1,Pin_1*%
%TO.N,GND*%
X155675000Y-124250000D03*
D11*
%TO.P,J6,2,Pin_2*%
%TO.N,+3V3*%
X155675000Y-121750000D03*
%TO.P,J6,3,Pin_3*%
%TO.N,DIMMER_OUT*%
X155675000Y-119250000D03*
%TO.P,J6,4,Pin_4*%
%TO.N,DIMMER_ZC*%
X155675000Y-116750000D03*
%TD*%
D13*
%TO.P,J5,1,Pin_1*%
%TO.N,GND*%
X155740000Y-86520000D03*
D11*
%TO.P,J5,2,Pin_2*%
%TO.N,SDA*%
X155740000Y-84020000D03*
%TO.P,J5,3,Pin_3*%
%TO.N,SCL*%
X155740000Y-81520000D03*
%TO.P,J5,4,Pin_4*%
%TO.N,+3V3*%
X155740000Y-79020000D03*
%TD*%
D13*
%TO.P,J4,1,Pin_1*%
%TO.N,RX*%
X155745000Y-100580000D03*
D11*
%TO.P,J4,2,Pin_2*%
%TO.N,TX*%
X155745000Y-98080000D03*
%TO.P,J4,3,Pin_3*%
%TO.N,GND*%
X155745000Y-95580000D03*
%TO.P,J4,4,Pin_4*%
%TO.N,+3V3*%
X155745000Y-93080000D03*
%TD*%
D14*
%TO.P,J3,1,Pin_1*%
%TO.N,GND*%
X108325000Y-79050000D03*
D15*
%TO.P,J3,2,Pin_2*%
%TO.N,VCC*%
X108325000Y-81550000D03*
%TD*%
D16*
%TO.P,J2,1,Pin_1*%
%TO.N,A0*%
X155700000Y-110000000D03*
D15*
%TO.P,J2,2,Pin_2*%
%TO.N,GND*%
X155700000Y-107500000D03*
%TD*%
D17*
%TO.P,J1,10,Pin_10*%
%TO.N,A3*%
X140435000Y-111600000D03*
%TO.P,J1,9,Pin_9*%
%TO.N,A2*%
X137895000Y-111600000D03*
%TO.P,J1,8,Pin_8*%
%TO.N,A1*%
X135355000Y-111600000D03*
%TO.P,J1,7,Pin_7*%
%TO.N,A0*%
X132815000Y-111600000D03*
%TO.P,J1,6,Pin_6*%
%TO.N,unconnected-(J1-Pad6)*%
X130275000Y-111600000D03*
%TO.P,J1,5,Pin_5*%
%TO.N,unconnected-(J1-Pad5)*%
X127735000Y-111600000D03*
%TO.P,J1,4,Pin_4*%
%TO.N,SDA*%
X125195000Y-111600000D03*
%TO.P,J1,3,Pin_3*%
%TO.N,SCL*%
X122655000Y-111600000D03*
%TO.P,J1,2,Pin_2*%
%TO.N,GND*%
X120115000Y-111600000D03*
D18*
%TO.P,J1,1,Pin_1*%
%TO.N,+3V3*%
X117575000Y-111600000D03*
%TD*%
D19*
%TO.N,RT_SW*%
X132200000Y-88900000D03*
%TO.N,RT_DT*%
X132900000Y-90100000D03*
%TO.N,RT_CLK*%
X133800000Y-91400000D03*
%TO.N,DIMMER_OUT*%
X137600000Y-103800000D03*
X142600000Y-115500000D03*
%TO.N,DIMMER_ZC*%
X144200000Y-92700000D03*
X144200000Y-115500000D03*
%TO.N,SCL*%
X140600000Y-80000000D03*
%TO.N,SDA*%
X140600000Y-83800000D03*
D20*
%TO.N,+3V3*%
X127500000Y-100800000D03*
D21*
X132800000Y-99500000D03*
%TO.N,TX*%
X144570000Y-81240000D03*
X150300000Y-94000000D03*
%TO.N,RX*%
X143395000Y-82515000D03*
X149700000Y-94900000D03*
D20*
%TO.N,+3V3*%
X115470000Y-103375000D03*
D21*
X126482000Y-79057000D03*
X131787000Y-78705000D03*
X144799000Y-78705000D03*
X150670000Y-78240000D03*
X119878000Y-77279000D03*
X118810000Y-86975000D03*
X150670000Y-80900000D03*
%TD*%
D22*
%TO.N,RT_CLK*%
X133800000Y-91400000D02*
X109400000Y-115800000D01*
X109400000Y-115800000D02*
X108325000Y-115800000D01*
%TO.N,RT_DT*%
X109700000Y-113300000D02*
X132900000Y-90100000D01*
%TO.N,RT_SW*%
X110300000Y-110800000D02*
X132200000Y-88900000D01*
%TO.N,SDA*%
X125195000Y-111600000D02*
X125195000Y-107205000D01*
X125195000Y-107205000D02*
X131800000Y-100600000D01*
X131800000Y-100600000D02*
X131800000Y-97400000D01*
X131800000Y-97400000D02*
X138700000Y-90500000D01*
X138700000Y-90500000D02*
X138700000Y-85700000D01*
X138700000Y-85700000D02*
X140600000Y-83800000D01*
%TO.N,SCL*%
X122655000Y-111600000D02*
X122655000Y-108726452D01*
X122655000Y-108726452D02*
X130800000Y-100581452D01*
X137100000Y-90400000D02*
X137100000Y-82600000D01*
X130800000Y-100581452D02*
X130800000Y-96700000D01*
X130800000Y-96700000D02*
X137100000Y-90400000D01*
X137100000Y-82600000D02*
X139700000Y-80000000D01*
X139700000Y-80000000D02*
X140600000Y-80000000D01*
%TO.N,RT_SW*%
X108325000Y-110800000D02*
X110300000Y-110800000D01*
%TO.N,RT_DT*%
X108325000Y-113300000D02*
X109700000Y-113300000D01*
%TO.N,DIMMER_OUT*%
X137600000Y-103800000D02*
X142600000Y-108700000D01*
X142600000Y-108700000D02*
X142600000Y-115500000D01*
%TO.N,DIMMER_ZC*%
X144200000Y-115500000D02*
X144200000Y-92700000D01*
%TO.N,TX*%
X150300000Y-94000000D02*
X144570000Y-88275000D01*
X144570000Y-88275000D02*
X144570000Y-81240000D01*
%TO.N,RX*%
X149700000Y-94900000D02*
X143370000Y-88575000D01*
X143370000Y-88575000D02*
X143370000Y-82540000D01*
%TD*%
%TA.AperFunction,Conductor*%
%TO.N,+3V3*%
G36*
X159529191Y-76158907D02*
G01*
X159565155Y-76208407D01*
X159570000Y-76239000D01*
X159570000Y-127091000D01*
X159551093Y-127149191D01*
X159501593Y-127185155D01*
X159471000Y-127190000D01*
X104569000Y-127190000D01*
X104510809Y-127171093D01*
X104474845Y-127121593D01*
X104470000Y-127091000D01*
X104470000Y-122016693D01*
X154218265Y-122016693D01*
X154243626Y-122137562D01*
X154246029Y-122145575D01*
X154327608Y-122352145D01*
X154331317Y-122359618D01*
X154446536Y-122549492D01*
X154451456Y-122556239D01*
X154597015Y-122723981D01*
X154603009Y-122729810D01*
X154774739Y-122870620D01*
X154781641Y-122875363D01*
X154974640Y-122985225D01*
X154982230Y-122988732D01*
X155033772Y-123007441D01*
X155082019Y-123045068D01*
X155098936Y-123103869D01*
X155078059Y-123161382D01*
X155027364Y-123195641D01*
X154999993Y-123199500D01*
X154916742Y-123199500D01*
X154880303Y-123204978D01*
X154823386Y-123213535D01*
X154823384Y-123213536D01*
X154816065Y-123214636D01*
X154809394Y-123217839D01*
X154809392Y-123217840D01*
X154700639Y-123270063D01*
X154693971Y-123273265D01*
X154594514Y-123365202D01*
X154590797Y-123371602D01*
X154530205Y-123475917D01*
X154530204Y-123475920D01*
X154526487Y-123482319D01*
X154499500Y-123598748D01*
X154499500Y-124883258D01*
X154514636Y-124983935D01*
X154517839Y-124990606D01*
X154517840Y-124990608D01*
X154533915Y-125024083D01*
X154573265Y-125106029D01*
X154665202Y-125205486D01*
X154715300Y-125234585D01*
X154775917Y-125269795D01*
X154775920Y-125269796D01*
X154782319Y-125273513D01*
X154819624Y-125282160D01*
X154893246Y-125299225D01*
X154893249Y-125299225D01*
X154898748Y-125300500D01*
X156433258Y-125300500D01*
X156469697Y-125295022D01*
X156526614Y-125286465D01*
X156526616Y-125286464D01*
X156533935Y-125285364D01*
X156540606Y-125282161D01*
X156540608Y-125282160D01*
X156649361Y-125229937D01*
X156656029Y-125226735D01*
X156755486Y-125134798D01*
X156784585Y-125084700D01*
X156819795Y-125024083D01*
X156819796Y-125024080D01*
X156823513Y-125017681D01*
X156850500Y-124901252D01*
X156850500Y-123616742D01*
X156835364Y-123516065D01*
X156822624Y-123489533D01*
X156779937Y-123400639D01*
X156776735Y-123393971D01*
X156684798Y-123294514D01*
X156634700Y-123265415D01*
X156574083Y-123230205D01*
X156574080Y-123230204D01*
X156567681Y-123226487D01*
X156511803Y-123213535D01*
X156456754Y-123200775D01*
X156456751Y-123200775D01*
X156451252Y-123199500D01*
X156349732Y-123199500D01*
X156291541Y-123180593D01*
X156255577Y-123131093D01*
X156255577Y-123069907D01*
X156291541Y-123020407D01*
X156309071Y-123010235D01*
X156459054Y-122942673D01*
X156466354Y-122938610D01*
X156650575Y-122814585D01*
X156657102Y-122809337D01*
X156817793Y-122656046D01*
X156823330Y-122649787D01*
X156955898Y-122471609D01*
X156960306Y-122464500D01*
X157060960Y-122266529D01*
X157064102Y-122258791D01*
X157129961Y-122046686D01*
X157131754Y-122038532D01*
X157134271Y-122019544D01*
X157131851Y-122006427D01*
X157130567Y-122005205D01*
X157125250Y-122004000D01*
X154231282Y-122004000D01*
X154218728Y-122008079D01*
X154218265Y-122016693D01*
X104470000Y-122016693D01*
X104470000Y-121480456D01*
X154215729Y-121480456D01*
X154218149Y-121493573D01*
X154219433Y-121494795D01*
X154224750Y-121496000D01*
X157118718Y-121496000D01*
X157131272Y-121491921D01*
X157131735Y-121483307D01*
X157106374Y-121362438D01*
X157103971Y-121354425D01*
X157022392Y-121147855D01*
X157018683Y-121140382D01*
X156903464Y-120950508D01*
X156898544Y-120943761D01*
X156752985Y-120776019D01*
X156746991Y-120770190D01*
X156575261Y-120629380D01*
X156568359Y-120624637D01*
X156375360Y-120514775D01*
X156367770Y-120511268D01*
X156159009Y-120435492D01*
X156149604Y-120432954D01*
X156098348Y-120399541D01*
X156076520Y-120342382D01*
X156092458Y-120283309D01*
X156140075Y-120244886D01*
X156146778Y-120242598D01*
X156197581Y-120227259D01*
X156197585Y-120227257D01*
X156202220Y-120225858D01*
X156384105Y-120129148D01*
X156543741Y-119998952D01*
X156552392Y-119988495D01*
X156671966Y-119843955D01*
X156671967Y-119843953D01*
X156675049Y-119840228D01*
X156773027Y-119659023D01*
X156833942Y-119462238D01*
X156834974Y-119452427D01*
X156854968Y-119262185D01*
X156854968Y-119262183D01*
X156855474Y-119257369D01*
X156836804Y-119052219D01*
X156778643Y-118854603D01*
X156757726Y-118814593D01*
X156685452Y-118676344D01*
X156685449Y-118676340D01*
X156683205Y-118672047D01*
X156554126Y-118511505D01*
X156467403Y-118438736D01*
X156400029Y-118382202D01*
X156400025Y-118382199D01*
X156396323Y-118379093D01*
X156215806Y-118279853D01*
X156211192Y-118278389D01*
X156211189Y-118278388D01*
X156024066Y-118219029D01*
X156019451Y-118217565D01*
X156014639Y-118217025D01*
X156014638Y-118217025D01*
X155861151Y-118199809D01*
X155861149Y-118199809D01*
X155858395Y-118199500D01*
X155499007Y-118199500D01*
X155496613Y-118199735D01*
X155496608Y-118199735D01*
X155349796Y-118214130D01*
X155349792Y-118214131D01*
X155344986Y-118214602D01*
X155340361Y-118215998D01*
X155340358Y-118215999D01*
X155272106Y-118236606D01*
X155147780Y-118274142D01*
X154965895Y-118370852D01*
X154806259Y-118501048D01*
X154803175Y-118504776D01*
X154803174Y-118504777D01*
X154794489Y-118515276D01*
X154674951Y-118659772D01*
X154576973Y-118840977D01*
X154516058Y-119037762D01*
X154515553Y-119042569D01*
X154515552Y-119042573D01*
X154514032Y-119057039D01*
X154494526Y-119242631D01*
X154513196Y-119447781D01*
X154571357Y-119645397D01*
X154592274Y-119685407D01*
X154664548Y-119823656D01*
X154664551Y-119823660D01*
X154666795Y-119827953D01*
X154795874Y-119988495D01*
X154882597Y-120061264D01*
X154949971Y-120117798D01*
X154949975Y-120117801D01*
X154953677Y-120120907D01*
X155134194Y-120220147D01*
X155138808Y-120221611D01*
X155138811Y-120221612D01*
X155190232Y-120237923D01*
X155213565Y-120245325D01*
X155263315Y-120280943D01*
X155282628Y-120339000D01*
X155264127Y-120397321D01*
X155214879Y-120433630D01*
X155208502Y-120435516D01*
X155101318Y-120463336D01*
X155093446Y-120466108D01*
X154890946Y-120557327D01*
X154883646Y-120561390D01*
X154699425Y-120685415D01*
X154692898Y-120690663D01*
X154532207Y-120843954D01*
X154526670Y-120850213D01*
X154394102Y-121028391D01*
X154389694Y-121035500D01*
X154289040Y-121233471D01*
X154285898Y-121241209D01*
X154220039Y-121453314D01*
X154218246Y-121461468D01*
X154215729Y-121480456D01*
X104470000Y-121480456D01*
X104470000Y-115792631D01*
X107144526Y-115792631D01*
X107150714Y-115860628D01*
X107152678Y-115882202D01*
X107163196Y-115997781D01*
X107164562Y-116002423D01*
X107164563Y-116002427D01*
X107215749Y-116176344D01*
X107221357Y-116195397D01*
X107242274Y-116235407D01*
X107314548Y-116373656D01*
X107314551Y-116373660D01*
X107316795Y-116377953D01*
X107445874Y-116538495D01*
X107532597Y-116611264D01*
X107599971Y-116667798D01*
X107599975Y-116667801D01*
X107603677Y-116670907D01*
X107784194Y-116770147D01*
X107788808Y-116771611D01*
X107788811Y-116771612D01*
X107965305Y-116827599D01*
X107980549Y-116832435D01*
X107985361Y-116832975D01*
X107985362Y-116832975D01*
X108138849Y-116850191D01*
X108138851Y-116850191D01*
X108141605Y-116850500D01*
X108500993Y-116850500D01*
X108503387Y-116850265D01*
X108503392Y-116850265D01*
X108650204Y-116835870D01*
X108650208Y-116835869D01*
X108655014Y-116835398D01*
X108659639Y-116834002D01*
X108659642Y-116834001D01*
X108727894Y-116813394D01*
X108852220Y-116775858D01*
X108914711Y-116742631D01*
X154494526Y-116742631D01*
X154497343Y-116773586D01*
X154502566Y-116830971D01*
X154513196Y-116947781D01*
X154571357Y-117145397D01*
X154592274Y-117185407D01*
X154664548Y-117323656D01*
X154664551Y-117323660D01*
X154666795Y-117327953D01*
X154795874Y-117488495D01*
X154882597Y-117561264D01*
X154949971Y-117617798D01*
X154949975Y-117617801D01*
X154953677Y-117620907D01*
X155134194Y-117720147D01*
X155138808Y-117721611D01*
X155138811Y-117721612D01*
X155315305Y-117777599D01*
X155330549Y-117782435D01*
X155335361Y-117782975D01*
X155335362Y-117782975D01*
X155488849Y-117800191D01*
X155488851Y-117800191D01*
X155491605Y-117800500D01*
X155850993Y-117800500D01*
X155853387Y-117800265D01*
X155853392Y-117800265D01*
X156000204Y-117785870D01*
X156000208Y-117785869D01*
X156005014Y-117785398D01*
X156009639Y-117784002D01*
X156009642Y-117784001D01*
X156077894Y-117763394D01*
X156202220Y-117725858D01*
X156384105Y-117629148D01*
X156543741Y-117498952D01*
X156552392Y-117488495D01*
X156671966Y-117343955D01*
X156671967Y-117343953D01*
X156675049Y-117340228D01*
X156773027Y-117159023D01*
X156833942Y-116962238D01*
X156834974Y-116952427D01*
X156854968Y-116762185D01*
X156854968Y-116762183D01*
X156855474Y-116757369D01*
X156847605Y-116670907D01*
X156837243Y-116557039D01*
X156837242Y-116557036D01*
X156836804Y-116552219D01*
X156787876Y-116385972D01*
X156780011Y-116359250D01*
X156780010Y-116359247D01*
X156778643Y-116354603D01*
X156697657Y-116199691D01*
X156685452Y-116176344D01*
X156685449Y-116176340D01*
X156683205Y-116172047D01*
X156672238Y-116158406D01*
X156557158Y-116015276D01*
X156554126Y-116011505D01*
X156454791Y-115928153D01*
X156400029Y-115882202D01*
X156400025Y-115882199D01*
X156396323Y-115879093D01*
X156215806Y-115779853D01*
X156211192Y-115778389D01*
X156211189Y-115778388D01*
X156024066Y-115719029D01*
X156019451Y-115717565D01*
X156014639Y-115717025D01*
X156014638Y-115717025D01*
X155861151Y-115699809D01*
X155861149Y-115699809D01*
X155858395Y-115699500D01*
X155499007Y-115699500D01*
X155496613Y-115699735D01*
X155496608Y-115699735D01*
X155349796Y-115714130D01*
X155349792Y-115714131D01*
X155344986Y-115714602D01*
X155340361Y-115715998D01*
X155340358Y-115715999D01*
X155272106Y-115736606D01*
X155147780Y-115774142D01*
X154965895Y-115870852D01*
X154806259Y-116001048D01*
X154803175Y-116004776D01*
X154803174Y-116004777D01*
X154691899Y-116139286D01*
X154674951Y-116159772D01*
X154576973Y-116340977D01*
X154516058Y-116537762D01*
X154515553Y-116542569D01*
X154515552Y-116542573D01*
X154514032Y-116557039D01*
X154494526Y-116742631D01*
X108914711Y-116742631D01*
X109034105Y-116679148D01*
X109193741Y-116548952D01*
X109202998Y-116537762D01*
X109321966Y-116393955D01*
X109321967Y-116393953D01*
X109325049Y-116390228D01*
X109423027Y-116209023D01*
X109424456Y-116204406D01*
X109426337Y-116199932D01*
X109428542Y-116200859D01*
X109458480Y-116158406D01*
X109490174Y-116142602D01*
X109491056Y-116142346D01*
X109499182Y-116141384D01*
X109506164Y-116138031D01*
X109507513Y-116137605D01*
X109515153Y-116136333D01*
X109532714Y-116126858D01*
X109557197Y-116113648D01*
X109561351Y-116111532D01*
X109598796Y-116093550D01*
X109598797Y-116093549D01*
X109604414Y-116090852D01*
X109607022Y-116088660D01*
X109608533Y-116087149D01*
X109610120Y-116085694D01*
X109610227Y-116085811D01*
X109612499Y-116083808D01*
X109617888Y-116080900D01*
X109654537Y-116041254D01*
X109657230Y-116038452D01*
X113833439Y-111862243D01*
X116212000Y-111862243D01*
X116212000Y-112448236D01*
X116212126Y-112451756D01*
X116216843Y-112517715D01*
X116218717Y-112528100D01*
X116256364Y-112656314D01*
X116262187Y-112669065D01*
X116333472Y-112779987D01*
X116342651Y-112790581D01*
X116442299Y-112876926D01*
X116454090Y-112884504D01*
X116574029Y-112939278D01*
X116587484Y-112943228D01*
X116721491Y-112962495D01*
X116728543Y-112963000D01*
X117305320Y-112963000D01*
X117318005Y-112958878D01*
X117321000Y-112954757D01*
X117321000Y-111869680D01*
X117316878Y-111856995D01*
X117312757Y-111854000D01*
X116227680Y-111854000D01*
X116214995Y-111858122D01*
X116212000Y-111862243D01*
X113833439Y-111862243D01*
X114942139Y-110753543D01*
X116212000Y-110753543D01*
X116212000Y-111330320D01*
X116216122Y-111343005D01*
X116220243Y-111346000D01*
X117305320Y-111346000D01*
X117318005Y-111341878D01*
X117321000Y-111337757D01*
X117321000Y-110252680D01*
X117318583Y-110245243D01*
X117829000Y-110245243D01*
X117829000Y-112947320D01*
X117833122Y-112960005D01*
X117837243Y-112963000D01*
X118423236Y-112963000D01*
X118426756Y-112962874D01*
X118492715Y-112958157D01*
X118503100Y-112956283D01*
X118631314Y-112918636D01*
X118644065Y-112912813D01*
X118754987Y-112841528D01*
X118765581Y-112832349D01*
X118851926Y-112732701D01*
X118859504Y-112720910D01*
X118914278Y-112600971D01*
X118918228Y-112587516D01*
X118937495Y-112453509D01*
X118938000Y-112446457D01*
X118938000Y-112010765D01*
X118956907Y-111952574D01*
X119006407Y-111916610D01*
X119067593Y-111916610D01*
X119117093Y-111952574D01*
X119130228Y-111979507D01*
X119130504Y-111979398D01*
X119131925Y-111982987D01*
X119132165Y-111983479D01*
X119133621Y-111988555D01*
X119227782Y-112171773D01*
X119355737Y-112333212D01*
X119512612Y-112466723D01*
X119516835Y-112469083D01*
X119516839Y-112469086D01*
X119603851Y-112517715D01*
X119692432Y-112567221D01*
X119697030Y-112568715D01*
X119883742Y-112629382D01*
X119883745Y-112629383D01*
X119888347Y-112630878D01*
X120092895Y-112655269D01*
X120097717Y-112654898D01*
X120097720Y-112654898D01*
X120293458Y-112639837D01*
X120293463Y-112639836D01*
X120298286Y-112639465D01*
X120496695Y-112584068D01*
X120527089Y-112568715D01*
X120676244Y-112493371D01*
X120676246Y-112493370D01*
X120680565Y-112491188D01*
X120842893Y-112364363D01*
X120846055Y-112360700D01*
X120846060Y-112360695D01*
X120974332Y-112212089D01*
X120977496Y-112208424D01*
X121000766Y-112167463D01*
X121076858Y-112033517D01*
X121076859Y-112033514D01*
X121079247Y-112029311D01*
X121085417Y-112010765D01*
X121142743Y-111838435D01*
X121142743Y-111838433D01*
X121144270Y-111833844D01*
X121149154Y-111795187D01*
X121169740Y-111632225D01*
X121170088Y-111629471D01*
X121170500Y-111600000D01*
X121169055Y-111585263D01*
X121599603Y-111585263D01*
X121606795Y-111670907D01*
X121615725Y-111777256D01*
X121616840Y-111790538D01*
X121618173Y-111795186D01*
X121618173Y-111795187D01*
X121671027Y-111979507D01*
X121673621Y-111988555D01*
X121767782Y-112171773D01*
X121895737Y-112333212D01*
X122052612Y-112466723D01*
X122056835Y-112469083D01*
X122056839Y-112469086D01*
X122143851Y-112517715D01*
X122232432Y-112567221D01*
X122237030Y-112568715D01*
X122423742Y-112629382D01*
X122423745Y-112629383D01*
X122428347Y-112630878D01*
X122632895Y-112655269D01*
X122637717Y-112654898D01*
X122637720Y-112654898D01*
X122833458Y-112639837D01*
X122833463Y-112639836D01*
X122838286Y-112639465D01*
X123036695Y-112584068D01*
X123067089Y-112568715D01*
X123216244Y-112493371D01*
X123216246Y-112493370D01*
X123220565Y-112491188D01*
X123382893Y-112364363D01*
X123386055Y-112360700D01*
X123386060Y-112360695D01*
X123514332Y-112212089D01*
X123517496Y-112208424D01*
X123540766Y-112167463D01*
X123616858Y-112033517D01*
X123616859Y-112033514D01*
X123619247Y-112029311D01*
X123625417Y-112010765D01*
X123682743Y-111838435D01*
X123682743Y-111838433D01*
X123684270Y-111833844D01*
X123689154Y-111795187D01*
X123709740Y-111632225D01*
X123710088Y-111629471D01*
X123710500Y-111600000D01*
X123704774Y-111541603D01*
X123690870Y-111399796D01*
X123690869Y-111399792D01*
X123690398Y-111394986D01*
X123688962Y-111390228D01*
X123635537Y-111213278D01*
X123630858Y-111197780D01*
X123534148Y-111015895D01*
X123403952Y-110856259D01*
X123327039Y-110792631D01*
X123248955Y-110728034D01*
X123248953Y-110728033D01*
X123245228Y-110724951D01*
X123064023Y-110626973D01*
X123064178Y-110626685D01*
X123019816Y-110588389D01*
X123005500Y-110537109D01*
X123005500Y-108912642D01*
X123024407Y-108854451D01*
X123034496Y-108842638D01*
X124675496Y-107201638D01*
X124730013Y-107173861D01*
X124790445Y-107183432D01*
X124833710Y-107226697D01*
X124844500Y-107271642D01*
X124844500Y-110537929D01*
X124825593Y-110596120D01*
X124791366Y-110625663D01*
X124621344Y-110714548D01*
X124621340Y-110714551D01*
X124617047Y-110716795D01*
X124613271Y-110719831D01*
X124613268Y-110719833D01*
X124460276Y-110842842D01*
X124456505Y-110845874D01*
X124383736Y-110932597D01*
X124327202Y-110999971D01*
X124327199Y-110999975D01*
X124324093Y-111003677D01*
X124224853Y-111184194D01*
X124223389Y-111188808D01*
X124223388Y-111188811D01*
X124174832Y-111341878D01*
X124162565Y-111380549D01*
X124162025Y-111385361D01*
X124162025Y-111385362D01*
X124143333Y-111552012D01*
X124139603Y-111585263D01*
X124146795Y-111670907D01*
X124155725Y-111777256D01*
X124156840Y-111790538D01*
X124158173Y-111795186D01*
X124158173Y-111795187D01*
X124211027Y-111979507D01*
X124213621Y-111988555D01*
X124307782Y-112171773D01*
X124435737Y-112333212D01*
X124592612Y-112466723D01*
X124596835Y-112469083D01*
X124596839Y-112469086D01*
X124683851Y-112517715D01*
X124772432Y-112567221D01*
X124777030Y-112568715D01*
X124963742Y-112629382D01*
X124963745Y-112629383D01*
X124968347Y-112630878D01*
X125172895Y-112655269D01*
X125177717Y-112654898D01*
X125177720Y-112654898D01*
X125373458Y-112639837D01*
X125373463Y-112639836D01*
X125378286Y-112639465D01*
X125576695Y-112584068D01*
X125607089Y-112568715D01*
X125756244Y-112493371D01*
X125756246Y-112493370D01*
X125760565Y-112491188D01*
X125922893Y-112364363D01*
X125926055Y-112360700D01*
X125926060Y-112360695D01*
X126054332Y-112212089D01*
X126057496Y-112208424D01*
X126080766Y-112167463D01*
X126156858Y-112033517D01*
X126156859Y-112033514D01*
X126159247Y-112029311D01*
X126165417Y-112010765D01*
X126222743Y-111838435D01*
X126222743Y-111838433D01*
X126224270Y-111833844D01*
X126229154Y-111795187D01*
X126249740Y-111632225D01*
X126250088Y-111629471D01*
X126250500Y-111600000D01*
X126249055Y-111585263D01*
X126679603Y-111585263D01*
X126686795Y-111670907D01*
X126695725Y-111777256D01*
X126696840Y-111790538D01*
X126698173Y-111795186D01*
X126698173Y-111795187D01*
X126751027Y-111979507D01*
X126753621Y-111988555D01*
X126847782Y-112171773D01*
X126975737Y-112333212D01*
X127132612Y-112466723D01*
X127136835Y-112469083D01*
X127136839Y-112469086D01*
X127223851Y-112517715D01*
X127312432Y-112567221D01*
X127317030Y-112568715D01*
X127503742Y-112629382D01*
X127503745Y-112629383D01*
X127508347Y-112630878D01*
X127712895Y-112655269D01*
X127717717Y-112654898D01*
X127717720Y-112654898D01*
X127913458Y-112639837D01*
X127913463Y-112639836D01*
X127918286Y-112639465D01*
X128116695Y-112584068D01*
X128147089Y-112568715D01*
X128296244Y-112493371D01*
X128296246Y-112493370D01*
X128300565Y-112491188D01*
X128462893Y-112364363D01*
X128466055Y-112360700D01*
X128466060Y-112360695D01*
X128594332Y-112212089D01*
X128597496Y-112208424D01*
X128620766Y-112167463D01*
X128696858Y-112033517D01*
X128696859Y-112033514D01*
X128699247Y-112029311D01*
X128705417Y-112010765D01*
X128762743Y-111838435D01*
X128762743Y-111838433D01*
X128764270Y-111833844D01*
X128769154Y-111795187D01*
X128789740Y-111632225D01*
X128790088Y-111629471D01*
X128790500Y-111600000D01*
X128789055Y-111585263D01*
X129219603Y-111585263D01*
X129226795Y-111670907D01*
X129235725Y-111777256D01*
X129236840Y-111790538D01*
X129238173Y-111795186D01*
X129238173Y-111795187D01*
X129291027Y-111979507D01*
X129293621Y-111988555D01*
X129387782Y-112171773D01*
X129515737Y-112333212D01*
X129672612Y-112466723D01*
X129676835Y-112469083D01*
X129676839Y-112469086D01*
X129763851Y-112517715D01*
X129852432Y-112567221D01*
X129857030Y-112568715D01*
X130043742Y-112629382D01*
X130043745Y-112629383D01*
X130048347Y-112630878D01*
X130252895Y-112655269D01*
X130257717Y-112654898D01*
X130257720Y-112654898D01*
X130453458Y-112639837D01*
X130453463Y-112639836D01*
X130458286Y-112639465D01*
X130656695Y-112584068D01*
X130687089Y-112568715D01*
X130836244Y-112493371D01*
X130836246Y-112493370D01*
X130840565Y-112491188D01*
X131002893Y-112364363D01*
X131006055Y-112360700D01*
X131006060Y-112360695D01*
X131134332Y-112212089D01*
X131137496Y-112208424D01*
X131160766Y-112167463D01*
X131236858Y-112033517D01*
X131236859Y-112033514D01*
X131239247Y-112029311D01*
X131245417Y-112010765D01*
X131302743Y-111838435D01*
X131302743Y-111838433D01*
X131304270Y-111833844D01*
X131309154Y-111795187D01*
X131329740Y-111632225D01*
X131330088Y-111629471D01*
X131330500Y-111600000D01*
X131329055Y-111585263D01*
X131759603Y-111585263D01*
X131766795Y-111670907D01*
X131775725Y-111777256D01*
X131776840Y-111790538D01*
X131778173Y-111795186D01*
X131778173Y-111795187D01*
X131831027Y-111979507D01*
X131833621Y-111988555D01*
X131927782Y-112171773D01*
X132055737Y-112333212D01*
X132212612Y-112466723D01*
X132216835Y-112469083D01*
X132216839Y-112469086D01*
X132303851Y-112517715D01*
X132392432Y-112567221D01*
X132397030Y-112568715D01*
X132583742Y-112629382D01*
X132583745Y-112629383D01*
X132588347Y-112630878D01*
X132792895Y-112655269D01*
X132797717Y-112654898D01*
X132797720Y-112654898D01*
X132993458Y-112639837D01*
X132993463Y-112639836D01*
X132998286Y-112639465D01*
X133196695Y-112584068D01*
X133227089Y-112568715D01*
X133376244Y-112493371D01*
X133376246Y-112493370D01*
X133380565Y-112491188D01*
X133542893Y-112364363D01*
X133546055Y-112360700D01*
X133546060Y-112360695D01*
X133674332Y-112212089D01*
X133677496Y-112208424D01*
X133700766Y-112167463D01*
X133776858Y-112033517D01*
X133776859Y-112033514D01*
X133779247Y-112029311D01*
X133785417Y-112010765D01*
X133842743Y-111838435D01*
X133842743Y-111838433D01*
X133844270Y-111833844D01*
X133849154Y-111795187D01*
X133869740Y-111632225D01*
X133870088Y-111629471D01*
X133870500Y-111600000D01*
X133869055Y-111585263D01*
X134299603Y-111585263D01*
X134306795Y-111670907D01*
X134315725Y-111777256D01*
X134316840Y-111790538D01*
X134318173Y-111795186D01*
X134318173Y-111795187D01*
X134371027Y-111979507D01*
X134373621Y-111988555D01*
X134467782Y-112171773D01*
X134595737Y-112333212D01*
X134752612Y-112466723D01*
X134756835Y-112469083D01*
X134756839Y-112469086D01*
X134843851Y-112517715D01*
X134932432Y-112567221D01*
X134937030Y-112568715D01*
X135123742Y-112629382D01*
X135123745Y-112629383D01*
X135128347Y-112630878D01*
X135332895Y-112655269D01*
X135337717Y-112654898D01*
X135337720Y-112654898D01*
X135533458Y-112639837D01*
X135533463Y-112639836D01*
X135538286Y-112639465D01*
X135736695Y-112584068D01*
X135767089Y-112568715D01*
X135916244Y-112493371D01*
X135916246Y-112493370D01*
X135920565Y-112491188D01*
X136082893Y-112364363D01*
X136086055Y-112360700D01*
X136086060Y-112360695D01*
X136214332Y-112212089D01*
X136217496Y-112208424D01*
X136240766Y-112167463D01*
X136316858Y-112033517D01*
X136316859Y-112033514D01*
X136319247Y-112029311D01*
X136325417Y-112010765D01*
X136382743Y-111838435D01*
X136382743Y-111838433D01*
X136384270Y-111833844D01*
X136389154Y-111795187D01*
X136409740Y-111632225D01*
X136410088Y-111629471D01*
X136410500Y-111600000D01*
X136409055Y-111585263D01*
X136839603Y-111585263D01*
X136846795Y-111670907D01*
X136855725Y-111777256D01*
X136856840Y-111790538D01*
X136858173Y-111795186D01*
X136858173Y-111795187D01*
X136911027Y-111979507D01*
X136913621Y-111988555D01*
X137007782Y-112171773D01*
X137135737Y-112333212D01*
X137292612Y-112466723D01*
X137296835Y-112469083D01*
X137296839Y-112469086D01*
X137383851Y-112517715D01*
X137472432Y-112567221D01*
X137477030Y-112568715D01*
X137663742Y-112629382D01*
X137663745Y-112629383D01*
X137668347Y-112630878D01*
X137872895Y-112655269D01*
X137877717Y-112654898D01*
X137877720Y-112654898D01*
X138073458Y-112639837D01*
X138073463Y-112639836D01*
X138078286Y-112639465D01*
X138276695Y-112584068D01*
X138307089Y-112568715D01*
X138456244Y-112493371D01*
X138456246Y-112493370D01*
X138460565Y-112491188D01*
X138622893Y-112364363D01*
X138626055Y-112360700D01*
X138626060Y-112360695D01*
X138754332Y-112212089D01*
X138757496Y-112208424D01*
X138780766Y-112167463D01*
X138856858Y-112033517D01*
X138856859Y-112033514D01*
X138859247Y-112029311D01*
X138865417Y-112010765D01*
X138922743Y-111838435D01*
X138922743Y-111838433D01*
X138924270Y-111833844D01*
X138929154Y-111795187D01*
X138949740Y-111632225D01*
X138950088Y-111629471D01*
X138950500Y-111600000D01*
X138949055Y-111585263D01*
X139379603Y-111585263D01*
X139386795Y-111670907D01*
X139395725Y-111777256D01*
X139396840Y-111790538D01*
X139398173Y-111795186D01*
X139398173Y-111795187D01*
X139451027Y-111979507D01*
X139453621Y-111988555D01*
X139547782Y-112171773D01*
X139675737Y-112333212D01*
X139832612Y-112466723D01*
X139836835Y-112469083D01*
X139836839Y-112469086D01*
X139923851Y-112517715D01*
X140012432Y-112567221D01*
X140017030Y-112568715D01*
X140203742Y-112629382D01*
X140203745Y-112629383D01*
X140208347Y-112630878D01*
X140412895Y-112655269D01*
X140417717Y-112654898D01*
X140417720Y-112654898D01*
X140613458Y-112639837D01*
X140613463Y-112639836D01*
X140618286Y-112639465D01*
X140816695Y-112584068D01*
X140847089Y-112568715D01*
X140996244Y-112493371D01*
X140996246Y-112493370D01*
X141000565Y-112491188D01*
X141162893Y-112364363D01*
X141166055Y-112360700D01*
X141166060Y-112360695D01*
X141294332Y-112212089D01*
X141297496Y-112208424D01*
X141320766Y-112167463D01*
X141396858Y-112033517D01*
X141396859Y-112033514D01*
X141399247Y-112029311D01*
X141405417Y-112010765D01*
X141462743Y-111838435D01*
X141462743Y-111838433D01*
X141464270Y-111833844D01*
X141469154Y-111795187D01*
X141489740Y-111632225D01*
X141490088Y-111629471D01*
X141490500Y-111600000D01*
X141484774Y-111541603D01*
X141470870Y-111399796D01*
X141470869Y-111399792D01*
X141470398Y-111394986D01*
X141468962Y-111390228D01*
X141415537Y-111213278D01*
X141410858Y-111197780D01*
X141314148Y-111015895D01*
X141183952Y-110856259D01*
X141107039Y-110792631D01*
X141028955Y-110728034D01*
X141028953Y-110728033D01*
X141025228Y-110724951D01*
X140844023Y-110626973D01*
X140780952Y-110607449D01*
X140651859Y-110567488D01*
X140651855Y-110567487D01*
X140647238Y-110566058D01*
X140642431Y-110565553D01*
X140642427Y-110565552D01*
X140447185Y-110545032D01*
X140447183Y-110545032D01*
X140442369Y-110544526D01*
X140374372Y-110550714D01*
X140242039Y-110562757D01*
X140242036Y-110562758D01*
X140237219Y-110563196D01*
X140232577Y-110564562D01*
X140232573Y-110564563D01*
X140044250Y-110619989D01*
X140044247Y-110619990D01*
X140039603Y-110621357D01*
X140009843Y-110636915D01*
X139861344Y-110714548D01*
X139861340Y-110714551D01*
X139857047Y-110716795D01*
X139853271Y-110719831D01*
X139853268Y-110719833D01*
X139700276Y-110842842D01*
X139696505Y-110845874D01*
X139623736Y-110932597D01*
X139567202Y-110999971D01*
X139567199Y-110999975D01*
X139564093Y-111003677D01*
X139464853Y-111184194D01*
X139463389Y-111188808D01*
X139463388Y-111188811D01*
X139414832Y-111341878D01*
X139402565Y-111380549D01*
X139402025Y-111385361D01*
X139402025Y-111385362D01*
X139383333Y-111552012D01*
X139379603Y-111585263D01*
X138949055Y-111585263D01*
X138944774Y-111541603D01*
X138930870Y-111399796D01*
X138930869Y-111399792D01*
X138930398Y-111394986D01*
X138928962Y-111390228D01*
X138875537Y-111213278D01*
X138870858Y-111197780D01*
X138774148Y-111015895D01*
X138643952Y-110856259D01*
X138567039Y-110792631D01*
X138488955Y-110728034D01*
X138488953Y-110728033D01*
X138485228Y-110724951D01*
X138304023Y-110626973D01*
X138240952Y-110607449D01*
X138111859Y-110567488D01*
X138111855Y-110567487D01*
X138107238Y-110566058D01*
X138102431Y-110565553D01*
X138102427Y-110565552D01*
X137907185Y-110545032D01*
X137907183Y-110545032D01*
X137902369Y-110544526D01*
X137834372Y-110550714D01*
X137702039Y-110562757D01*
X137702036Y-110562758D01*
X137697219Y-110563196D01*
X137692577Y-110564562D01*
X137692573Y-110564563D01*
X137504250Y-110619989D01*
X137504247Y-110619990D01*
X137499603Y-110621357D01*
X137469843Y-110636915D01*
X137321344Y-110714548D01*
X137321340Y-110714551D01*
X137317047Y-110716795D01*
X137313271Y-110719831D01*
X137313268Y-110719833D01*
X137160276Y-110842842D01*
X137156505Y-110845874D01*
X137083736Y-110932597D01*
X137027202Y-110999971D01*
X137027199Y-110999975D01*
X137024093Y-111003677D01*
X136924853Y-111184194D01*
X136923389Y-111188808D01*
X136923388Y-111188811D01*
X136874832Y-111341878D01*
X136862565Y-111380549D01*
X136862025Y-111385361D01*
X136862025Y-111385362D01*
X136843333Y-111552012D01*
X136839603Y-111585263D01*
X136409055Y-111585263D01*
X136404774Y-111541603D01*
X136390870Y-111399796D01*
X136390869Y-111399792D01*
X136390398Y-111394986D01*
X136388962Y-111390228D01*
X136335537Y-111213278D01*
X136330858Y-111197780D01*
X136234148Y-111015895D01*
X136103952Y-110856259D01*
X136027039Y-110792631D01*
X135948955Y-110728034D01*
X135948953Y-110728033D01*
X135945228Y-110724951D01*
X135764023Y-110626973D01*
X135700952Y-110607449D01*
X135571859Y-110567488D01*
X135571855Y-110567487D01*
X135567238Y-110566058D01*
X135562431Y-110565553D01*
X135562427Y-110565552D01*
X135367185Y-110545032D01*
X135367183Y-110545032D01*
X135362369Y-110544526D01*
X135294372Y-110550714D01*
X135162039Y-110562757D01*
X135162036Y-110562758D01*
X135157219Y-110563196D01*
X135152577Y-110564562D01*
X135152573Y-110564563D01*
X134964250Y-110619989D01*
X134964247Y-110619990D01*
X134959603Y-110621357D01*
X134929843Y-110636915D01*
X134781344Y-110714548D01*
X134781340Y-110714551D01*
X134777047Y-110716795D01*
X134773271Y-110719831D01*
X134773268Y-110719833D01*
X134620276Y-110842842D01*
X134616505Y-110845874D01*
X134543736Y-110932597D01*
X134487202Y-110999971D01*
X134487199Y-110999975D01*
X134484093Y-111003677D01*
X134384853Y-111184194D01*
X134383389Y-111188808D01*
X134383388Y-111188811D01*
X134334832Y-111341878D01*
X134322565Y-111380549D01*
X134322025Y-111385361D01*
X134322025Y-111385362D01*
X134303333Y-111552012D01*
X134299603Y-111585263D01*
X133869055Y-111585263D01*
X133864774Y-111541603D01*
X133850870Y-111399796D01*
X133850869Y-111399792D01*
X133850398Y-111394986D01*
X133848962Y-111390228D01*
X133795537Y-111213278D01*
X133790858Y-111197780D01*
X133694148Y-111015895D01*
X133563952Y-110856259D01*
X133487039Y-110792631D01*
X133408955Y-110728034D01*
X133408953Y-110728033D01*
X133405228Y-110724951D01*
X133224023Y-110626973D01*
X133160952Y-110607449D01*
X133031859Y-110567488D01*
X133031855Y-110567487D01*
X133027238Y-110566058D01*
X133022431Y-110565553D01*
X133022427Y-110565552D01*
X132827185Y-110545032D01*
X132827183Y-110545032D01*
X132822369Y-110544526D01*
X132754372Y-110550714D01*
X132622039Y-110562757D01*
X132622036Y-110562758D01*
X132617219Y-110563196D01*
X132612577Y-110564562D01*
X132612573Y-110564563D01*
X132424250Y-110619989D01*
X132424247Y-110619990D01*
X132419603Y-110621357D01*
X132389843Y-110636915D01*
X132241344Y-110714548D01*
X132241340Y-110714551D01*
X132237047Y-110716795D01*
X132233271Y-110719831D01*
X132233268Y-110719833D01*
X132080276Y-110842842D01*
X132076505Y-110845874D01*
X132003736Y-110932597D01*
X131947202Y-110999971D01*
X131947199Y-110999975D01*
X131944093Y-111003677D01*
X131844853Y-111184194D01*
X131843389Y-111188808D01*
X131843388Y-111188811D01*
X131794832Y-111341878D01*
X131782565Y-111380549D01*
X131782025Y-111385361D01*
X131782025Y-111385362D01*
X131763333Y-111552012D01*
X131759603Y-111585263D01*
X131329055Y-111585263D01*
X131324774Y-111541603D01*
X131310870Y-111399796D01*
X131310869Y-111399792D01*
X131310398Y-111394986D01*
X131308962Y-111390228D01*
X131255537Y-111213278D01*
X131250858Y-111197780D01*
X131154148Y-111015895D01*
X131023952Y-110856259D01*
X130947039Y-110792631D01*
X130868955Y-110728034D01*
X130868953Y-110728033D01*
X130865228Y-110724951D01*
X130684023Y-110626973D01*
X130620952Y-110607449D01*
X130491859Y-110567488D01*
X130491855Y-110567487D01*
X130487238Y-110566058D01*
X130482431Y-110565553D01*
X130482427Y-110565552D01*
X130287185Y-110545032D01*
X130287183Y-110545032D01*
X130282369Y-110544526D01*
X130214372Y-110550714D01*
X130082039Y-110562757D01*
X130082036Y-110562758D01*
X130077219Y-110563196D01*
X130072577Y-110564562D01*
X130072573Y-110564563D01*
X129884250Y-110619989D01*
X129884247Y-110619990D01*
X129879603Y-110621357D01*
X129849843Y-110636915D01*
X129701344Y-110714548D01*
X129701340Y-110714551D01*
X129697047Y-110716795D01*
X129693271Y-110719831D01*
X129693268Y-110719833D01*
X129540276Y-110842842D01*
X129536505Y-110845874D01*
X129463736Y-110932597D01*
X129407202Y-110999971D01*
X129407199Y-110999975D01*
X129404093Y-111003677D01*
X129304853Y-111184194D01*
X129303389Y-111188808D01*
X129303388Y-111188811D01*
X129254832Y-111341878D01*
X129242565Y-111380549D01*
X129242025Y-111385361D01*
X129242025Y-111385362D01*
X129223333Y-111552012D01*
X129219603Y-111585263D01*
X128789055Y-111585263D01*
X128784774Y-111541603D01*
X128770870Y-111399796D01*
X128770869Y-111399792D01*
X128770398Y-111394986D01*
X128768962Y-111390228D01*
X128715537Y-111213278D01*
X128710858Y-111197780D01*
X128614148Y-111015895D01*
X128483952Y-110856259D01*
X128407039Y-110792631D01*
X128328955Y-110728034D01*
X128328953Y-110728033D01*
X128325228Y-110724951D01*
X128144023Y-110626973D01*
X128080952Y-110607449D01*
X127951859Y-110567488D01*
X127951855Y-110567487D01*
X127947238Y-110566058D01*
X127942431Y-110565553D01*
X127942427Y-110565552D01*
X127747185Y-110545032D01*
X127747183Y-110545032D01*
X127742369Y-110544526D01*
X127674372Y-110550714D01*
X127542039Y-110562757D01*
X127542036Y-110562758D01*
X127537219Y-110563196D01*
X127532577Y-110564562D01*
X127532573Y-110564563D01*
X127344250Y-110619989D01*
X127344247Y-110619990D01*
X127339603Y-110621357D01*
X127309843Y-110636915D01*
X127161344Y-110714548D01*
X127161340Y-110714551D01*
X127157047Y-110716795D01*
X127153271Y-110719831D01*
X127153268Y-110719833D01*
X127000276Y-110842842D01*
X126996505Y-110845874D01*
X126923736Y-110932597D01*
X126867202Y-110999971D01*
X126867199Y-110999975D01*
X126864093Y-111003677D01*
X126764853Y-111184194D01*
X126763389Y-111188808D01*
X126763388Y-111188811D01*
X126714832Y-111341878D01*
X126702565Y-111380549D01*
X126702025Y-111385361D01*
X126702025Y-111385362D01*
X126683333Y-111552012D01*
X126679603Y-111585263D01*
X126249055Y-111585263D01*
X126244774Y-111541603D01*
X126230870Y-111399796D01*
X126230869Y-111399792D01*
X126230398Y-111394986D01*
X126228962Y-111390228D01*
X126175537Y-111213278D01*
X126170858Y-111197780D01*
X126074148Y-111015895D01*
X125943952Y-110856259D01*
X125867039Y-110792631D01*
X125788955Y-110728034D01*
X125788953Y-110728033D01*
X125785228Y-110724951D01*
X125604023Y-110626973D01*
X125604178Y-110626685D01*
X125559816Y-110588389D01*
X125545500Y-110537109D01*
X125545500Y-107391190D01*
X125564407Y-107332999D01*
X125574496Y-107321186D01*
X129095682Y-103800000D01*
X136994500Y-103800000D01*
X137015132Y-103956715D01*
X137075622Y-104102750D01*
X137171847Y-104228153D01*
X137297250Y-104324378D01*
X137443285Y-104384868D01*
X137600000Y-104405500D01*
X137606434Y-104404653D01*
X137655436Y-104398202D01*
X137715597Y-104409352D01*
X137737651Y-104425648D01*
X140542741Y-107174637D01*
X142094719Y-108695575D01*
X142219793Y-108818148D01*
X142248120Y-108872381D01*
X142249500Y-108888855D01*
X142249500Y-114963441D01*
X142230593Y-115021632D01*
X142210768Y-115041982D01*
X142171847Y-115071847D01*
X142075622Y-115197250D01*
X142015132Y-115343285D01*
X141994500Y-115500000D01*
X142015132Y-115656715D01*
X142075622Y-115802750D01*
X142171847Y-115928153D01*
X142297250Y-116024378D01*
X142443285Y-116084868D01*
X142600000Y-116105500D01*
X142756715Y-116084868D01*
X142902750Y-116024378D01*
X143028153Y-115928153D01*
X143124378Y-115802750D01*
X143184868Y-115656715D01*
X143205500Y-115500000D01*
X143184868Y-115343285D01*
X143124378Y-115197250D01*
X143028153Y-115071847D01*
X142989233Y-115041982D01*
X142954577Y-114991559D01*
X142950500Y-114963441D01*
X142950500Y-108746420D01*
X142952512Y-108726562D01*
X142953615Y-108721175D01*
X142953615Y-108721173D01*
X142955256Y-108713159D01*
X142951279Y-108682236D01*
X142950809Y-108677782D01*
X142950500Y-108674044D01*
X142950500Y-108669961D01*
X142947277Y-108650598D01*
X142946748Y-108647009D01*
X142941410Y-108605496D01*
X142941409Y-108605493D01*
X142940365Y-108597375D01*
X142937425Y-108591408D01*
X142936333Y-108584847D01*
X142932447Y-108577645D01*
X142932446Y-108577642D01*
X142912563Y-108540792D01*
X142910883Y-108537537D01*
X142907648Y-108530971D01*
X142888772Y-108492659D01*
X142886554Y-108490073D01*
X142885025Y-108488575D01*
X142883557Y-108487006D01*
X142883693Y-108486879D01*
X142883132Y-108486249D01*
X142880900Y-108482112D01*
X142867957Y-108470147D01*
X142838414Y-108442838D01*
X142836323Y-108440847D01*
X142633013Y-108241603D01*
X138228845Y-103925517D01*
X138200518Y-103871285D01*
X138199985Y-103841888D01*
X138204653Y-103806433D01*
X138205500Y-103800000D01*
X138184868Y-103643285D01*
X138124378Y-103497250D01*
X138028153Y-103371847D01*
X137902750Y-103275622D01*
X137756715Y-103215132D01*
X137600000Y-103194500D01*
X137443285Y-103215132D01*
X137297250Y-103275622D01*
X137171847Y-103371847D01*
X137075622Y-103497250D01*
X137015132Y-103643285D01*
X136994500Y-103800000D01*
X129095682Y-103800000D01*
X132013428Y-100882254D01*
X132029729Y-100869091D01*
X132039256Y-100862939D01*
X132044322Y-100856513D01*
X132044324Y-100856511D01*
X132059898Y-100836756D01*
X132063570Y-100832623D01*
X132063552Y-100832608D01*
X132066203Y-100829479D01*
X132069082Y-100826600D01*
X132071451Y-100823284D01*
X132071455Y-100823280D01*
X132079159Y-100812499D01*
X132081943Y-100808790D01*
X132111527Y-100771263D01*
X132114093Y-100763957D01*
X132114746Y-100762700D01*
X132119249Y-100756398D01*
X132132953Y-100710573D01*
X132134372Y-100706209D01*
X132150206Y-100661121D01*
X132150500Y-100657727D01*
X132150500Y-100655587D01*
X132150592Y-100653455D01*
X132150751Y-100653462D01*
X132150942Y-100650423D01*
X132152697Y-100644556D01*
X132151969Y-100626009D01*
X132150576Y-100590561D01*
X132150500Y-100586675D01*
X132150500Y-100177952D01*
X136894615Y-100177952D01*
X136894809Y-100181317D01*
X136894809Y-100181321D01*
X136909510Y-100436270D01*
X136911102Y-100463889D01*
X136911750Y-100467192D01*
X136934827Y-100584815D01*
X136966243Y-100744943D01*
X137059017Y-101015914D01*
X137187708Y-101271787D01*
X137349933Y-101507827D01*
X137542693Y-101719666D01*
X137762418Y-101903385D01*
X138005044Y-102055584D01*
X138008112Y-102056969D01*
X138008119Y-102056973D01*
X138177611Y-102133501D01*
X138266082Y-102173447D01*
X138269304Y-102174401D01*
X138269311Y-102174404D01*
X138490366Y-102239883D01*
X138540699Y-102254793D01*
X138544021Y-102255301D01*
X138544024Y-102255302D01*
X138820482Y-102297606D01*
X138820485Y-102297606D01*
X138823816Y-102298116D01*
X138827186Y-102298169D01*
X138827187Y-102298169D01*
X138901306Y-102299333D01*
X139110193Y-102302614D01*
X139113529Y-102302210D01*
X139113535Y-102302210D01*
X139391180Y-102268612D01*
X139391187Y-102268611D01*
X139394531Y-102268206D01*
X139397794Y-102267350D01*
X139397799Y-102267349D01*
X139555352Y-102226015D01*
X139671569Y-102195526D01*
X139674679Y-102194238D01*
X139933070Y-102087209D01*
X139933073Y-102087208D01*
X139936179Y-102085921D01*
X139939084Y-102084224D01*
X139939087Y-102084222D01*
X140180555Y-101943120D01*
X140180559Y-101943117D01*
X140183467Y-101941418D01*
X140408854Y-101764691D01*
X140539428Y-101629950D01*
X140605828Y-101561431D01*
X140605829Y-101561430D01*
X140608173Y-101559011D01*
X140622724Y-101539203D01*
X140775737Y-101330899D01*
X140775738Y-101330898D01*
X140777732Y-101328183D01*
X140809986Y-101268780D01*
X140912788Y-101079442D01*
X140914397Y-101076479D01*
X140995087Y-100862939D01*
X141014446Y-100811706D01*
X141014447Y-100811702D01*
X141015636Y-100808556D01*
X141048059Y-100666993D01*
X141078825Y-100532663D01*
X141078826Y-100532656D01*
X141079578Y-100529373D01*
X141084698Y-100472002D01*
X141104866Y-100246024D01*
X141104866Y-100246018D01*
X141105038Y-100244094D01*
X141105500Y-100200000D01*
X141086020Y-99914251D01*
X141081500Y-99892422D01*
X141028622Y-99637088D01*
X141027939Y-99633789D01*
X140932332Y-99363805D01*
X140800969Y-99109294D01*
X140789854Y-99093478D01*
X140638220Y-98877725D01*
X140636281Y-98874966D01*
X140441314Y-98665157D01*
X140438707Y-98663023D01*
X140222290Y-98485886D01*
X140222283Y-98485881D01*
X140219677Y-98483748D01*
X139975470Y-98334098D01*
X139972395Y-98332748D01*
X139972389Y-98332745D01*
X139716296Y-98220329D01*
X139716292Y-98220327D01*
X139713213Y-98218976D01*
X139659214Y-98203594D01*
X139441010Y-98141436D01*
X139441005Y-98141435D01*
X139437758Y-98140510D01*
X139154203Y-98100154D01*
X139150836Y-98100136D01*
X139150831Y-98100136D01*
X139022457Y-98099464D01*
X138867795Y-98098655D01*
X138583832Y-98136039D01*
X138580581Y-98136928D01*
X138580578Y-98136929D01*
X138487436Y-98162410D01*
X138307571Y-98211616D01*
X138044123Y-98323986D01*
X137798363Y-98471070D01*
X137795731Y-98473178D01*
X137795729Y-98473180D01*
X137577471Y-98648038D01*
X137577466Y-98648042D01*
X137574838Y-98650148D01*
X137572517Y-98652594D01*
X137405159Y-98828952D01*
X137377684Y-98857904D01*
X137210551Y-99090495D01*
X137076530Y-99343616D01*
X137075370Y-99346785D01*
X137075369Y-99346788D01*
X137069142Y-99363805D01*
X136978102Y-99612584D01*
X136917087Y-99892422D01*
X136894615Y-100177952D01*
X132150500Y-100177952D01*
X132150500Y-97586190D01*
X132169407Y-97527999D01*
X132179496Y-97516186D01*
X136995682Y-92700000D01*
X143594500Y-92700000D01*
X143615132Y-92856715D01*
X143675622Y-93002750D01*
X143771847Y-93128153D01*
X143777000Y-93132107D01*
X143810767Y-93158017D01*
X143845423Y-93208441D01*
X143849500Y-93236559D01*
X143849500Y-114963441D01*
X143830593Y-115021632D01*
X143810768Y-115041982D01*
X143771847Y-115071847D01*
X143675622Y-115197250D01*
X143615132Y-115343285D01*
X143594500Y-115500000D01*
X143615132Y-115656715D01*
X143675622Y-115802750D01*
X143771847Y-115928153D01*
X143897250Y-116024378D01*
X144043285Y-116084868D01*
X144200000Y-116105500D01*
X144356715Y-116084868D01*
X144502750Y-116024378D01*
X144628153Y-115928153D01*
X144724378Y-115802750D01*
X144784868Y-115656715D01*
X144805500Y-115500000D01*
X144784868Y-115343285D01*
X144724378Y-115197250D01*
X144628153Y-115071847D01*
X144589233Y-115041982D01*
X144554577Y-114991559D01*
X144550500Y-114963441D01*
X144550500Y-109348748D01*
X154499500Y-109348748D01*
X154499500Y-110633258D01*
X154514636Y-110733935D01*
X154517839Y-110740606D01*
X154517840Y-110740608D01*
X154545137Y-110797453D01*
X154573265Y-110856029D01*
X154665202Y-110955486D01*
X154715300Y-110984585D01*
X154775917Y-111019795D01*
X154775920Y-111019796D01*
X154782319Y-111023513D01*
X154819624Y-111032160D01*
X154893246Y-111049225D01*
X154893249Y-111049225D01*
X154898748Y-111050500D01*
X156483258Y-111050500D01*
X156519697Y-111045022D01*
X156576614Y-111036465D01*
X156576616Y-111036464D01*
X156583935Y-111035364D01*
X156590606Y-111032161D01*
X156590608Y-111032160D01*
X156699361Y-110979937D01*
X156706029Y-110976735D01*
X156805486Y-110884798D01*
X156859021Y-110792631D01*
X156869795Y-110774083D01*
X156869796Y-110774080D01*
X156873513Y-110767681D01*
X156900500Y-110651252D01*
X156900500Y-109366742D01*
X156895022Y-109330303D01*
X156886465Y-109273386D01*
X156886464Y-109273384D01*
X156885364Y-109266065D01*
X156872624Y-109239533D01*
X156829937Y-109150639D01*
X156826735Y-109143971D01*
X156734798Y-109044514D01*
X156683125Y-109014500D01*
X156624083Y-108980205D01*
X156624080Y-108980204D01*
X156617681Y-108976487D01*
X156561803Y-108963535D01*
X156506754Y-108950775D01*
X156506751Y-108950775D01*
X156501252Y-108949500D01*
X154916742Y-108949500D01*
X154880303Y-108954978D01*
X154823386Y-108963535D01*
X154823384Y-108963536D01*
X154816065Y-108964636D01*
X154809394Y-108967839D01*
X154809392Y-108967840D01*
X154712224Y-109014500D01*
X154693971Y-109023265D01*
X154594514Y-109115202D01*
X154590797Y-109121602D01*
X154530205Y-109225917D01*
X154530204Y-109225920D01*
X154526487Y-109232319D01*
X154499500Y-109348748D01*
X144550500Y-109348748D01*
X144550500Y-107492631D01*
X154494526Y-107492631D01*
X154495867Y-107507369D01*
X154512523Y-107690382D01*
X154513196Y-107697781D01*
X154514562Y-107702423D01*
X154514563Y-107702427D01*
X154540693Y-107791209D01*
X154571357Y-107895397D01*
X154592274Y-107935407D01*
X154664548Y-108073656D01*
X154664551Y-108073660D01*
X154666795Y-108077953D01*
X154795874Y-108238495D01*
X154882597Y-108311264D01*
X154949971Y-108367798D01*
X154949975Y-108367801D01*
X154953677Y-108370907D01*
X155134194Y-108470147D01*
X155138808Y-108471611D01*
X155138811Y-108471612D01*
X155315305Y-108527599D01*
X155330549Y-108532435D01*
X155335361Y-108532975D01*
X155335362Y-108532975D01*
X155488849Y-108550191D01*
X155488851Y-108550191D01*
X155491605Y-108550500D01*
X155900993Y-108550500D01*
X155903387Y-108550265D01*
X155903392Y-108550265D01*
X156050204Y-108535870D01*
X156050208Y-108535869D01*
X156055014Y-108535398D01*
X156059639Y-108534002D01*
X156059642Y-108534001D01*
X156127894Y-108513394D01*
X156252220Y-108475858D01*
X156434105Y-108379148D01*
X156593741Y-108248952D01*
X156602392Y-108238495D01*
X156721966Y-108093955D01*
X156721967Y-108093953D01*
X156725049Y-108090228D01*
X156823027Y-107909023D01*
X156842551Y-107845952D01*
X156882512Y-107716859D01*
X156882513Y-107716855D01*
X156883942Y-107712238D01*
X156884974Y-107702427D01*
X156904968Y-107512185D01*
X156904968Y-107512183D01*
X156905474Y-107507369D01*
X156895722Y-107400213D01*
X156887243Y-107307039D01*
X156887242Y-107307036D01*
X156886804Y-107302219D01*
X156868688Y-107240663D01*
X156830011Y-107109250D01*
X156830010Y-107109247D01*
X156828643Y-107104603D01*
X156762666Y-106978400D01*
X156735452Y-106926344D01*
X156735449Y-106926340D01*
X156733205Y-106922047D01*
X156706328Y-106888618D01*
X156607158Y-106765276D01*
X156604126Y-106761505D01*
X156484898Y-106661461D01*
X156450029Y-106632202D01*
X156450025Y-106632199D01*
X156446323Y-106629093D01*
X156265806Y-106529853D01*
X156261192Y-106528389D01*
X156261189Y-106528388D01*
X156074066Y-106469029D01*
X156069451Y-106467565D01*
X156064639Y-106467025D01*
X156064638Y-106467025D01*
X155911151Y-106449809D01*
X155911149Y-106449809D01*
X155908395Y-106449500D01*
X155499007Y-106449500D01*
X155496613Y-106449735D01*
X155496608Y-106449735D01*
X155349796Y-106464130D01*
X155349792Y-106464131D01*
X155344986Y-106464602D01*
X155340361Y-106465998D01*
X155340358Y-106465999D01*
X155272106Y-106486606D01*
X155147780Y-106524142D01*
X154965895Y-106620852D01*
X154806259Y-106751048D01*
X154803175Y-106754776D01*
X154803174Y-106754777D01*
X154720793Y-106854359D01*
X154674951Y-106909772D01*
X154576973Y-107090977D01*
X154575544Y-107095594D01*
X154530638Y-107240663D01*
X154516058Y-107287762D01*
X154515553Y-107292569D01*
X154515552Y-107292573D01*
X154504897Y-107393954D01*
X154494526Y-107492631D01*
X144550500Y-107492631D01*
X144550500Y-99928748D01*
X154569500Y-99928748D01*
X154569500Y-101213258D01*
X154584636Y-101313935D01*
X154587839Y-101320606D01*
X154587840Y-101320608D01*
X154603915Y-101354083D01*
X154643265Y-101436029D01*
X154735202Y-101535486D01*
X154779870Y-101561431D01*
X154845917Y-101599795D01*
X154845920Y-101599796D01*
X154852319Y-101603513D01*
X154889624Y-101612160D01*
X154963246Y-101629225D01*
X154963249Y-101629225D01*
X154968748Y-101630500D01*
X156503258Y-101630500D01*
X156539697Y-101625022D01*
X156596614Y-101616465D01*
X156596616Y-101616464D01*
X156603935Y-101615364D01*
X156610606Y-101612161D01*
X156610608Y-101612160D01*
X156719361Y-101559937D01*
X156726029Y-101556735D01*
X156825486Y-101464798D01*
X156854585Y-101414700D01*
X156889795Y-101354083D01*
X156889796Y-101354080D01*
X156893513Y-101347681D01*
X156903032Y-101306614D01*
X156919225Y-101236754D01*
X156919225Y-101236751D01*
X156920500Y-101231252D01*
X156920500Y-99946742D01*
X156912838Y-99895780D01*
X156906465Y-99853386D01*
X156906464Y-99853384D01*
X156905364Y-99846065D01*
X156892624Y-99819533D01*
X156849937Y-99730639D01*
X156846735Y-99723971D01*
X156754798Y-99624514D01*
X156704700Y-99595415D01*
X156644083Y-99560205D01*
X156644080Y-99560204D01*
X156637681Y-99556487D01*
X156581803Y-99543535D01*
X156526754Y-99530775D01*
X156526751Y-99530775D01*
X156521252Y-99529500D01*
X154986742Y-99529500D01*
X154950303Y-99534978D01*
X154893386Y-99543535D01*
X154893384Y-99543536D01*
X154886065Y-99544636D01*
X154879394Y-99547839D01*
X154879392Y-99547840D01*
X154770639Y-99600063D01*
X154763971Y-99603265D01*
X154664514Y-99695202D01*
X154660797Y-99701602D01*
X154600205Y-99805917D01*
X154600204Y-99805920D01*
X154596487Y-99812319D01*
X154594815Y-99819533D01*
X154577142Y-99895780D01*
X154569500Y-99928748D01*
X144550500Y-99928748D01*
X144550500Y-98072631D01*
X154564526Y-98072631D01*
X154565867Y-98087369D01*
X154577175Y-98211616D01*
X154583196Y-98277781D01*
X154584562Y-98282423D01*
X154584563Y-98282427D01*
X154639989Y-98470750D01*
X154641357Y-98475397D01*
X154662274Y-98515407D01*
X154734548Y-98653656D01*
X154734551Y-98653660D01*
X154736795Y-98657953D01*
X154865874Y-98818495D01*
X154930230Y-98872496D01*
X155019971Y-98947798D01*
X155019975Y-98947801D01*
X155023677Y-98950907D01*
X155204194Y-99050147D01*
X155208808Y-99051611D01*
X155208811Y-99051612D01*
X155331386Y-99090495D01*
X155400549Y-99112435D01*
X155405361Y-99112975D01*
X155405362Y-99112975D01*
X155558849Y-99130191D01*
X155558851Y-99130191D01*
X155561605Y-99130500D01*
X155920993Y-99130500D01*
X155923387Y-99130265D01*
X155923392Y-99130265D01*
X156070204Y-99115870D01*
X156070208Y-99115869D01*
X156075014Y-99115398D01*
X156079639Y-99114002D01*
X156079642Y-99114001D01*
X156157497Y-99090495D01*
X156272220Y-99055858D01*
X156454105Y-98959148D01*
X156613741Y-98828952D01*
X156622392Y-98818495D01*
X156741966Y-98673955D01*
X156741967Y-98673953D01*
X156745049Y-98670228D01*
X156843027Y-98489023D01*
X156890439Y-98335860D01*
X156902512Y-98296859D01*
X156902513Y-98296855D01*
X156903942Y-98292238D01*
X156904974Y-98282427D01*
X156924968Y-98092185D01*
X156924968Y-98092183D01*
X156925474Y-98087369D01*
X156906804Y-97882219D01*
X156848643Y-97684603D01*
X156797194Y-97586190D01*
X156755452Y-97506344D01*
X156755449Y-97506340D01*
X156753205Y-97502047D01*
X156624126Y-97341505D01*
X156516788Y-97251438D01*
X156470029Y-97212202D01*
X156470025Y-97212199D01*
X156466323Y-97209093D01*
X156285806Y-97109853D01*
X156281192Y-97108389D01*
X156281189Y-97108388D01*
X156094066Y-97049029D01*
X156089451Y-97047565D01*
X156084639Y-97047025D01*
X156084638Y-97047025D01*
X155931151Y-97029809D01*
X155931149Y-97029809D01*
X155928395Y-97029500D01*
X155569007Y-97029500D01*
X155566613Y-97029735D01*
X155566608Y-97029735D01*
X155419796Y-97044130D01*
X155419792Y-97044131D01*
X155414986Y-97044602D01*
X155410361Y-97045998D01*
X155410358Y-97045999D01*
X155342106Y-97066606D01*
X155217780Y-97104142D01*
X155035895Y-97200852D01*
X154876259Y-97331048D01*
X154873175Y-97334776D01*
X154873174Y-97334777D01*
X154862152Y-97348101D01*
X154744951Y-97489772D01*
X154646973Y-97670977D01*
X154586058Y-97867762D01*
X154585553Y-97872569D01*
X154585552Y-97872573D01*
X154584032Y-97887039D01*
X154564526Y-98072631D01*
X144550500Y-98072631D01*
X144550500Y-93236559D01*
X144569407Y-93178368D01*
X144589233Y-93158017D01*
X144623000Y-93132107D01*
X144628153Y-93128153D01*
X144724378Y-93002750D01*
X144784868Y-92856715D01*
X144805500Y-92700000D01*
X144784868Y-92543285D01*
X144724378Y-92397250D01*
X144628153Y-92271847D01*
X144502750Y-92175622D01*
X144356715Y-92115132D01*
X144200000Y-92094500D01*
X144043285Y-92115132D01*
X143897250Y-92175622D01*
X143771847Y-92271847D01*
X143675622Y-92397250D01*
X143615132Y-92543285D01*
X143594500Y-92700000D01*
X136995682Y-92700000D01*
X138913428Y-90782254D01*
X138929729Y-90769091D01*
X138939256Y-90762939D01*
X138944322Y-90756513D01*
X138944324Y-90756511D01*
X138959898Y-90736756D01*
X138963570Y-90732623D01*
X138963552Y-90732608D01*
X138966203Y-90729479D01*
X138969082Y-90726600D01*
X138971451Y-90723284D01*
X138971455Y-90723280D01*
X138979159Y-90712499D01*
X138981943Y-90708790D01*
X139011527Y-90671263D01*
X139014093Y-90663957D01*
X139014746Y-90662700D01*
X139019249Y-90656398D01*
X139032953Y-90610573D01*
X139034372Y-90606209D01*
X139050206Y-90561121D01*
X139050500Y-90557727D01*
X139050500Y-90555587D01*
X139050592Y-90553455D01*
X139050751Y-90553462D01*
X139050942Y-90550423D01*
X139052697Y-90544556D01*
X139050576Y-90490561D01*
X139050500Y-90486675D01*
X139050500Y-85886190D01*
X139069407Y-85827999D01*
X139079496Y-85816186D01*
X140468436Y-84427246D01*
X140522953Y-84399469D01*
X140551361Y-84399097D01*
X140593565Y-84404653D01*
X140593566Y-84404653D01*
X140600000Y-84405500D01*
X140756715Y-84384868D01*
X140902750Y-84324378D01*
X141028153Y-84228153D01*
X141124378Y-84102750D01*
X141184868Y-83956715D01*
X141205500Y-83800000D01*
X141184868Y-83643285D01*
X141179055Y-83629250D01*
X141126861Y-83503245D01*
X141124378Y-83497250D01*
X141028153Y-83371847D01*
X140902750Y-83275622D01*
X140756715Y-83215132D01*
X140600000Y-83194500D01*
X140443285Y-83215132D01*
X140297250Y-83275622D01*
X140171847Y-83371847D01*
X140075622Y-83497250D01*
X140073139Y-83503245D01*
X140020946Y-83629250D01*
X140015132Y-83643285D01*
X139994500Y-83800000D01*
X139995347Y-83806434D01*
X139995347Y-83806435D01*
X140000903Y-83848639D01*
X139989753Y-83908799D01*
X139972754Y-83931564D01*
X138486572Y-85417746D01*
X138470271Y-85430909D01*
X138460744Y-85437061D01*
X138455678Y-85443487D01*
X138455676Y-85443489D01*
X138440102Y-85463244D01*
X138436430Y-85467377D01*
X138436448Y-85467392D01*
X138433797Y-85470521D01*
X138430918Y-85473400D01*
X138428549Y-85476716D01*
X138428545Y-85476720D01*
X138420841Y-85487501D01*
X138418057Y-85491210D01*
X138388473Y-85528737D01*
X138385905Y-85536048D01*
X138385257Y-85537296D01*
X138380751Y-85543602D01*
X138372872Y-85569949D01*
X138367065Y-85589368D01*
X138365622Y-85593808D01*
X138352850Y-85630178D01*
X138349794Y-85638879D01*
X138349500Y-85642273D01*
X138349500Y-85644412D01*
X138349408Y-85646545D01*
X138349249Y-85646538D01*
X138349058Y-85649580D01*
X138347304Y-85655444D01*
X138347625Y-85663618D01*
X138347625Y-85663619D01*
X138349424Y-85709414D01*
X138349500Y-85713300D01*
X138349500Y-90313811D01*
X138330593Y-90372002D01*
X138320504Y-90383815D01*
X131586572Y-97117746D01*
X131570271Y-97130909D01*
X131560744Y-97137061D01*
X131555678Y-97143487D01*
X131555676Y-97143489D01*
X131540102Y-97163244D01*
X131536430Y-97167377D01*
X131536448Y-97167392D01*
X131533797Y-97170521D01*
X131530918Y-97173400D01*
X131528549Y-97176716D01*
X131528545Y-97176720D01*
X131520841Y-97187501D01*
X131518057Y-97191210D01*
X131488473Y-97228737D01*
X131485905Y-97236048D01*
X131485257Y-97237296D01*
X131480751Y-97243602D01*
X131478408Y-97251438D01*
X131467065Y-97289368D01*
X131465622Y-97293808D01*
X131449794Y-97338879D01*
X131449500Y-97342273D01*
X131449500Y-97344412D01*
X131449408Y-97346545D01*
X131449249Y-97346538D01*
X131449058Y-97349580D01*
X131447304Y-97355444D01*
X131447625Y-97363618D01*
X131447625Y-97363619D01*
X131449424Y-97409414D01*
X131449500Y-97413300D01*
X131449500Y-100413811D01*
X131430593Y-100472002D01*
X131420504Y-100483815D01*
X131319504Y-100584815D01*
X131264987Y-100612592D01*
X131204555Y-100603021D01*
X131161290Y-100559756D01*
X131150500Y-100514811D01*
X131150500Y-96886190D01*
X131169407Y-96827999D01*
X131179496Y-96816186D01*
X137313423Y-90682258D01*
X137329723Y-90669094D01*
X137339256Y-90662939D01*
X137344413Y-90656398D01*
X137359900Y-90636752D01*
X137363569Y-90632623D01*
X137363551Y-90632608D01*
X137366202Y-90629479D01*
X137369081Y-90626600D01*
X137371450Y-90623284D01*
X137371454Y-90623280D01*
X137379148Y-90612513D01*
X137381932Y-90608804D01*
X137411527Y-90571263D01*
X137414093Y-90563955D01*
X137414747Y-90562697D01*
X137419248Y-90556398D01*
X137432947Y-90510590D01*
X137434366Y-90506226D01*
X137450206Y-90461121D01*
X137450500Y-90457727D01*
X137450500Y-90455587D01*
X137450592Y-90453455D01*
X137450751Y-90453462D01*
X137450942Y-90450421D01*
X137452696Y-90444557D01*
X137450576Y-90390586D01*
X137450500Y-90386700D01*
X137450500Y-82786190D01*
X137469407Y-82727999D01*
X137479496Y-82716186D01*
X137686858Y-82508824D01*
X142889538Y-82508824D01*
X142890453Y-82515822D01*
X142899613Y-82585870D01*
X142908121Y-82650939D01*
X142910962Y-82657395D01*
X142910962Y-82657396D01*
X142936831Y-82716186D01*
X142965845Y-82782126D01*
X142996284Y-82818337D01*
X143019253Y-82875045D01*
X143019500Y-82882038D01*
X143019500Y-88526412D01*
X143017291Y-88547210D01*
X143014888Y-88558394D01*
X143015853Y-88566520D01*
X143018809Y-88591410D01*
X143019133Y-88596884D01*
X143019163Y-88596882D01*
X143019500Y-88600958D01*
X143019500Y-88605039D01*
X143020170Y-88609063D01*
X143022358Y-88622206D01*
X143023011Y-88626789D01*
X143027689Y-88666186D01*
X143027690Y-88666189D01*
X143028655Y-88674316D01*
X143032024Y-88681323D01*
X143032391Y-88682483D01*
X143033667Y-88690153D01*
X143056416Y-88732314D01*
X143058475Y-88736352D01*
X143079229Y-88779529D01*
X143081422Y-88782136D01*
X143082944Y-88783657D01*
X143084382Y-88785224D01*
X143084265Y-88785331D01*
X143086218Y-88787546D01*
X143089100Y-88792888D01*
X143095104Y-88798438D01*
X143128875Y-88829656D01*
X143131649Y-88832323D01*
X149170206Y-94866110D01*
X149198393Y-94923303D01*
X149213121Y-95035939D01*
X149215962Y-95042395D01*
X149215962Y-95042396D01*
X149217870Y-95046731D01*
X149270845Y-95167126D01*
X149275382Y-95172523D01*
X149275383Y-95172525D01*
X149283913Y-95182672D01*
X149363068Y-95276838D01*
X149368939Y-95280746D01*
X149368940Y-95280747D01*
X149381235Y-95288931D01*
X149482377Y-95356257D01*
X149489104Y-95358359D01*
X149489107Y-95358360D01*
X149612448Y-95396894D01*
X149612449Y-95396894D01*
X149619180Y-95398997D01*
X149690830Y-95400310D01*
X149755427Y-95401495D01*
X149755429Y-95401495D01*
X149762481Y-95401624D01*
X149769284Y-95399769D01*
X149769286Y-95399769D01*
X149833657Y-95382219D01*
X149900758Y-95363925D01*
X150022897Y-95288931D01*
X150119078Y-95182672D01*
X150181570Y-95053689D01*
X150184557Y-95035939D01*
X150204715Y-94916120D01*
X150204715Y-94916117D01*
X150205349Y-94912350D01*
X150205500Y-94900000D01*
X150185182Y-94758123D01*
X150164303Y-94712202D01*
X150131032Y-94639025D01*
X150124159Y-94578227D01*
X150154335Y-94525000D01*
X150210033Y-94499676D01*
X150222962Y-94499066D01*
X150301675Y-94500509D01*
X150355427Y-94501495D01*
X150355429Y-94501495D01*
X150362481Y-94501624D01*
X150369284Y-94499769D01*
X150369286Y-94499769D01*
X150416065Y-94487015D01*
X150500758Y-94463925D01*
X150622897Y-94388931D01*
X150633843Y-94376838D01*
X150714346Y-94287900D01*
X150714346Y-94287899D01*
X150719078Y-94282672D01*
X150781570Y-94153689D01*
X150784557Y-94135939D01*
X150804715Y-94016120D01*
X150804715Y-94016117D01*
X150805349Y-94012350D01*
X150805500Y-94000000D01*
X150785182Y-93858123D01*
X150756255Y-93794500D01*
X150728780Y-93734073D01*
X150728780Y-93734072D01*
X150725860Y-93727651D01*
X150632303Y-93619074D01*
X150512033Y-93541118D01*
X150505275Y-93539097D01*
X150505273Y-93539096D01*
X150381479Y-93502074D01*
X150374718Y-93500052D01*
X150357466Y-93499947D01*
X150335653Y-93499813D01*
X150277579Y-93480550D01*
X150266286Y-93470849D01*
X150142022Y-93346693D01*
X154288265Y-93346693D01*
X154313626Y-93467562D01*
X154316029Y-93475575D01*
X154397608Y-93682145D01*
X154401317Y-93689618D01*
X154516536Y-93879492D01*
X154521456Y-93886239D01*
X154667015Y-94053981D01*
X154673009Y-94059810D01*
X154844739Y-94200620D01*
X154851641Y-94205363D01*
X155044640Y-94315225D01*
X155052230Y-94318732D01*
X155260991Y-94394508D01*
X155270396Y-94397046D01*
X155321652Y-94430459D01*
X155343480Y-94487618D01*
X155327542Y-94546691D01*
X155279925Y-94585114D01*
X155273222Y-94587402D01*
X155222419Y-94602741D01*
X155222415Y-94602743D01*
X155217780Y-94604142D01*
X155035895Y-94700852D01*
X154876259Y-94831048D01*
X154873175Y-94834776D01*
X154873174Y-94834777D01*
X154864489Y-94845276D01*
X154744951Y-94989772D01*
X154646973Y-95170977D01*
X154641317Y-95189250D01*
X154588388Y-95360236D01*
X154586058Y-95367762D01*
X154585553Y-95372569D01*
X154585552Y-95372573D01*
X154582499Y-95401624D01*
X154564526Y-95572631D01*
X154583196Y-95777781D01*
X154641357Y-95975397D01*
X154662274Y-96015407D01*
X154734548Y-96153656D01*
X154734551Y-96153660D01*
X154736795Y-96157953D01*
X154865874Y-96318495D01*
X154952597Y-96391264D01*
X155019971Y-96447798D01*
X155019975Y-96447801D01*
X155023677Y-96450907D01*
X155204194Y-96550147D01*
X155208808Y-96551611D01*
X155208811Y-96551612D01*
X155385305Y-96607599D01*
X155400549Y-96612435D01*
X155405361Y-96612975D01*
X155405362Y-96612975D01*
X155558849Y-96630191D01*
X155558851Y-96630191D01*
X155561605Y-96630500D01*
X155920993Y-96630500D01*
X155923387Y-96630265D01*
X155923392Y-96630265D01*
X156070204Y-96615870D01*
X156070208Y-96615869D01*
X156075014Y-96615398D01*
X156079639Y-96614002D01*
X156079642Y-96614001D01*
X156147894Y-96593394D01*
X156272220Y-96555858D01*
X156454105Y-96459148D01*
X156613741Y-96328952D01*
X156622392Y-96318495D01*
X156741966Y-96173955D01*
X156741967Y-96173953D01*
X156745049Y-96170228D01*
X156843027Y-95989023D01*
X156903942Y-95792238D01*
X156904974Y-95782427D01*
X156924968Y-95592185D01*
X156924968Y-95592183D01*
X156925474Y-95587369D01*
X156908570Y-95401624D01*
X156907243Y-95387039D01*
X156907242Y-95387036D01*
X156906804Y-95382219D01*
X156901966Y-95365779D01*
X156850011Y-95189250D01*
X156850010Y-95189247D01*
X156848643Y-95184603D01*
X156780203Y-95053689D01*
X156755452Y-95006344D01*
X156755449Y-95006340D01*
X156753205Y-95002047D01*
X156674234Y-94903826D01*
X156627158Y-94845276D01*
X156624126Y-94841505D01*
X156517103Y-94751702D01*
X156470029Y-94712202D01*
X156470025Y-94712199D01*
X156466323Y-94709093D01*
X156285806Y-94609853D01*
X156281192Y-94608389D01*
X156281189Y-94608388D01*
X156207819Y-94585114D01*
X156206435Y-94584675D01*
X156156685Y-94549057D01*
X156137372Y-94491000D01*
X156155873Y-94432679D01*
X156205121Y-94396370D01*
X156211498Y-94394484D01*
X156318682Y-94366664D01*
X156326554Y-94363892D01*
X156529054Y-94272673D01*
X156536354Y-94268610D01*
X156720575Y-94144585D01*
X156727102Y-94139337D01*
X156887793Y-93986046D01*
X156893330Y-93979787D01*
X157025898Y-93801609D01*
X157030306Y-93794500D01*
X157130960Y-93596529D01*
X157134102Y-93588791D01*
X157199961Y-93376686D01*
X157201754Y-93368532D01*
X157204271Y-93349544D01*
X157201851Y-93336427D01*
X157200567Y-93335205D01*
X157195250Y-93334000D01*
X154301282Y-93334000D01*
X154288728Y-93338079D01*
X154288265Y-93346693D01*
X150142022Y-93346693D01*
X149605316Y-92810456D01*
X154285729Y-92810456D01*
X154288149Y-92823573D01*
X154289433Y-92824795D01*
X154294750Y-92826000D01*
X155475320Y-92826000D01*
X155488005Y-92821878D01*
X155491000Y-92817757D01*
X155491000Y-91743626D01*
X155488342Y-91735447D01*
X155999000Y-91735447D01*
X155999000Y-92810320D01*
X156003122Y-92823005D01*
X156007243Y-92826000D01*
X157188718Y-92826000D01*
X157201272Y-92821921D01*
X157201735Y-92813307D01*
X157176374Y-92692438D01*
X157173971Y-92684425D01*
X157092392Y-92477855D01*
X157088683Y-92470382D01*
X156973464Y-92280508D01*
X156968544Y-92273761D01*
X156822985Y-92106019D01*
X156816991Y-92100190D01*
X156645261Y-91959380D01*
X156638359Y-91954637D01*
X156445360Y-91844775D01*
X156437770Y-91841268D01*
X156229014Y-91765493D01*
X156220938Y-91763314D01*
X156014431Y-91725971D01*
X156001212Y-91727770D01*
X156000843Y-91728124D01*
X155999000Y-91735447D01*
X155488342Y-91735447D01*
X155486878Y-91730941D01*
X155484432Y-91729163D01*
X155481134Y-91728783D01*
X155394520Y-91736132D01*
X155386295Y-91737538D01*
X155171320Y-91793335D01*
X155163446Y-91796108D01*
X154960946Y-91887327D01*
X154953646Y-91891390D01*
X154769425Y-92015415D01*
X154762898Y-92020663D01*
X154602207Y-92173954D01*
X154596670Y-92180213D01*
X154464102Y-92358391D01*
X154459694Y-92365500D01*
X154359040Y-92563471D01*
X154355898Y-92571209D01*
X154290039Y-92783314D01*
X154288246Y-92791468D01*
X154285729Y-92810456D01*
X149605316Y-92810456D01*
X148968258Y-92173954D01*
X144949527Y-88158729D01*
X144921726Y-88104226D01*
X144920500Y-88088696D01*
X144920500Y-85868748D01*
X154564500Y-85868748D01*
X154564500Y-87153258D01*
X154579636Y-87253935D01*
X154582839Y-87260606D01*
X154582840Y-87260608D01*
X154598915Y-87294083D01*
X154638265Y-87376029D01*
X154730202Y-87475486D01*
X154780300Y-87504585D01*
X154840917Y-87539795D01*
X154840920Y-87539796D01*
X154847319Y-87543513D01*
X154884624Y-87552160D01*
X154958246Y-87569225D01*
X154958249Y-87569225D01*
X154963748Y-87570500D01*
X156498258Y-87570500D01*
X156534697Y-87565022D01*
X156591614Y-87556465D01*
X156591616Y-87556464D01*
X156598935Y-87555364D01*
X156605606Y-87552161D01*
X156605608Y-87552160D01*
X156714361Y-87499937D01*
X156721029Y-87496735D01*
X156820486Y-87404798D01*
X156849585Y-87354700D01*
X156884795Y-87294083D01*
X156884796Y-87294080D01*
X156888513Y-87287681D01*
X156915500Y-87171252D01*
X156915500Y-85886742D01*
X156909252Y-85845182D01*
X156901465Y-85793386D01*
X156901464Y-85793384D01*
X156900364Y-85786065D01*
X156887624Y-85759533D01*
X156844937Y-85670639D01*
X156841735Y-85663971D01*
X156749798Y-85564514D01*
X156693689Y-85531923D01*
X156639083Y-85500205D01*
X156639080Y-85500204D01*
X156632681Y-85496487D01*
X156576803Y-85483535D01*
X156521754Y-85470775D01*
X156521751Y-85470775D01*
X156516252Y-85469500D01*
X154981742Y-85469500D01*
X154945303Y-85474978D01*
X154888386Y-85483535D01*
X154888384Y-85483536D01*
X154881065Y-85484636D01*
X154874394Y-85487839D01*
X154874392Y-85487840D01*
X154778321Y-85533973D01*
X154758971Y-85543265D01*
X154659514Y-85635202D01*
X154652022Y-85648101D01*
X154595205Y-85745917D01*
X154595204Y-85745920D01*
X154591487Y-85752319D01*
X154564500Y-85868748D01*
X144920500Y-85868748D01*
X144920500Y-84012631D01*
X154559526Y-84012631D01*
X154578196Y-84217781D01*
X154579562Y-84222423D01*
X154579563Y-84222427D01*
X154631669Y-84399469D01*
X154636357Y-84415397D01*
X154657274Y-84455407D01*
X154729548Y-84593656D01*
X154729551Y-84593660D01*
X154731795Y-84597953D01*
X154860874Y-84758495D01*
X154947597Y-84831264D01*
X155014971Y-84887798D01*
X155014975Y-84887801D01*
X155018677Y-84890907D01*
X155199194Y-84990147D01*
X155203808Y-84991611D01*
X155203811Y-84991612D01*
X155380305Y-85047599D01*
X155395549Y-85052435D01*
X155400361Y-85052975D01*
X155400362Y-85052975D01*
X155553849Y-85070191D01*
X155553851Y-85070191D01*
X155556605Y-85070500D01*
X155915993Y-85070500D01*
X155918387Y-85070265D01*
X155918392Y-85070265D01*
X156065204Y-85055870D01*
X156065208Y-85055869D01*
X156070014Y-85055398D01*
X156074639Y-85054002D01*
X156074642Y-85054001D01*
X156142894Y-85033394D01*
X156267220Y-84995858D01*
X156449105Y-84899148D01*
X156608741Y-84768952D01*
X156617392Y-84758495D01*
X156736966Y-84613955D01*
X156736967Y-84613953D01*
X156740049Y-84610228D01*
X156838027Y-84429023D01*
X156898942Y-84232238D01*
X156899974Y-84222427D01*
X156919968Y-84032185D01*
X156919968Y-84032183D01*
X156920474Y-84027369D01*
X156909683Y-83908799D01*
X156902243Y-83827039D01*
X156902242Y-83827036D01*
X156901804Y-83822219D01*
X156897159Y-83806434D01*
X156845011Y-83629250D01*
X156845010Y-83629247D01*
X156843643Y-83624603D01*
X156780199Y-83503245D01*
X156750452Y-83446344D01*
X156750449Y-83446340D01*
X156748205Y-83442047D01*
X156619126Y-83281505D01*
X156515437Y-83194500D01*
X156465029Y-83152202D01*
X156465025Y-83152199D01*
X156461323Y-83149093D01*
X156280806Y-83049853D01*
X156276192Y-83048389D01*
X156276189Y-83048388D01*
X156089066Y-82989029D01*
X156084451Y-82987565D01*
X156079639Y-82987025D01*
X156079638Y-82987025D01*
X155926151Y-82969809D01*
X155926149Y-82969809D01*
X155923395Y-82969500D01*
X155564007Y-82969500D01*
X155561613Y-82969735D01*
X155561608Y-82969735D01*
X155414796Y-82984130D01*
X155414792Y-82984131D01*
X155409986Y-82984602D01*
X155405361Y-82985998D01*
X155405358Y-82985999D01*
X155337106Y-83006606D01*
X155212780Y-83044142D01*
X155030895Y-83140852D01*
X154871259Y-83271048D01*
X154868175Y-83274776D01*
X154868174Y-83274777D01*
X154859489Y-83285276D01*
X154739951Y-83429772D01*
X154641973Y-83610977D01*
X154631972Y-83643285D01*
X154583461Y-83800000D01*
X154581058Y-83807762D01*
X154580553Y-83812569D01*
X154580552Y-83812573D01*
X154560032Y-84007815D01*
X154559526Y-84012631D01*
X144920500Y-84012631D01*
X144920500Y-81636587D01*
X144939407Y-81578396D01*
X144946102Y-81570151D01*
X144962037Y-81552547D01*
X144989078Y-81522672D01*
X145051570Y-81393689D01*
X145054557Y-81375939D01*
X145074715Y-81256120D01*
X145074715Y-81256117D01*
X145075349Y-81252350D01*
X145075500Y-81240000D01*
X145055182Y-81098123D01*
X144999813Y-80976344D01*
X144998780Y-80974073D01*
X144998780Y-80974072D01*
X144995860Y-80967651D01*
X144902303Y-80859074D01*
X144782033Y-80781118D01*
X144775275Y-80779097D01*
X144775273Y-80779096D01*
X144651479Y-80742074D01*
X144644718Y-80740052D01*
X144558694Y-80739527D01*
X144508448Y-80739220D01*
X144501396Y-80739177D01*
X144494620Y-80741114D01*
X144494617Y-80741114D01*
X144370369Y-80776624D01*
X144370367Y-80776625D01*
X144363589Y-80778562D01*
X144242375Y-80855042D01*
X144147499Y-80962469D01*
X144086588Y-81092206D01*
X144064538Y-81233824D01*
X144065453Y-81240822D01*
X144076097Y-81322219D01*
X144083121Y-81375939D01*
X144085962Y-81382395D01*
X144085962Y-81382396D01*
X144087870Y-81386731D01*
X144140845Y-81507126D01*
X144145382Y-81512523D01*
X144145383Y-81512525D01*
X144196283Y-81573077D01*
X144219253Y-81629787D01*
X144219500Y-81636779D01*
X144219500Y-88226425D01*
X144217293Y-88247210D01*
X144214887Y-88258409D01*
X144215852Y-88266532D01*
X144215852Y-88266534D01*
X144218809Y-88291422D01*
X144219132Y-88296890D01*
X144219164Y-88296887D01*
X144219500Y-88300953D01*
X144219500Y-88305039D01*
X144220171Y-88309068D01*
X144220171Y-88309073D01*
X144222358Y-88322212D01*
X144223010Y-88326780D01*
X144228659Y-88374331D01*
X144232025Y-88381333D01*
X144232392Y-88382491D01*
X144233667Y-88390153D01*
X144255026Y-88429737D01*
X144256399Y-88432282D01*
X144258493Y-88436391D01*
X144279237Y-88479541D01*
X144281430Y-88482148D01*
X144282945Y-88483662D01*
X144284390Y-88485236D01*
X144284274Y-88485343D01*
X144286219Y-88487550D01*
X144289100Y-88492888D01*
X144295108Y-88498442D01*
X144295109Y-88498443D01*
X144328876Y-88529657D01*
X144331627Y-88532301D01*
X147829624Y-92027246D01*
X149770205Y-93966134D01*
X149798396Y-94023332D01*
X149813121Y-94135939D01*
X149815962Y-94142395D01*
X149815962Y-94142396D01*
X149868391Y-94261549D01*
X149874521Y-94322426D01*
X149843697Y-94375281D01*
X149787694Y-94399923D01*
X149774721Y-94399610D01*
X149774718Y-94400052D01*
X149735678Y-94399814D01*
X149677604Y-94380552D01*
X149666306Y-94370847D01*
X149583294Y-94287900D01*
X144120735Y-88829656D01*
X143749524Y-88458738D01*
X143721725Y-88404233D01*
X143720500Y-88388707D01*
X143720500Y-82939206D01*
X143739407Y-82881015D01*
X143746103Y-82872769D01*
X143809346Y-82802900D01*
X143809346Y-82802899D01*
X143814078Y-82797672D01*
X143876570Y-82668689D01*
X143879557Y-82650939D01*
X143899715Y-82531120D01*
X143899715Y-82531117D01*
X143900349Y-82527350D01*
X143900500Y-82515000D01*
X143897150Y-82491604D01*
X143881182Y-82380106D01*
X143880182Y-82373123D01*
X143875691Y-82363244D01*
X143823780Y-82249073D01*
X143823780Y-82249072D01*
X143820860Y-82242651D01*
X143727303Y-82134074D01*
X143607033Y-82056118D01*
X143600275Y-82054097D01*
X143600273Y-82054096D01*
X143476479Y-82017074D01*
X143469718Y-82015052D01*
X143383694Y-82014527D01*
X143333448Y-82014220D01*
X143326396Y-82014177D01*
X143319620Y-82016114D01*
X143319617Y-82016114D01*
X143195369Y-82051624D01*
X143195367Y-82051625D01*
X143188589Y-82053562D01*
X143067375Y-82130042D01*
X142972499Y-82237469D01*
X142911588Y-82367206D01*
X142889538Y-82508824D01*
X137686858Y-82508824D01*
X139816186Y-80379496D01*
X139870703Y-80351719D01*
X139886190Y-80350500D01*
X140063441Y-80350500D01*
X140121632Y-80369407D01*
X140141982Y-80389232D01*
X140171847Y-80428153D01*
X140297250Y-80524378D01*
X140443285Y-80584868D01*
X140600000Y-80605500D01*
X140756715Y-80584868D01*
X140902750Y-80524378D01*
X141028153Y-80428153D01*
X141124378Y-80302750D01*
X141184868Y-80156715D01*
X141205500Y-80000000D01*
X141184868Y-79843285D01*
X141124378Y-79697250D01*
X141028153Y-79571847D01*
X140902750Y-79475622D01*
X140756715Y-79415132D01*
X140600000Y-79394500D01*
X140443285Y-79415132D01*
X140297250Y-79475622D01*
X140171847Y-79571847D01*
X140167893Y-79577000D01*
X140141983Y-79610767D01*
X140091559Y-79645423D01*
X140063441Y-79649500D01*
X139748670Y-79649500D01*
X139727833Y-79647282D01*
X139724747Y-79646617D01*
X139724743Y-79646617D01*
X139716746Y-79644895D01*
X139683635Y-79648814D01*
X139678111Y-79649140D01*
X139678113Y-79649164D01*
X139674046Y-79649500D01*
X139669961Y-79649500D01*
X139665935Y-79650170D01*
X139665924Y-79650171D01*
X139652870Y-79652344D01*
X139648258Y-79653001D01*
X139622505Y-79656049D01*
X139608945Y-79657654D01*
X139608944Y-79657654D01*
X139600818Y-79658616D01*
X139593836Y-79661969D01*
X139592487Y-79662395D01*
X139584847Y-79663667D01*
X139577646Y-79667552D01*
X139577647Y-79667552D01*
X139542803Y-79686352D01*
X139538649Y-79688468D01*
X139501204Y-79706450D01*
X139495586Y-79709148D01*
X139492978Y-79711340D01*
X139491467Y-79712851D01*
X139489880Y-79714306D01*
X139489773Y-79714189D01*
X139487501Y-79716192D01*
X139482112Y-79719100D01*
X139476556Y-79725111D01*
X139476554Y-79725112D01*
X139445463Y-79758746D01*
X139442770Y-79761548D01*
X136886572Y-82317746D01*
X136870271Y-82330909D01*
X136860744Y-82337061D01*
X136855678Y-82343487D01*
X136855676Y-82343489D01*
X136840102Y-82363244D01*
X136836430Y-82367377D01*
X136836448Y-82367392D01*
X136833797Y-82370521D01*
X136830918Y-82373400D01*
X136828549Y-82376716D01*
X136828545Y-82376720D01*
X136820841Y-82387501D01*
X136818057Y-82391210D01*
X136788473Y-82428737D01*
X136785905Y-82436048D01*
X136785257Y-82437296D01*
X136780751Y-82443602D01*
X136778408Y-82451438D01*
X136767065Y-82489368D01*
X136765622Y-82493808D01*
X136755165Y-82523586D01*
X136749794Y-82538879D01*
X136749500Y-82542273D01*
X136749500Y-82544412D01*
X136749408Y-82546545D01*
X136749249Y-82546538D01*
X136749058Y-82549580D01*
X136747304Y-82555444D01*
X136747625Y-82563618D01*
X136747625Y-82563619D01*
X136749424Y-82609414D01*
X136749500Y-82613300D01*
X136749500Y-90213810D01*
X136730593Y-90272001D01*
X136720504Y-90283814D01*
X130586572Y-96417746D01*
X130570271Y-96430909D01*
X130560744Y-96437061D01*
X130555678Y-96443487D01*
X130555676Y-96443489D01*
X130540102Y-96463244D01*
X130536430Y-96467377D01*
X130536448Y-96467392D01*
X130533797Y-96470521D01*
X130530918Y-96473400D01*
X130528549Y-96476716D01*
X130528545Y-96476720D01*
X130520841Y-96487501D01*
X130518057Y-96491210D01*
X130488473Y-96528737D01*
X130485905Y-96536048D01*
X130485257Y-96537296D01*
X130480751Y-96543602D01*
X130477086Y-96555858D01*
X130467065Y-96589368D01*
X130465622Y-96593808D01*
X130452737Y-96630500D01*
X130449794Y-96638879D01*
X130449500Y-96642273D01*
X130449500Y-96644412D01*
X130449408Y-96646545D01*
X130449249Y-96646538D01*
X130449058Y-96649580D01*
X130447304Y-96655444D01*
X130447625Y-96663618D01*
X130447625Y-96663619D01*
X130449424Y-96709414D01*
X130449500Y-96713300D01*
X130449500Y-100395262D01*
X130430593Y-100453453D01*
X130420504Y-100465266D01*
X122441572Y-108444198D01*
X122425271Y-108457361D01*
X122415744Y-108463513D01*
X122410678Y-108469939D01*
X122410676Y-108469941D01*
X122395102Y-108489696D01*
X122391430Y-108493829D01*
X122391448Y-108493844D01*
X122388797Y-108496973D01*
X122385918Y-108499852D01*
X122383549Y-108503168D01*
X122383545Y-108503172D01*
X122375841Y-108513953D01*
X122373057Y-108517662D01*
X122343473Y-108555189D01*
X122340905Y-108562500D01*
X122340257Y-108563748D01*
X122335751Y-108570054D01*
X122325152Y-108605496D01*
X122322065Y-108615820D01*
X122320622Y-108620260D01*
X122309954Y-108650639D01*
X122304794Y-108665331D01*
X122304500Y-108668725D01*
X122304500Y-108670864D01*
X122304408Y-108672997D01*
X122304249Y-108672990D01*
X122304058Y-108676032D01*
X122302304Y-108681896D01*
X122302625Y-108690070D01*
X122302625Y-108690071D01*
X122304424Y-108735866D01*
X122304500Y-108739752D01*
X122304500Y-110537929D01*
X122285593Y-110596120D01*
X122251366Y-110625663D01*
X122081344Y-110714548D01*
X122081340Y-110714551D01*
X122077047Y-110716795D01*
X122073271Y-110719831D01*
X122073268Y-110719833D01*
X121920276Y-110842842D01*
X121916505Y-110845874D01*
X121843736Y-110932597D01*
X121787202Y-110999971D01*
X121787199Y-110999975D01*
X121784093Y-111003677D01*
X121684853Y-111184194D01*
X121683389Y-111188808D01*
X121683388Y-111188811D01*
X121634832Y-111341878D01*
X121622565Y-111380549D01*
X121622025Y-111385361D01*
X121622025Y-111385362D01*
X121603333Y-111552012D01*
X121599603Y-111585263D01*
X121169055Y-111585263D01*
X121164774Y-111541603D01*
X121150870Y-111399796D01*
X121150869Y-111399792D01*
X121150398Y-111394986D01*
X121148962Y-111390228D01*
X121095537Y-111213278D01*
X121090858Y-111197780D01*
X120994148Y-111015895D01*
X120863952Y-110856259D01*
X120787039Y-110792631D01*
X120708955Y-110728034D01*
X120708953Y-110728033D01*
X120705228Y-110724951D01*
X120524023Y-110626973D01*
X120460952Y-110607449D01*
X120331859Y-110567488D01*
X120331855Y-110567487D01*
X120327238Y-110566058D01*
X120322431Y-110565553D01*
X120322427Y-110565552D01*
X120127185Y-110545032D01*
X120127183Y-110545032D01*
X120122369Y-110544526D01*
X120054372Y-110550714D01*
X119922039Y-110562757D01*
X119922036Y-110562758D01*
X119917219Y-110563196D01*
X119912577Y-110564562D01*
X119912573Y-110564563D01*
X119724250Y-110619989D01*
X119724247Y-110619990D01*
X119719603Y-110621357D01*
X119689843Y-110636915D01*
X119541344Y-110714548D01*
X119541340Y-110714551D01*
X119537047Y-110716795D01*
X119533271Y-110719831D01*
X119533268Y-110719833D01*
X119380276Y-110842842D01*
X119376505Y-110845874D01*
X119303736Y-110932597D01*
X119247202Y-110999971D01*
X119247199Y-110999975D01*
X119244093Y-111003677D01*
X119144853Y-111184194D01*
X119143389Y-111188808D01*
X119143388Y-111188811D01*
X119131366Y-111226710D01*
X119095748Y-111276460D01*
X119037691Y-111295773D01*
X118979370Y-111277272D01*
X118943061Y-111228024D01*
X118938000Y-111196775D01*
X118938000Y-110751764D01*
X118937874Y-110748244D01*
X118933157Y-110682285D01*
X118931283Y-110671900D01*
X118893636Y-110543686D01*
X118887813Y-110530935D01*
X118816528Y-110420013D01*
X118807349Y-110409419D01*
X118707701Y-110323074D01*
X118695910Y-110315496D01*
X118575971Y-110260722D01*
X118562516Y-110256772D01*
X118428509Y-110237505D01*
X118421457Y-110237000D01*
X117844680Y-110237000D01*
X117831995Y-110241122D01*
X117829000Y-110245243D01*
X117318583Y-110245243D01*
X117316878Y-110239995D01*
X117312757Y-110237000D01*
X116726764Y-110237000D01*
X116723244Y-110237126D01*
X116657285Y-110241843D01*
X116646900Y-110243717D01*
X116518686Y-110281364D01*
X116505935Y-110287187D01*
X116395013Y-110358472D01*
X116384419Y-110367651D01*
X116298074Y-110467299D01*
X116290496Y-110479090D01*
X116235722Y-110599029D01*
X116231772Y-110612484D01*
X116212505Y-110746491D01*
X116212000Y-110753543D01*
X114942139Y-110753543D01*
X133668436Y-92027246D01*
X133722953Y-91999469D01*
X133751361Y-91999097D01*
X133793565Y-92004653D01*
X133793566Y-92004653D01*
X133800000Y-92005500D01*
X133956715Y-91984868D01*
X134102750Y-91924378D01*
X134228153Y-91828153D01*
X134324378Y-91702750D01*
X134384868Y-91556715D01*
X134405500Y-91400000D01*
X134384868Y-91243285D01*
X134324378Y-91097250D01*
X134228153Y-90971847D01*
X134102750Y-90875622D01*
X133956715Y-90815132D01*
X133800000Y-90794500D01*
X133643285Y-90815132D01*
X133497250Y-90875622D01*
X133371847Y-90971847D01*
X133275622Y-91097250D01*
X133215132Y-91243285D01*
X133194500Y-91400000D01*
X133195347Y-91406434D01*
X133195347Y-91406435D01*
X133200903Y-91448639D01*
X133189753Y-91508799D01*
X133172754Y-91531564D01*
X109477661Y-115226657D01*
X109423144Y-115254434D01*
X109362712Y-115244863D01*
X109330506Y-115218690D01*
X109204126Y-115061505D01*
X109117403Y-114988736D01*
X109050029Y-114932202D01*
X109050025Y-114932199D01*
X109046323Y-114929093D01*
X108865806Y-114829853D01*
X108861192Y-114828389D01*
X108861189Y-114828388D01*
X108674066Y-114769029D01*
X108669451Y-114767565D01*
X108664639Y-114767025D01*
X108664638Y-114767025D01*
X108511151Y-114749809D01*
X108511149Y-114749809D01*
X108508395Y-114749500D01*
X108149007Y-114749500D01*
X108146613Y-114749735D01*
X108146608Y-114749735D01*
X107999796Y-114764130D01*
X107999792Y-114764131D01*
X107994986Y-114764602D01*
X107990361Y-114765998D01*
X107990358Y-114765999D01*
X107922106Y-114786606D01*
X107797780Y-114824142D01*
X107615895Y-114920852D01*
X107456259Y-115051048D01*
X107453175Y-115054776D01*
X107453174Y-115054777D01*
X107330351Y-115203245D01*
X107324951Y-115209772D01*
X107226973Y-115390977D01*
X107166058Y-115587762D01*
X107165553Y-115592569D01*
X107165552Y-115592573D01*
X107145032Y-115787815D01*
X107144526Y-115792631D01*
X104470000Y-115792631D01*
X104470000Y-113292631D01*
X107144526Y-113292631D01*
X107163196Y-113497781D01*
X107164562Y-113502423D01*
X107164563Y-113502427D01*
X107219989Y-113690750D01*
X107221357Y-113695397D01*
X107223602Y-113699691D01*
X107314548Y-113873656D01*
X107314551Y-113873660D01*
X107316795Y-113877953D01*
X107445874Y-114038495D01*
X107532597Y-114111264D01*
X107599971Y-114167798D01*
X107599975Y-114167801D01*
X107603677Y-114170907D01*
X107784194Y-114270147D01*
X107788808Y-114271611D01*
X107788811Y-114271612D01*
X107965304Y-114327599D01*
X107980549Y-114332435D01*
X107985361Y-114332975D01*
X107985362Y-114332975D01*
X108138849Y-114350191D01*
X108138851Y-114350191D01*
X108141605Y-114350500D01*
X108500993Y-114350500D01*
X108503387Y-114350265D01*
X108503392Y-114350265D01*
X108650204Y-114335870D01*
X108650208Y-114335869D01*
X108655014Y-114335398D01*
X108659639Y-114334002D01*
X108659642Y-114334001D01*
X108727894Y-114313394D01*
X108852220Y-114275858D01*
X109034105Y-114179148D01*
X109193741Y-114048952D01*
X109202392Y-114038495D01*
X109321966Y-113893955D01*
X109321967Y-113893953D01*
X109325049Y-113890228D01*
X109423027Y-113709023D01*
X109423315Y-113709178D01*
X109461611Y-113664816D01*
X109512891Y-113650500D01*
X109651326Y-113650500D01*
X109672162Y-113652718D01*
X109675252Y-113653383D01*
X109675256Y-113653383D01*
X109683254Y-113655105D01*
X109691374Y-113654144D01*
X109691377Y-113654144D01*
X109716365Y-113651186D01*
X109721889Y-113650860D01*
X109721887Y-113650836D01*
X109725954Y-113650500D01*
X109730039Y-113650500D01*
X109734065Y-113649830D01*
X109734076Y-113649829D01*
X109747130Y-113647656D01*
X109751742Y-113646999D01*
X109777495Y-113643951D01*
X109791055Y-113642346D01*
X109791056Y-113642346D01*
X109799182Y-113641384D01*
X109806164Y-113638031D01*
X109807513Y-113637605D01*
X109815153Y-113636333D01*
X109832714Y-113626858D01*
X109857197Y-113613648D01*
X109861351Y-113611532D01*
X109898796Y-113593550D01*
X109898797Y-113593549D01*
X109904414Y-113590852D01*
X109907022Y-113588660D01*
X109908533Y-113587149D01*
X109910120Y-113585694D01*
X109910227Y-113585811D01*
X109912499Y-113583808D01*
X109917888Y-113580900D01*
X109954537Y-113541254D01*
X109957230Y-113538452D01*
X132768436Y-90727246D01*
X132822953Y-90699469D01*
X132851361Y-90699097D01*
X132893565Y-90704653D01*
X132893566Y-90704653D01*
X132900000Y-90705500D01*
X133056715Y-90684868D01*
X133202750Y-90624378D01*
X133328153Y-90528153D01*
X133424378Y-90402750D01*
X133484868Y-90256715D01*
X133505500Y-90100000D01*
X133484868Y-89943285D01*
X133424378Y-89797250D01*
X133328153Y-89671847D01*
X133202750Y-89575622D01*
X133056715Y-89515132D01*
X132900000Y-89494500D01*
X132743285Y-89515132D01*
X132737288Y-89517616D01*
X132658322Y-89550325D01*
X132597325Y-89555126D01*
X132576151Y-89542150D01*
X132563975Y-89592866D01*
X132539831Y-89619681D01*
X132471847Y-89671847D01*
X132375622Y-89797250D01*
X132315132Y-89943285D01*
X132294500Y-90100000D01*
X132295347Y-90106434D01*
X132295347Y-90106435D01*
X132300903Y-90148639D01*
X132289753Y-90208799D01*
X132272754Y-90231564D01*
X109583814Y-112920504D01*
X109529297Y-112948281D01*
X109513810Y-112949500D01*
X109512071Y-112949500D01*
X109453880Y-112930593D01*
X109424337Y-112896366D01*
X109335452Y-112726344D01*
X109335449Y-112726340D01*
X109333205Y-112722047D01*
X109290607Y-112669065D01*
X109207158Y-112565276D01*
X109204126Y-112561505D01*
X109067017Y-112446457D01*
X109050029Y-112432202D01*
X109050025Y-112432199D01*
X109046323Y-112429093D01*
X108865806Y-112329853D01*
X108861192Y-112328389D01*
X108861189Y-112328388D01*
X108674066Y-112269029D01*
X108669451Y-112267565D01*
X108664639Y-112267025D01*
X108664638Y-112267025D01*
X108511151Y-112249809D01*
X108511149Y-112249809D01*
X108508395Y-112249500D01*
X108149007Y-112249500D01*
X108146613Y-112249735D01*
X108146608Y-112249735D01*
X107999796Y-112264130D01*
X107999792Y-112264131D01*
X107994986Y-112264602D01*
X107990361Y-112265998D01*
X107990358Y-112265999D01*
X107922106Y-112286606D01*
X107797780Y-112324142D01*
X107615895Y-112420852D01*
X107456259Y-112551048D01*
X107453175Y-112554776D01*
X107453174Y-112554777D01*
X107441644Y-112568715D01*
X107324951Y-112709772D01*
X107226973Y-112890977D01*
X107166058Y-113087762D01*
X107144526Y-113292631D01*
X104470000Y-113292631D01*
X104470000Y-108566693D01*
X106868265Y-108566693D01*
X106893626Y-108687562D01*
X106896029Y-108695575D01*
X106977608Y-108902145D01*
X106981317Y-108909618D01*
X107096536Y-109099492D01*
X107101456Y-109106239D01*
X107247015Y-109273981D01*
X107253009Y-109279810D01*
X107424739Y-109420620D01*
X107431641Y-109425363D01*
X107624640Y-109535225D01*
X107632230Y-109538732D01*
X107840991Y-109614508D01*
X107850396Y-109617046D01*
X107901652Y-109650459D01*
X107923480Y-109707618D01*
X107907542Y-109766691D01*
X107859925Y-109805114D01*
X107853222Y-109807402D01*
X107802419Y-109822741D01*
X107802415Y-109822743D01*
X107797780Y-109824142D01*
X107615895Y-109920852D01*
X107456259Y-110051048D01*
X107453175Y-110054776D01*
X107453174Y-110054777D01*
X107444489Y-110065276D01*
X107324951Y-110209772D01*
X107308000Y-110241122D01*
X107244549Y-110358472D01*
X107226973Y-110390977D01*
X107208857Y-110449500D01*
X107172334Y-110567488D01*
X107166058Y-110587762D01*
X107165553Y-110592569D01*
X107165552Y-110592573D01*
X107149375Y-110746491D01*
X107144526Y-110792631D01*
X107149689Y-110849361D01*
X107161281Y-110976735D01*
X107163196Y-110997781D01*
X107164562Y-111002423D01*
X107164563Y-111002427D01*
X107219989Y-111190750D01*
X107221357Y-111195397D01*
X107223602Y-111199691D01*
X107314548Y-111373656D01*
X107314551Y-111373660D01*
X107316795Y-111377953D01*
X107319831Y-111381729D01*
X107319833Y-111381732D01*
X107329661Y-111393955D01*
X107445874Y-111538495D01*
X107515889Y-111597244D01*
X107599971Y-111667798D01*
X107599975Y-111667801D01*
X107603677Y-111670907D01*
X107784194Y-111770147D01*
X107788808Y-111771611D01*
X107788811Y-111771612D01*
X107863129Y-111795187D01*
X107980549Y-111832435D01*
X107985361Y-111832975D01*
X107985362Y-111832975D01*
X108138849Y-111850191D01*
X108138851Y-111850191D01*
X108141605Y-111850500D01*
X108500993Y-111850500D01*
X108503387Y-111850265D01*
X108503392Y-111850265D01*
X108650204Y-111835870D01*
X108650208Y-111835869D01*
X108655014Y-111835398D01*
X108659639Y-111834002D01*
X108659642Y-111834001D01*
X108727894Y-111813394D01*
X108852220Y-111775858D01*
X109034105Y-111679148D01*
X109193741Y-111548952D01*
X109202392Y-111538495D01*
X109321966Y-111393955D01*
X109321967Y-111393953D01*
X109325049Y-111390228D01*
X109423027Y-111209023D01*
X109423315Y-111209178D01*
X109461611Y-111164816D01*
X109512891Y-111150500D01*
X110251326Y-111150500D01*
X110272162Y-111152718D01*
X110275252Y-111153383D01*
X110275256Y-111153383D01*
X110283254Y-111155105D01*
X110291374Y-111154144D01*
X110291377Y-111154144D01*
X110316365Y-111151186D01*
X110321889Y-111150860D01*
X110321887Y-111150836D01*
X110325954Y-111150500D01*
X110330039Y-111150500D01*
X110334065Y-111149830D01*
X110334076Y-111149829D01*
X110347130Y-111147656D01*
X110351742Y-111146999D01*
X110377495Y-111143951D01*
X110391055Y-111142346D01*
X110391056Y-111142346D01*
X110399182Y-111141384D01*
X110406164Y-111138031D01*
X110407513Y-111137605D01*
X110415153Y-111136333D01*
X110432714Y-111126858D01*
X110457197Y-111113648D01*
X110461351Y-111111532D01*
X110498796Y-111093550D01*
X110498797Y-111093549D01*
X110504414Y-111090852D01*
X110507022Y-111088660D01*
X110508533Y-111087149D01*
X110510120Y-111085694D01*
X110510227Y-111085811D01*
X110512499Y-111083808D01*
X110517888Y-111080900D01*
X110554537Y-111041254D01*
X110557230Y-111038452D01*
X132068436Y-89527246D01*
X132122953Y-89499469D01*
X132151361Y-89499097D01*
X132193565Y-89504653D01*
X132193566Y-89504653D01*
X132200000Y-89505500D01*
X132356715Y-89484868D01*
X132441678Y-89449675D01*
X132502675Y-89444874D01*
X132523849Y-89457850D01*
X132536025Y-89407134D01*
X132560169Y-89380319D01*
X132623000Y-89332107D01*
X132628153Y-89328153D01*
X132724378Y-89202750D01*
X132784868Y-89056715D01*
X132805500Y-88900000D01*
X132784868Y-88743285D01*
X132724378Y-88597250D01*
X132628153Y-88471847D01*
X132502750Y-88375622D01*
X132356715Y-88315132D01*
X132200000Y-88294500D01*
X132043285Y-88315132D01*
X131897250Y-88375622D01*
X131771847Y-88471847D01*
X131675622Y-88597250D01*
X131615132Y-88743285D01*
X131594500Y-88900000D01*
X131595347Y-88906434D01*
X131595347Y-88906435D01*
X131600903Y-88948639D01*
X131589753Y-89008799D01*
X131572754Y-89031564D01*
X110183814Y-110420504D01*
X110129297Y-110448281D01*
X110113810Y-110449500D01*
X109512071Y-110449500D01*
X109453880Y-110430593D01*
X109424337Y-110396366D01*
X109335452Y-110226344D01*
X109335449Y-110226340D01*
X109333205Y-110222047D01*
X109204126Y-110061505D01*
X109117403Y-109988736D01*
X109050029Y-109932202D01*
X109050025Y-109932199D01*
X109046323Y-109929093D01*
X108865806Y-109829853D01*
X108861192Y-109828389D01*
X108861189Y-109828388D01*
X108787819Y-109805114D01*
X108786435Y-109804675D01*
X108736685Y-109769057D01*
X108717372Y-109711000D01*
X108735873Y-109652679D01*
X108785121Y-109616370D01*
X108791498Y-109614484D01*
X108898682Y-109586664D01*
X108906554Y-109583892D01*
X109109054Y-109492673D01*
X109116354Y-109488610D01*
X109300575Y-109364585D01*
X109307102Y-109359337D01*
X109467793Y-109206046D01*
X109473330Y-109199787D01*
X109605898Y-109021609D01*
X109610306Y-109014500D01*
X109710960Y-108816529D01*
X109714102Y-108808791D01*
X109779961Y-108596686D01*
X109781754Y-108588532D01*
X109784271Y-108569544D01*
X109781851Y-108556427D01*
X109780567Y-108555205D01*
X109775250Y-108554000D01*
X106881282Y-108554000D01*
X106868728Y-108558079D01*
X106868265Y-108566693D01*
X104470000Y-108566693D01*
X104470000Y-108030456D01*
X106865729Y-108030456D01*
X106868149Y-108043573D01*
X106869433Y-108044795D01*
X106874750Y-108046000D01*
X109768718Y-108046000D01*
X109781272Y-108041921D01*
X109781735Y-108033307D01*
X109756374Y-107912438D01*
X109753971Y-107904425D01*
X109672392Y-107697855D01*
X109668683Y-107690382D01*
X109553464Y-107500508D01*
X109548544Y-107493761D01*
X109402985Y-107326019D01*
X109396991Y-107320190D01*
X109225261Y-107179380D01*
X109218359Y-107174637D01*
X109025360Y-107064775D01*
X109017770Y-107061268D01*
X108966228Y-107042559D01*
X108917981Y-107004932D01*
X108901064Y-106946131D01*
X108921941Y-106888618D01*
X108972636Y-106854359D01*
X109000007Y-106850500D01*
X109083258Y-106850500D01*
X109119697Y-106845022D01*
X109176614Y-106836465D01*
X109176616Y-106836464D01*
X109183935Y-106835364D01*
X109190606Y-106832161D01*
X109190608Y-106832160D01*
X109299361Y-106779937D01*
X109306029Y-106776735D01*
X109405486Y-106684798D01*
X109442629Y-106620852D01*
X109469795Y-106574083D01*
X109469796Y-106574080D01*
X109473513Y-106567681D01*
X109483929Y-106522744D01*
X109499225Y-106456754D01*
X109499225Y-106456751D01*
X109500500Y-106451252D01*
X109500500Y-105166742D01*
X109485364Y-105066065D01*
X109472624Y-105039533D01*
X109429937Y-104950639D01*
X109426735Y-104943971D01*
X109334798Y-104844514D01*
X109284700Y-104815415D01*
X109224083Y-104780205D01*
X109224080Y-104780204D01*
X109217681Y-104776487D01*
X109161803Y-104763535D01*
X109106754Y-104750775D01*
X109106751Y-104750775D01*
X109101252Y-104749500D01*
X107566742Y-104749500D01*
X107530303Y-104754978D01*
X107473386Y-104763535D01*
X107473384Y-104763536D01*
X107466065Y-104764636D01*
X107459394Y-104767839D01*
X107459392Y-104767840D01*
X107350639Y-104820063D01*
X107343971Y-104823265D01*
X107244514Y-104915202D01*
X107240797Y-104921602D01*
X107180205Y-105025917D01*
X107180204Y-105025920D01*
X107176487Y-105032319D01*
X107149500Y-105148748D01*
X107149500Y-106433258D01*
X107154141Y-106464130D01*
X107163164Y-106524142D01*
X107164636Y-106533935D01*
X107167839Y-106540606D01*
X107167840Y-106540608D01*
X107183915Y-106574083D01*
X107223265Y-106656029D01*
X107315202Y-106755486D01*
X107365300Y-106784585D01*
X107425917Y-106819795D01*
X107425920Y-106819796D01*
X107432319Y-106823513D01*
X107469624Y-106832160D01*
X107543246Y-106849225D01*
X107543249Y-106849225D01*
X107548748Y-106850500D01*
X107650268Y-106850500D01*
X107708459Y-106869407D01*
X107744423Y-106918907D01*
X107744423Y-106980093D01*
X107708459Y-107029593D01*
X107690929Y-107039765D01*
X107540946Y-107107327D01*
X107533646Y-107111390D01*
X107349425Y-107235415D01*
X107342898Y-107240663D01*
X107182207Y-107393954D01*
X107176670Y-107400213D01*
X107044102Y-107578391D01*
X107039694Y-107585500D01*
X106939040Y-107783471D01*
X106935898Y-107791209D01*
X106870039Y-108003314D01*
X106868246Y-108011468D01*
X106865729Y-108030456D01*
X104470000Y-108030456D01*
X104470000Y-81542631D01*
X107119526Y-81542631D01*
X107120867Y-81557369D01*
X107136344Y-81727427D01*
X107138196Y-81747781D01*
X107139562Y-81752423D01*
X107139563Y-81752427D01*
X107188791Y-81919691D01*
X107196357Y-81945397D01*
X107217274Y-81985407D01*
X107289548Y-82123656D01*
X107289551Y-82123660D01*
X107291795Y-82127953D01*
X107294831Y-82131729D01*
X107294833Y-82131732D01*
X107384979Y-82243851D01*
X107420874Y-82288495D01*
X107464608Y-82325192D01*
X107574971Y-82417798D01*
X107574975Y-82417801D01*
X107578677Y-82420907D01*
X107759194Y-82520147D01*
X107763808Y-82521611D01*
X107763811Y-82521612D01*
X107917925Y-82570500D01*
X107955549Y-82582435D01*
X107960361Y-82582975D01*
X107960362Y-82582975D01*
X108113849Y-82600191D01*
X108113851Y-82600191D01*
X108116605Y-82600500D01*
X108525993Y-82600500D01*
X108528387Y-82600265D01*
X108528392Y-82600265D01*
X108675204Y-82585870D01*
X108675208Y-82585869D01*
X108680014Y-82585398D01*
X108684639Y-82584002D01*
X108684642Y-82584001D01*
X108779226Y-82555444D01*
X108877220Y-82525858D01*
X109059105Y-82429148D01*
X109218741Y-82298952D01*
X109227392Y-82288495D01*
X109346966Y-82143955D01*
X109346967Y-82143953D01*
X109350049Y-82140228D01*
X109448027Y-81959023D01*
X109508942Y-81762238D01*
X109509974Y-81752427D01*
X109529968Y-81562185D01*
X109529968Y-81562183D01*
X109530474Y-81557369D01*
X109514945Y-81386731D01*
X109512243Y-81357039D01*
X109512242Y-81357036D01*
X109511804Y-81352219D01*
X109504394Y-81327039D01*
X109455011Y-81159250D01*
X109455010Y-81159247D01*
X109453643Y-81154603D01*
X109427767Y-81105106D01*
X109360452Y-80976344D01*
X109360449Y-80976340D01*
X109358205Y-80972047D01*
X109337540Y-80946344D01*
X109232158Y-80815276D01*
X109229126Y-80811505D01*
X109142403Y-80738736D01*
X109075029Y-80682202D01*
X109075025Y-80682199D01*
X109071323Y-80679093D01*
X108890806Y-80579853D01*
X108886192Y-80578389D01*
X108886189Y-80578388D01*
X108699066Y-80519029D01*
X108694451Y-80517565D01*
X108689639Y-80517025D01*
X108689638Y-80517025D01*
X108536151Y-80499809D01*
X108536149Y-80499809D01*
X108533395Y-80499500D01*
X108124007Y-80499500D01*
X108121613Y-80499735D01*
X108121608Y-80499735D01*
X107974796Y-80514130D01*
X107974792Y-80514131D01*
X107969986Y-80514602D01*
X107965361Y-80515998D01*
X107965358Y-80515999D01*
X107929382Y-80526861D01*
X107772780Y-80574142D01*
X107590895Y-80670852D01*
X107431259Y-80801048D01*
X107428175Y-80804776D01*
X107428174Y-80804777D01*
X107311060Y-80946344D01*
X107299951Y-80959772D01*
X107240918Y-81068949D01*
X107221369Y-81105106D01*
X107201973Y-81140977D01*
X107200544Y-81145594D01*
X107147308Y-81317573D01*
X107141058Y-81337762D01*
X107140553Y-81342569D01*
X107140552Y-81342573D01*
X107122172Y-81517453D01*
X107119526Y-81542631D01*
X104470000Y-81542631D01*
X104470000Y-78398748D01*
X107124500Y-78398748D01*
X107124500Y-79683258D01*
X107128392Y-79709148D01*
X107133273Y-79741609D01*
X107139636Y-79783935D01*
X107142839Y-79790606D01*
X107142840Y-79790608D01*
X107171226Y-79849721D01*
X107198265Y-79906029D01*
X107290202Y-80005486D01*
X107340300Y-80034585D01*
X107400917Y-80069795D01*
X107400920Y-80069796D01*
X107407319Y-80073513D01*
X107432445Y-80079337D01*
X107518246Y-80099225D01*
X107518249Y-80099225D01*
X107523748Y-80100500D01*
X109108258Y-80100500D01*
X109144697Y-80095022D01*
X109201614Y-80086465D01*
X109201616Y-80086464D01*
X109208935Y-80085364D01*
X109215606Y-80082161D01*
X109215608Y-80082160D01*
X109324361Y-80029937D01*
X109331029Y-80026735D01*
X109430486Y-79934798D01*
X109483641Y-79843285D01*
X109494795Y-79824083D01*
X109494796Y-79824080D01*
X109498513Y-79817681D01*
X109516146Y-79741609D01*
X109524225Y-79706754D01*
X109524225Y-79706751D01*
X109525500Y-79701252D01*
X109525500Y-79286693D01*
X154283265Y-79286693D01*
X154308626Y-79407562D01*
X154311029Y-79415575D01*
X154392608Y-79622145D01*
X154396317Y-79629618D01*
X154511536Y-79819492D01*
X154516456Y-79826239D01*
X154662015Y-79993981D01*
X154668009Y-79999810D01*
X154839739Y-80140620D01*
X154846641Y-80145363D01*
X155039640Y-80255225D01*
X155047230Y-80258732D01*
X155255991Y-80334508D01*
X155265396Y-80337046D01*
X155316652Y-80370459D01*
X155338480Y-80427618D01*
X155322542Y-80486691D01*
X155274925Y-80525114D01*
X155268222Y-80527402D01*
X155217419Y-80542741D01*
X155217415Y-80542743D01*
X155212780Y-80544142D01*
X155030895Y-80640852D01*
X154871259Y-80771048D01*
X154868175Y-80774776D01*
X154868174Y-80774777D01*
X154798438Y-80859074D01*
X154739951Y-80929772D01*
X154680918Y-81038950D01*
X154652123Y-81092206D01*
X154641973Y-81110977D01*
X154631257Y-81145594D01*
X154599394Y-81248529D01*
X154581058Y-81307762D01*
X154580553Y-81312569D01*
X154580552Y-81312573D01*
X154560032Y-81507815D01*
X154559526Y-81512631D01*
X154578196Y-81717781D01*
X154579562Y-81722423D01*
X154579563Y-81722427D01*
X154589864Y-81757427D01*
X154636357Y-81915397D01*
X154649611Y-81940750D01*
X154729548Y-82093656D01*
X154729551Y-82093660D01*
X154731795Y-82097953D01*
X154734831Y-82101729D01*
X154734833Y-82101732D01*
X154857842Y-82254724D01*
X154860874Y-82258495D01*
X154892133Y-82284724D01*
X155014971Y-82387798D01*
X155014975Y-82387801D01*
X155018677Y-82390907D01*
X155199194Y-82490147D01*
X155203808Y-82491611D01*
X155203811Y-82491612D01*
X155368432Y-82543833D01*
X155395549Y-82552435D01*
X155400361Y-82552975D01*
X155400362Y-82552975D01*
X155553849Y-82570191D01*
X155553851Y-82570191D01*
X155556605Y-82570500D01*
X155915993Y-82570500D01*
X155918387Y-82570265D01*
X155918392Y-82570265D01*
X156065204Y-82555870D01*
X156065208Y-82555869D01*
X156070014Y-82555398D01*
X156074639Y-82554002D01*
X156074642Y-82554001D01*
X156142894Y-82533394D01*
X156267220Y-82495858D01*
X156449105Y-82399148D01*
X156608741Y-82268952D01*
X156617392Y-82258495D01*
X156736966Y-82113955D01*
X156736967Y-82113953D01*
X156740049Y-82110228D01*
X156838027Y-81929023D01*
X156888225Y-81766859D01*
X156897512Y-81736859D01*
X156897513Y-81736855D01*
X156898942Y-81732238D01*
X156899974Y-81722427D01*
X156919968Y-81532185D01*
X156919968Y-81532183D01*
X156920474Y-81527369D01*
X156904534Y-81352219D01*
X156902243Y-81327039D01*
X156902242Y-81327036D01*
X156901804Y-81322219D01*
X156882351Y-81256120D01*
X156845011Y-81129250D01*
X156845010Y-81129247D01*
X156843643Y-81124603D01*
X156762218Y-80968851D01*
X156750452Y-80946344D01*
X156750449Y-80946340D01*
X156748205Y-80942047D01*
X156682501Y-80860327D01*
X156622158Y-80785276D01*
X156619126Y-80781505D01*
X156494297Y-80676761D01*
X156465029Y-80652202D01*
X156465025Y-80652199D01*
X156461323Y-80649093D01*
X156280806Y-80549853D01*
X156276192Y-80548389D01*
X156276189Y-80548388D01*
X156210032Y-80527402D01*
X156201435Y-80524675D01*
X156151685Y-80489057D01*
X156132372Y-80431000D01*
X156150873Y-80372679D01*
X156200121Y-80336370D01*
X156206498Y-80334484D01*
X156313682Y-80306664D01*
X156321554Y-80303892D01*
X156524054Y-80212673D01*
X156531354Y-80208610D01*
X156715575Y-80084585D01*
X156722102Y-80079337D01*
X156882793Y-79926046D01*
X156888330Y-79919787D01*
X157020898Y-79741609D01*
X157025306Y-79734500D01*
X157125960Y-79536529D01*
X157129102Y-79528791D01*
X157194961Y-79316686D01*
X157196754Y-79308532D01*
X157199271Y-79289544D01*
X157196851Y-79276427D01*
X157195567Y-79275205D01*
X157190250Y-79274000D01*
X154296282Y-79274000D01*
X154283728Y-79278079D01*
X154283265Y-79286693D01*
X109525500Y-79286693D01*
X109525500Y-78750456D01*
X154280729Y-78750456D01*
X154283149Y-78763573D01*
X154284433Y-78764795D01*
X154289750Y-78766000D01*
X155470320Y-78766000D01*
X155483005Y-78761878D01*
X155486000Y-78757757D01*
X155486000Y-77683626D01*
X155483342Y-77675447D01*
X155994000Y-77675447D01*
X155994000Y-78750320D01*
X155998122Y-78763005D01*
X156002243Y-78766000D01*
X157183718Y-78766000D01*
X157196272Y-78761921D01*
X157196735Y-78753307D01*
X157171374Y-78632438D01*
X157168971Y-78624425D01*
X157087392Y-78417855D01*
X157083683Y-78410382D01*
X156968464Y-78220508D01*
X156963544Y-78213761D01*
X156817985Y-78046019D01*
X156811991Y-78040190D01*
X156640261Y-77899380D01*
X156633359Y-77894637D01*
X156440360Y-77784775D01*
X156432770Y-77781268D01*
X156224014Y-77705493D01*
X156215938Y-77703314D01*
X156009431Y-77665971D01*
X155996212Y-77667770D01*
X155995843Y-77668124D01*
X155994000Y-77675447D01*
X155483342Y-77675447D01*
X155481878Y-77670941D01*
X155479432Y-77669163D01*
X155476134Y-77668783D01*
X155389520Y-77676132D01*
X155381295Y-77677538D01*
X155166320Y-77733335D01*
X155158446Y-77736108D01*
X154955946Y-77827327D01*
X154948646Y-77831390D01*
X154764425Y-77955415D01*
X154757898Y-77960663D01*
X154597207Y-78113954D01*
X154591670Y-78120213D01*
X154459102Y-78298391D01*
X154454694Y-78305500D01*
X154354040Y-78503471D01*
X154350898Y-78511209D01*
X154285039Y-78723314D01*
X154283246Y-78731468D01*
X154280729Y-78750456D01*
X109525500Y-78750456D01*
X109525500Y-78416742D01*
X109510364Y-78316065D01*
X109497624Y-78289533D01*
X109454937Y-78200639D01*
X109451735Y-78193971D01*
X109359798Y-78094514D01*
X109276308Y-78046019D01*
X109249083Y-78030205D01*
X109249080Y-78030204D01*
X109242681Y-78026487D01*
X109186803Y-78013535D01*
X109131754Y-78000775D01*
X109131751Y-78000775D01*
X109126252Y-77999500D01*
X107541742Y-77999500D01*
X107505303Y-78004978D01*
X107448386Y-78013535D01*
X107448384Y-78013536D01*
X107441065Y-78014636D01*
X107434394Y-78017839D01*
X107434392Y-78017840D01*
X107387849Y-78040190D01*
X107318971Y-78073265D01*
X107219514Y-78165202D01*
X107215797Y-78171602D01*
X107155205Y-78275917D01*
X107155204Y-78275920D01*
X107151487Y-78282319D01*
X107124500Y-78398748D01*
X104470000Y-78398748D01*
X104470000Y-76239000D01*
X104488907Y-76180809D01*
X104538407Y-76144845D01*
X104569000Y-76140000D01*
X159471000Y-76140000D01*
X159529191Y-76158907D01*
G37*
%TD.AperFunction*%
%TD*%
M02*
