%TF.GenerationSoftware,KiCad,Pcbnew,5.99.0-unknown-5c21f93803~130~ubuntu20.04.1*%
%TF.CreationDate,2021-06-27T12:50:21+02:00*%
%TF.ProjectId,ESP32-Reflow,45535033-322d-4526-9566-6c6f772e6b69,rev?*%
%TF.SameCoordinates,Original*%
%TF.FileFunction,Legend,Top*%
%TF.FilePolarity,Positive*%
%FSLAX46Y46*%
G04 Gerber Fmt 4.6, Leading zero omitted, Abs format (unit mm)*
G04 Created by KiCad (PCBNEW 5.99.0-unknown-5c21f93803~130~ubuntu20.04.1) date 2021-06-27 12:50:21*
%MOMM*%
%LPD*%
G01*
G04 APERTURE LIST*
%ADD10C,0.150000*%
%ADD11C,0.200000*%
%ADD12C,0.100000*%
%ADD13C,0.120000*%
G04 APERTURE END LIST*
D10*
X111600000Y-118400000D02*
X111600000Y-103300000D01*
D11*
X111947619Y-108847619D02*
X112423809Y-108514285D01*
X111947619Y-108276190D02*
X112947619Y-108276190D01*
X112947619Y-108657142D01*
X112900000Y-108752380D01*
X112852380Y-108800000D01*
X112757142Y-108847619D01*
X112614285Y-108847619D01*
X112519047Y-108800000D01*
X112471428Y-108752380D01*
X112423809Y-108657142D01*
X112423809Y-108276190D01*
X112947619Y-109466666D02*
X112947619Y-109657142D01*
X112900000Y-109752380D01*
X112804761Y-109847619D01*
X112614285Y-109895238D01*
X112280952Y-109895238D01*
X112090476Y-109847619D01*
X111995238Y-109752380D01*
X111947619Y-109657142D01*
X111947619Y-109466666D01*
X111995238Y-109371428D01*
X112090476Y-109276190D01*
X112280952Y-109228571D01*
X112614285Y-109228571D01*
X112804761Y-109276190D01*
X112900000Y-109371428D01*
X112947619Y-109466666D01*
X112947619Y-110180952D02*
X112947619Y-110752380D01*
X111947619Y-110466666D02*
X112947619Y-110466666D01*
X112233333Y-111038095D02*
X112233333Y-111514285D01*
X111947619Y-110942857D02*
X112947619Y-111276190D01*
X111947619Y-111609523D01*
X111947619Y-112514285D02*
X112423809Y-112180952D01*
X111947619Y-111942857D02*
X112947619Y-111942857D01*
X112947619Y-112323809D01*
X112900000Y-112419047D01*
X112852380Y-112466666D01*
X112757142Y-112514285D01*
X112614285Y-112514285D01*
X112519047Y-112466666D01*
X112471428Y-112419047D01*
X112423809Y-112323809D01*
X112423809Y-111942857D01*
X112423809Y-113133333D02*
X111947619Y-113133333D01*
X112947619Y-112800000D02*
X112423809Y-113133333D01*
X112947619Y-113466666D01*
X124357142Y-109252380D02*
X123785714Y-109252380D01*
X124071428Y-109252380D02*
X124071428Y-108252380D01*
X123976190Y-108395238D01*
X123880952Y-108490476D01*
X123785714Y-108538095D01*
X125214285Y-108252380D02*
X125023809Y-108252380D01*
X124928571Y-108300000D01*
X124880952Y-108347619D01*
X124785714Y-108490476D01*
X124738095Y-108680952D01*
X124738095Y-109061904D01*
X124785714Y-109157142D01*
X124833333Y-109204761D01*
X124928571Y-109252380D01*
X125119047Y-109252380D01*
X125214285Y-109204761D01*
X125261904Y-109157142D01*
X125309523Y-109061904D01*
X125309523Y-108823809D01*
X125261904Y-108728571D01*
X125214285Y-108680952D01*
X125119047Y-108633333D01*
X124928571Y-108633333D01*
X124833333Y-108680952D01*
X124785714Y-108728571D01*
X124738095Y-108823809D01*
X125738095Y-108871428D02*
X126500000Y-108871428D01*
X127309523Y-108728571D02*
X127452380Y-108776190D01*
X127500000Y-108823809D01*
X127547619Y-108919047D01*
X127547619Y-109061904D01*
X127500000Y-109157142D01*
X127452380Y-109204761D01*
X127357142Y-109252380D01*
X126976190Y-109252380D01*
X126976190Y-108252380D01*
X127309523Y-108252380D01*
X127404761Y-108300000D01*
X127452380Y-108347619D01*
X127500000Y-108442857D01*
X127500000Y-108538095D01*
X127452380Y-108633333D01*
X127404761Y-108680952D01*
X127309523Y-108728571D01*
X126976190Y-108728571D01*
X127976190Y-109252380D02*
X127976190Y-108585714D01*
X127976190Y-108252380D02*
X127928571Y-108300000D01*
X127976190Y-108347619D01*
X128023809Y-108300000D01*
X127976190Y-108252380D01*
X127976190Y-108347619D01*
X128309523Y-108585714D02*
X128690476Y-108585714D01*
X128452380Y-108252380D02*
X128452380Y-109109523D01*
X128500000Y-109204761D01*
X128595238Y-109252380D01*
X128690476Y-109252380D01*
X129785714Y-108871428D02*
X130547619Y-108871428D01*
X131738095Y-108966666D02*
X132214285Y-108966666D01*
X131642857Y-109252380D02*
X131976190Y-108252380D01*
X132309523Y-109252380D01*
X132642857Y-109252380D02*
X132642857Y-108252380D01*
X132880952Y-108252380D01*
X133023809Y-108300000D01*
X133119047Y-108395238D01*
X133166666Y-108490476D01*
X133214285Y-108680952D01*
X133214285Y-108823809D01*
X133166666Y-109014285D01*
X133119047Y-109109523D01*
X133023809Y-109204761D01*
X132880952Y-109252380D01*
X132642857Y-109252380D01*
X134214285Y-109157142D02*
X134166666Y-109204761D01*
X134023809Y-109252380D01*
X133928571Y-109252380D01*
X133785714Y-109204761D01*
X133690476Y-109109523D01*
X133642857Y-109014285D01*
X133595238Y-108823809D01*
X133595238Y-108680952D01*
X133642857Y-108490476D01*
X133690476Y-108395238D01*
X133785714Y-108300000D01*
X133928571Y-108252380D01*
X134023809Y-108252380D01*
X134166666Y-108300000D01*
X134214285Y-108347619D01*
D10*
X142000000Y-109550000D02*
X116100000Y-109550000D01*
D11*
X152152380Y-122895238D02*
X151152380Y-122895238D01*
X151152380Y-122657142D01*
X151200000Y-122514285D01*
X151295238Y-122419047D01*
X151390476Y-122371428D01*
X151580952Y-122323809D01*
X151723809Y-122323809D01*
X151914285Y-122371428D01*
X152009523Y-122419047D01*
X152104761Y-122514285D01*
X152152380Y-122657142D01*
X152152380Y-122895238D01*
X152152380Y-121895238D02*
X151152380Y-121895238D01*
X152152380Y-121419047D02*
X151152380Y-121419047D01*
X151866666Y-121085714D01*
X151152380Y-120752380D01*
X152152380Y-120752380D01*
X152152380Y-120276190D02*
X151152380Y-120276190D01*
X151866666Y-119942857D01*
X151152380Y-119609523D01*
X152152380Y-119609523D01*
X151628571Y-119133333D02*
X151628571Y-118800000D01*
X152152380Y-118657142D02*
X152152380Y-119133333D01*
X151152380Y-119133333D01*
X151152380Y-118657142D01*
X152152380Y-117657142D02*
X151676190Y-117990476D01*
X152152380Y-118228571D02*
X151152380Y-118228571D01*
X151152380Y-117847619D01*
X151200000Y-117752380D01*
X151247619Y-117704761D01*
X151342857Y-117657142D01*
X151485714Y-117657142D01*
X151580952Y-117704761D01*
X151628571Y-117752380D01*
X151676190Y-117847619D01*
X151676190Y-118228571D01*
D10*
X152450000Y-114200000D02*
X152450000Y-126800000D01*
D11*
X152124761Y-99084523D02*
X152172380Y-98941666D01*
X152172380Y-98703571D01*
X152124761Y-98608333D01*
X152077142Y-98560714D01*
X151981904Y-98513095D01*
X151886666Y-98513095D01*
X151791428Y-98560714D01*
X151743809Y-98608333D01*
X151696190Y-98703571D01*
X151648571Y-98894047D01*
X151600952Y-98989285D01*
X151553333Y-99036904D01*
X151458095Y-99084523D01*
X151362857Y-99084523D01*
X151267619Y-99036904D01*
X151220000Y-98989285D01*
X151172380Y-98894047D01*
X151172380Y-98655952D01*
X151220000Y-98513095D01*
X151648571Y-98084523D02*
X151648571Y-97751190D01*
X152172380Y-97608333D02*
X152172380Y-98084523D01*
X151172380Y-98084523D01*
X151172380Y-97608333D01*
X152172380Y-96608333D02*
X151696190Y-96941666D01*
X152172380Y-97179761D02*
X151172380Y-97179761D01*
X151172380Y-96798809D01*
X151220000Y-96703571D01*
X151267619Y-96655952D01*
X151362857Y-96608333D01*
X151505714Y-96608333D01*
X151600952Y-96655952D01*
X151648571Y-96703571D01*
X151696190Y-96798809D01*
X151696190Y-97179761D01*
X152172380Y-96179761D02*
X151172380Y-96179761D01*
X151886666Y-95751190D02*
X151886666Y-95275000D01*
X152172380Y-95846428D02*
X151172380Y-95513095D01*
X152172380Y-95179761D01*
X152172380Y-94370238D02*
X152172380Y-94846428D01*
X151172380Y-94846428D01*
D12*
X116152095Y-80157619D02*
X116152095Y-79776666D01*
X115771142Y-79738571D01*
X115809238Y-79776666D01*
X115847333Y-79852857D01*
X115847333Y-80043333D01*
X115809238Y-80119523D01*
X115771142Y-80157619D01*
X115694952Y-80195714D01*
X115504476Y-80195714D01*
X115428285Y-80157619D01*
X115390190Y-80119523D01*
X115352095Y-80043333D01*
X115352095Y-79852857D01*
X115390190Y-79776666D01*
X115428285Y-79738571D01*
X116152095Y-80424285D02*
X115352095Y-80690952D01*
X116152095Y-80957619D01*
X114064095Y-78519523D02*
X114064095Y-78671904D01*
X114102190Y-78748095D01*
X114140285Y-78786190D01*
X114254571Y-78862380D01*
X114406952Y-78900476D01*
X114711714Y-78900476D01*
X114787904Y-78862380D01*
X114826000Y-78824285D01*
X114864095Y-78748095D01*
X114864095Y-78595714D01*
X114826000Y-78519523D01*
X114787904Y-78481428D01*
X114711714Y-78443333D01*
X114521238Y-78443333D01*
X114445047Y-78481428D01*
X114406952Y-78519523D01*
X114368857Y-78595714D01*
X114368857Y-78748095D01*
X114406952Y-78824285D01*
X114445047Y-78862380D01*
X114521238Y-78900476D01*
X114864095Y-79395714D02*
X114864095Y-79471904D01*
X114826000Y-79548095D01*
X114787904Y-79586190D01*
X114711714Y-79624285D01*
X114559333Y-79662380D01*
X114368857Y-79662380D01*
X114216476Y-79624285D01*
X114140285Y-79586190D01*
X114102190Y-79548095D01*
X114064095Y-79471904D01*
X114064095Y-79395714D01*
X114102190Y-79319523D01*
X114140285Y-79281428D01*
X114216476Y-79243333D01*
X114368857Y-79205238D01*
X114559333Y-79205238D01*
X114711714Y-79243333D01*
X114787904Y-79281428D01*
X114826000Y-79319523D01*
X114864095Y-79395714D01*
X114864095Y-80157619D02*
X114864095Y-80233809D01*
X114826000Y-80310000D01*
X114787904Y-80348095D01*
X114711714Y-80386190D01*
X114559333Y-80424285D01*
X114368857Y-80424285D01*
X114216476Y-80386190D01*
X114140285Y-80348095D01*
X114102190Y-80310000D01*
X114064095Y-80233809D01*
X114064095Y-80157619D01*
X114102190Y-80081428D01*
X114140285Y-80043333D01*
X114216476Y-80005238D01*
X114368857Y-79967142D01*
X114559333Y-79967142D01*
X114711714Y-80005238D01*
X114787904Y-80043333D01*
X114826000Y-80081428D01*
X114864095Y-80157619D01*
X114064095Y-80767142D02*
X114597428Y-80767142D01*
X114521238Y-80767142D02*
X114559333Y-80805238D01*
X114597428Y-80881428D01*
X114597428Y-80995714D01*
X114559333Y-81071904D01*
X114483142Y-81110000D01*
X114064095Y-81110000D01*
X114483142Y-81110000D02*
X114559333Y-81148095D01*
X114597428Y-81224285D01*
X114597428Y-81338571D01*
X114559333Y-81414761D01*
X114483142Y-81452857D01*
X114064095Y-81452857D01*
X114292666Y-81795714D02*
X114292666Y-82176666D01*
X114064095Y-81719523D02*
X114864095Y-81986190D01*
X114064095Y-82252857D01*
D10*
X133150952Y-91327380D02*
X133150952Y-92041666D01*
X133103333Y-92184523D01*
X133008095Y-92279761D01*
X132865238Y-92327380D01*
X132770000Y-92327380D01*
X134103333Y-92327380D02*
X133627142Y-92327380D01*
X133627142Y-91327380D01*
X135008095Y-92232142D02*
X134960476Y-92279761D01*
X134817619Y-92327380D01*
X134722380Y-92327380D01*
X134579523Y-92279761D01*
X134484285Y-92184523D01*
X134436666Y-92089285D01*
X134389047Y-91898809D01*
X134389047Y-91755952D01*
X134436666Y-91565476D01*
X134484285Y-91470238D01*
X134579523Y-91375000D01*
X134722380Y-91327380D01*
X134817619Y-91327380D01*
X134960476Y-91375000D01*
X135008095Y-91422619D01*
X135722380Y-91327380D02*
X135722380Y-92041666D01*
X135674761Y-92184523D01*
X135579523Y-92279761D01*
X135436666Y-92327380D01*
X135341428Y-92327380D01*
X136674761Y-92327380D02*
X136198571Y-92327380D01*
X136198571Y-91327380D01*
X137579523Y-92232142D02*
X137531904Y-92279761D01*
X137389047Y-92327380D01*
X137293809Y-92327380D01*
X137150952Y-92279761D01*
X137055714Y-92184523D01*
X137008095Y-92089285D01*
X136960476Y-91898809D01*
X136960476Y-91755952D01*
X137008095Y-91565476D01*
X137055714Y-91470238D01*
X137150952Y-91375000D01*
X137293809Y-91327380D01*
X137389047Y-91327380D01*
X137531904Y-91375000D01*
X137579523Y-91422619D01*
X138293809Y-91327380D02*
X138293809Y-92041666D01*
X138246190Y-92184523D01*
X138150952Y-92279761D01*
X138008095Y-92327380D01*
X137912857Y-92327380D01*
X139246190Y-92327380D02*
X138770000Y-92327380D01*
X138770000Y-91327380D01*
X140150952Y-92232142D02*
X140103333Y-92279761D01*
X139960476Y-92327380D01*
X139865238Y-92327380D01*
X139722380Y-92279761D01*
X139627142Y-92184523D01*
X139579523Y-92089285D01*
X139531904Y-91898809D01*
X139531904Y-91755952D01*
X139579523Y-91565476D01*
X139627142Y-91470238D01*
X139722380Y-91375000D01*
X139865238Y-91327380D01*
X139960476Y-91327380D01*
X140103333Y-91375000D01*
X140150952Y-91422619D01*
X140865238Y-91327380D02*
X140865238Y-92041666D01*
X140817619Y-92184523D01*
X140722380Y-92279761D01*
X140579523Y-92327380D01*
X140484285Y-92327380D01*
X141817619Y-92327380D02*
X141341428Y-92327380D01*
X141341428Y-91327380D01*
X142722380Y-92232142D02*
X142674761Y-92279761D01*
X142531904Y-92327380D01*
X142436666Y-92327380D01*
X142293809Y-92279761D01*
X142198571Y-92184523D01*
X142150952Y-92089285D01*
X142103333Y-91898809D01*
X142103333Y-91755952D01*
X142150952Y-91565476D01*
X142198571Y-91470238D01*
X142293809Y-91375000D01*
X142436666Y-91327380D01*
X142531904Y-91327380D01*
X142674761Y-91375000D01*
X142722380Y-91422619D01*
D11*
X112017619Y-78065476D02*
X113017619Y-78065476D01*
X113017619Y-78446428D01*
X112970000Y-78541666D01*
X112922380Y-78589285D01*
X112827142Y-78636904D01*
X112684285Y-78636904D01*
X112589047Y-78589285D01*
X112541428Y-78541666D01*
X112493809Y-78446428D01*
X112493809Y-78065476D01*
X113017619Y-79255952D02*
X113017619Y-79446428D01*
X112970000Y-79541666D01*
X112874761Y-79636904D01*
X112684285Y-79684523D01*
X112350952Y-79684523D01*
X112160476Y-79636904D01*
X112065238Y-79541666D01*
X112017619Y-79446428D01*
X112017619Y-79255952D01*
X112065238Y-79160714D01*
X112160476Y-79065476D01*
X112350952Y-79017857D01*
X112684285Y-79017857D01*
X112874761Y-79065476D01*
X112970000Y-79160714D01*
X113017619Y-79255952D01*
X113017619Y-80017857D02*
X112017619Y-80255952D01*
X112731904Y-80446428D01*
X112017619Y-80636904D01*
X113017619Y-80875000D01*
X112541428Y-81255952D02*
X112541428Y-81589285D01*
X112017619Y-81732142D02*
X112017619Y-81255952D01*
X113017619Y-81255952D01*
X113017619Y-81732142D01*
X112017619Y-82732142D02*
X112493809Y-82398809D01*
X112017619Y-82160714D02*
X113017619Y-82160714D01*
X113017619Y-82541666D01*
X112970000Y-82636904D01*
X112922380Y-82684523D01*
X112827142Y-82732142D01*
X112684285Y-82732142D01*
X112589047Y-82684523D01*
X112541428Y-82636904D01*
X112493809Y-82541666D01*
X112493809Y-82160714D01*
X123172380Y-87777380D02*
X122696190Y-88110714D01*
X123172380Y-88348809D02*
X122172380Y-88348809D01*
X122172380Y-87967857D01*
X122220000Y-87872619D01*
X122267619Y-87825000D01*
X122362857Y-87777380D01*
X122505714Y-87777380D01*
X122600952Y-87825000D01*
X122648571Y-87872619D01*
X122696190Y-87967857D01*
X122696190Y-88348809D01*
X122648571Y-87348809D02*
X122648571Y-87015476D01*
X123172380Y-86872619D02*
X123172380Y-87348809D01*
X122172380Y-87348809D01*
X122172380Y-86872619D01*
X123124761Y-86491666D02*
X123172380Y-86348809D01*
X123172380Y-86110714D01*
X123124761Y-86015476D01*
X123077142Y-85967857D01*
X122981904Y-85920238D01*
X122886666Y-85920238D01*
X122791428Y-85967857D01*
X122743809Y-86015476D01*
X122696190Y-86110714D01*
X122648571Y-86301190D01*
X122600952Y-86396428D01*
X122553333Y-86444047D01*
X122458095Y-86491666D01*
X122362857Y-86491666D01*
X122267619Y-86444047D01*
X122220000Y-86396428D01*
X122172380Y-86301190D01*
X122172380Y-86063095D01*
X122220000Y-85920238D01*
X122648571Y-85491666D02*
X122648571Y-85158333D01*
X123172380Y-85015476D02*
X123172380Y-85491666D01*
X122172380Y-85491666D01*
X122172380Y-85015476D01*
X122172380Y-84729761D02*
X122172380Y-84158333D01*
X123172380Y-84444047D02*
X122172380Y-84444047D01*
X142848571Y-104032142D02*
X142896190Y-103889285D01*
X142943809Y-103841666D01*
X143039047Y-103794047D01*
X143181904Y-103794047D01*
X143277142Y-103841666D01*
X143324761Y-103889285D01*
X143372380Y-103984523D01*
X143372380Y-104365476D01*
X142372380Y-104365476D01*
X142372380Y-104032142D01*
X142420000Y-103936904D01*
X142467619Y-103889285D01*
X142562857Y-103841666D01*
X142658095Y-103841666D01*
X142753333Y-103889285D01*
X142800952Y-103936904D01*
X142848571Y-104032142D01*
X142848571Y-104365476D01*
X142372380Y-103175000D02*
X142372380Y-102984523D01*
X142420000Y-102889285D01*
X142515238Y-102794047D01*
X142705714Y-102746428D01*
X143039047Y-102746428D01*
X143229523Y-102794047D01*
X143324761Y-102889285D01*
X143372380Y-102984523D01*
X143372380Y-103175000D01*
X143324761Y-103270238D01*
X143229523Y-103365476D01*
X143039047Y-103413095D01*
X142705714Y-103413095D01*
X142515238Y-103365476D01*
X142420000Y-103270238D01*
X142372380Y-103175000D01*
X142372380Y-102127380D02*
X142372380Y-101936904D01*
X142420000Y-101841666D01*
X142515238Y-101746428D01*
X142705714Y-101698809D01*
X143039047Y-101698809D01*
X143229523Y-101746428D01*
X143324761Y-101841666D01*
X143372380Y-101936904D01*
X143372380Y-102127380D01*
X143324761Y-102222619D01*
X143229523Y-102317857D01*
X143039047Y-102365476D01*
X142705714Y-102365476D01*
X142515238Y-102317857D01*
X142420000Y-102222619D01*
X142372380Y-102127380D01*
X142372380Y-101413095D02*
X142372380Y-100841666D01*
X143372380Y-101127380D02*
X142372380Y-101127380D01*
X151222380Y-83870238D02*
X151222380Y-83298809D01*
X152222380Y-83584523D02*
X151222380Y-83584523D01*
X151222380Y-83060714D02*
X152222380Y-82822619D01*
X151508095Y-82632142D01*
X152222380Y-82441666D01*
X151222380Y-82203571D01*
X152222380Y-81822619D02*
X151222380Y-81822619D01*
X151152380Y-113152380D02*
X151152380Y-112580952D01*
X152152380Y-112866666D02*
X151152380Y-112866666D01*
X152152380Y-112247619D02*
X151152380Y-112247619D01*
X151628571Y-112247619D02*
X151628571Y-111676190D01*
X152152380Y-111676190D02*
X151152380Y-111676190D01*
X151628571Y-111200000D02*
X151628571Y-110866666D01*
X152152380Y-110723809D02*
X152152380Y-111200000D01*
X151152380Y-111200000D01*
X151152380Y-110723809D01*
X152152380Y-109723809D02*
X151676190Y-110057142D01*
X152152380Y-110295238D02*
X151152380Y-110295238D01*
X151152380Y-109914285D01*
X151200000Y-109819047D01*
X151247619Y-109771428D01*
X151342857Y-109723809D01*
X151485714Y-109723809D01*
X151580952Y-109771428D01*
X151628571Y-109819047D01*
X151676190Y-109914285D01*
X151676190Y-110295238D01*
X152152380Y-109295238D02*
X151152380Y-109295238D01*
X151866666Y-108961904D01*
X151152380Y-108628571D01*
X152152380Y-108628571D01*
X152152380Y-108152380D02*
X151152380Y-108152380D01*
X152104761Y-107723809D02*
X152152380Y-107580952D01*
X152152380Y-107342857D01*
X152104761Y-107247619D01*
X152057142Y-107200000D01*
X151961904Y-107152380D01*
X151866666Y-107152380D01*
X151771428Y-107200000D01*
X151723809Y-107247619D01*
X151676190Y-107342857D01*
X151628571Y-107533333D01*
X151580952Y-107628571D01*
X151533333Y-107676190D01*
X151438095Y-107723809D01*
X151342857Y-107723809D01*
X151247619Y-107676190D01*
X151200000Y-107628571D01*
X151152380Y-107533333D01*
X151152380Y-107295238D01*
X151200000Y-107152380D01*
X151152380Y-106866666D02*
X151152380Y-106295238D01*
X152152380Y-106580952D02*
X151152380Y-106580952D01*
X151152380Y-105771428D02*
X151152380Y-105580952D01*
X151200000Y-105485714D01*
X151295238Y-105390476D01*
X151485714Y-105342857D01*
X151819047Y-105342857D01*
X152009523Y-105390476D01*
X152104761Y-105485714D01*
X152152380Y-105580952D01*
X152152380Y-105771428D01*
X152104761Y-105866666D01*
X152009523Y-105961904D01*
X151819047Y-106009523D01*
X151485714Y-106009523D01*
X151295238Y-105961904D01*
X151200000Y-105866666D01*
X151152380Y-105771428D01*
X152152380Y-104342857D02*
X151676190Y-104676190D01*
X152152380Y-104914285D02*
X151152380Y-104914285D01*
X151152380Y-104533333D01*
X151200000Y-104438095D01*
X151247619Y-104390476D01*
X151342857Y-104342857D01*
X151485714Y-104342857D01*
X151580952Y-104390476D01*
X151628571Y-104438095D01*
X151676190Y-104533333D01*
X151676190Y-104914285D01*
D10*
X143670000Y-99425000D02*
X143670000Y-105925000D01*
X152470000Y-90475000D02*
X152470000Y-103075000D01*
X111670000Y-76575000D02*
X111670000Y-84175000D01*
X152470000Y-76475000D02*
X152470000Y-89375000D01*
X123470000Y-83075000D02*
X123470000Y-89575000D01*
X152450000Y-104950000D02*
X152450000Y-112550000D01*
D13*
%TO.C,L1*%
X113920000Y-103740000D02*
X116320000Y-103740000D01*
X121520000Y-92940000D02*
X124020000Y-92940000D01*
X124020000Y-103740000D02*
X121520000Y-103740000D01*
X113920000Y-92940000D02*
X113920000Y-103740000D01*
X124020000Y-92940000D02*
X124020000Y-103740000D01*
X116320000Y-92940000D02*
X113920000Y-92940000D01*
%TO.C,J7*%
X111075000Y-102950000D02*
X109825000Y-102950000D01*
X111075000Y-104200000D02*
X111075000Y-102950000D01*
X105575000Y-117600000D02*
X105575000Y-110800000D01*
X108525000Y-117600000D02*
X105575000Y-117600000D01*
X108525000Y-118350000D02*
X108525000Y-117600000D01*
X105575000Y-104000000D02*
X105575000Y-110800000D01*
X108525000Y-104000000D02*
X105575000Y-104000000D01*
X108525000Y-103250000D02*
X108525000Y-104000000D01*
X110775000Y-118350000D02*
X110775000Y-116550000D01*
X110025000Y-118350000D02*
X110775000Y-118350000D01*
X110025000Y-116550000D02*
X110025000Y-118350000D01*
X110775000Y-116550000D02*
X110025000Y-116550000D01*
X110775000Y-105050000D02*
X110775000Y-103250000D01*
X110025000Y-105050000D02*
X110775000Y-105050000D01*
X110025000Y-103250000D02*
X110025000Y-105050000D01*
X110775000Y-103250000D02*
X110025000Y-103250000D01*
X110775000Y-115050000D02*
X110775000Y-106550000D01*
X110025000Y-115050000D02*
X110775000Y-115050000D01*
X110025000Y-106550000D02*
X110025000Y-115050000D01*
X110775000Y-106550000D02*
X110025000Y-106550000D01*
X110785000Y-118360000D02*
X110785000Y-103240000D01*
X104815000Y-118360000D02*
X110785000Y-118360000D01*
X104815000Y-103240000D02*
X104815000Y-118360000D01*
X110785000Y-103240000D02*
X104815000Y-103240000D01*
%TO.C,C7*%
X109053733Y-123690000D02*
X109346267Y-123690000D01*
X109053733Y-124710000D02*
X109346267Y-124710000D01*
%TO.C,C6*%
X109053733Y-121890000D02*
X109346267Y-121890000D01*
X109053733Y-122910000D02*
X109346267Y-122910000D01*
%TO.C,C5*%
X109053733Y-120090000D02*
X109346267Y-120090000D01*
X109053733Y-121110000D02*
X109346267Y-121110000D01*
%TO.C,J6*%
X153215000Y-126810000D02*
X159185000Y-126810000D01*
X159185000Y-126810000D02*
X159185000Y-114190000D01*
X159185000Y-114190000D02*
X153215000Y-114190000D01*
X153215000Y-114190000D02*
X153215000Y-126810000D01*
X153225000Y-123500000D02*
X153975000Y-123500000D01*
X153975000Y-123500000D02*
X153975000Y-117500000D01*
X153975000Y-117500000D02*
X153225000Y-117500000D01*
X153225000Y-117500000D02*
X153225000Y-123500000D01*
X153225000Y-126800000D02*
X153975000Y-126800000D01*
X153975000Y-126800000D02*
X153975000Y-125000000D01*
X153975000Y-125000000D02*
X153225000Y-125000000D01*
X153225000Y-125000000D02*
X153225000Y-126800000D01*
X153225000Y-116000000D02*
X153975000Y-116000000D01*
X153975000Y-116000000D02*
X153975000Y-114200000D01*
X153975000Y-114200000D02*
X153225000Y-114200000D01*
X153225000Y-114200000D02*
X153225000Y-116000000D01*
X155475000Y-126800000D02*
X155475000Y-126050000D01*
X155475000Y-126050000D02*
X158425000Y-126050000D01*
X158425000Y-126050000D02*
X158425000Y-120500000D01*
X155475000Y-114200000D02*
X155475000Y-114950000D01*
X155475000Y-114950000D02*
X158425000Y-114950000D01*
X158425000Y-114950000D02*
X158425000Y-120500000D01*
X152925000Y-125850000D02*
X152925000Y-127100000D01*
X152925000Y-127100000D02*
X154175000Y-127100000D01*
%TO.C,R4*%
X133322500Y-101845276D02*
X133322500Y-102354724D01*
X132277500Y-101845276D02*
X132277500Y-102354724D01*
%TO.C,R3*%
X149822500Y-78945276D02*
X149822500Y-79454724D01*
X148777500Y-78945276D02*
X148777500Y-79454724D01*
%TO.C,J5*%
X153280000Y-89080000D02*
X159250000Y-89080000D01*
X159250000Y-89080000D02*
X159250000Y-76460000D01*
X159250000Y-76460000D02*
X153280000Y-76460000D01*
X153280000Y-76460000D02*
X153280000Y-89080000D01*
X153290000Y-85770000D02*
X154040000Y-85770000D01*
X154040000Y-85770000D02*
X154040000Y-79770000D01*
X154040000Y-79770000D02*
X153290000Y-79770000D01*
X153290000Y-79770000D02*
X153290000Y-85770000D01*
X153290000Y-89070000D02*
X154040000Y-89070000D01*
X154040000Y-89070000D02*
X154040000Y-87270000D01*
X154040000Y-87270000D02*
X153290000Y-87270000D01*
X153290000Y-87270000D02*
X153290000Y-89070000D01*
X153290000Y-78270000D02*
X154040000Y-78270000D01*
X154040000Y-78270000D02*
X154040000Y-76470000D01*
X154040000Y-76470000D02*
X153290000Y-76470000D01*
X153290000Y-76470000D02*
X153290000Y-78270000D01*
X155540000Y-89070000D02*
X155540000Y-88320000D01*
X155540000Y-88320000D02*
X158490000Y-88320000D01*
X158490000Y-88320000D02*
X158490000Y-82770000D01*
X155540000Y-76470000D02*
X155540000Y-77220000D01*
X155540000Y-77220000D02*
X158490000Y-77220000D01*
X158490000Y-77220000D02*
X158490000Y-82770000D01*
X152990000Y-88120000D02*
X152990000Y-89370000D01*
X152990000Y-89370000D02*
X154240000Y-89370000D01*
%TO.C,J4*%
X153285000Y-103140000D02*
X159255000Y-103140000D01*
X159255000Y-103140000D02*
X159255000Y-90520000D01*
X159255000Y-90520000D02*
X153285000Y-90520000D01*
X153285000Y-90520000D02*
X153285000Y-103140000D01*
X153295000Y-99830000D02*
X154045000Y-99830000D01*
X154045000Y-99830000D02*
X154045000Y-93830000D01*
X154045000Y-93830000D02*
X153295000Y-93830000D01*
X153295000Y-93830000D02*
X153295000Y-99830000D01*
X153295000Y-103130000D02*
X154045000Y-103130000D01*
X154045000Y-103130000D02*
X154045000Y-101330000D01*
X154045000Y-101330000D02*
X153295000Y-101330000D01*
X153295000Y-101330000D02*
X153295000Y-103130000D01*
X153295000Y-92330000D02*
X154045000Y-92330000D01*
X154045000Y-92330000D02*
X154045000Y-90530000D01*
X154045000Y-90530000D02*
X153295000Y-90530000D01*
X153295000Y-90530000D02*
X153295000Y-92330000D01*
X155545000Y-103130000D02*
X155545000Y-102380000D01*
X155545000Y-102380000D02*
X158495000Y-102380000D01*
X158495000Y-102380000D02*
X158495000Y-96830000D01*
X155545000Y-90530000D02*
X155545000Y-91280000D01*
X155545000Y-91280000D02*
X158495000Y-91280000D01*
X158495000Y-91280000D02*
X158495000Y-96830000D01*
X152995000Y-102180000D02*
X152995000Y-103430000D01*
X152995000Y-103430000D02*
X154245000Y-103430000D01*
%TO.C,J3*%
X110785000Y-76490000D02*
X104815000Y-76490000D01*
X104815000Y-76490000D02*
X104815000Y-84110000D01*
X104815000Y-84110000D02*
X110785000Y-84110000D01*
X110785000Y-84110000D02*
X110785000Y-76490000D01*
X110775000Y-79800000D02*
X110025000Y-79800000D01*
X110025000Y-79800000D02*
X110025000Y-80800000D01*
X110025000Y-80800000D02*
X110775000Y-80800000D01*
X110775000Y-80800000D02*
X110775000Y-79800000D01*
X110775000Y-76500000D02*
X110025000Y-76500000D01*
X110025000Y-76500000D02*
X110025000Y-78300000D01*
X110025000Y-78300000D02*
X110775000Y-78300000D01*
X110775000Y-78300000D02*
X110775000Y-76500000D01*
X110775000Y-82300000D02*
X110025000Y-82300000D01*
X110025000Y-82300000D02*
X110025000Y-84100000D01*
X110025000Y-84100000D02*
X110775000Y-84100000D01*
X110775000Y-84100000D02*
X110775000Y-82300000D01*
X108525000Y-76500000D02*
X108525000Y-77250000D01*
X108525000Y-77250000D02*
X105575000Y-77250000D01*
X105575000Y-77250000D02*
X105575000Y-80300000D01*
X108525000Y-84100000D02*
X108525000Y-83350000D01*
X108525000Y-83350000D02*
X105575000Y-83350000D01*
X105575000Y-83350000D02*
X105575000Y-80300000D01*
X111075000Y-77450000D02*
X111075000Y-76200000D01*
X111075000Y-76200000D02*
X109825000Y-76200000D01*
%TO.C,J2*%
X153240000Y-112560000D02*
X159210000Y-112560000D01*
X159210000Y-112560000D02*
X159210000Y-104940000D01*
X159210000Y-104940000D02*
X153240000Y-104940000D01*
X153240000Y-104940000D02*
X153240000Y-112560000D01*
X153250000Y-109250000D02*
X154000000Y-109250000D01*
X154000000Y-109250000D02*
X154000000Y-108250000D01*
X154000000Y-108250000D02*
X153250000Y-108250000D01*
X153250000Y-108250000D02*
X153250000Y-109250000D01*
X153250000Y-112550000D02*
X154000000Y-112550000D01*
X154000000Y-112550000D02*
X154000000Y-110750000D01*
X154000000Y-110750000D02*
X153250000Y-110750000D01*
X153250000Y-110750000D02*
X153250000Y-112550000D01*
X153250000Y-106750000D02*
X154000000Y-106750000D01*
X154000000Y-106750000D02*
X154000000Y-104950000D01*
X154000000Y-104950000D02*
X153250000Y-104950000D01*
X153250000Y-104950000D02*
X153250000Y-106750000D01*
X155500000Y-112550000D02*
X155500000Y-111800000D01*
X155500000Y-111800000D02*
X158450000Y-111800000D01*
X158450000Y-111800000D02*
X158450000Y-108750000D01*
X155500000Y-104950000D02*
X155500000Y-105700000D01*
X155500000Y-105700000D02*
X158450000Y-105700000D01*
X158450000Y-105700000D02*
X158450000Y-108750000D01*
X152950000Y-111600000D02*
X152950000Y-112850000D01*
X152950000Y-112850000D02*
X154200000Y-112850000D01*
%TO.C,J1*%
X116245000Y-112930000D02*
X116245000Y-111600000D01*
X117575000Y-112930000D02*
X116245000Y-112930000D01*
X118845000Y-112930000D02*
X118845000Y-110270000D01*
X118845000Y-110270000D02*
X141765000Y-110270000D01*
X118845000Y-112930000D02*
X141765000Y-112930000D01*
X141765000Y-112930000D02*
X141765000Y-110270000D01*
%TO.C,C4*%
X124740000Y-103560000D02*
X126440000Y-103560000D01*
X130260000Y-103560000D02*
X128560000Y-103560000D01*
X130260000Y-99104437D02*
X130260000Y-103560000D01*
X124740000Y-99104437D02*
X124740000Y-103560000D01*
X125804437Y-98040000D02*
X126440000Y-98040000D01*
X129195563Y-98040000D02*
X128560000Y-98040000D01*
X129195563Y-98040000D02*
X130260000Y-99104437D01*
X125804437Y-98040000D02*
X124740000Y-99104437D01*
X129185000Y-97175000D02*
X129185000Y-97800000D01*
X129497500Y-97487500D02*
X128872500Y-97487500D01*
%TO.C,C3*%
X122690000Y-78346267D02*
X122690000Y-78053733D01*
X123710000Y-78346267D02*
X123710000Y-78053733D01*
%TO.C,U2*%
X129150000Y-69825000D02*
X147390000Y-69825000D01*
X147390000Y-94790000D02*
X147390000Y-95570000D01*
X147390000Y-69825000D02*
X147390000Y-76245000D01*
X129150000Y-95570000D02*
X130150000Y-95570000D01*
X129150000Y-69825000D02*
X129150000Y-76245000D01*
X147390000Y-95570000D02*
X146390000Y-95570000D01*
X129150000Y-94790000D02*
X129150000Y-95570000D01*
X129150000Y-76245000D02*
X128770000Y-76245000D01*
%TO.C,SW1*%
X123960000Y-83215000D02*
X127580000Y-83215000D01*
X127580000Y-83215000D02*
X127580000Y-89335000D01*
X127580000Y-89335000D02*
X123960000Y-89335000D01*
X123960000Y-89335000D02*
X123960000Y-83215000D01*
%TO.C,SW2*%
X144160000Y-99615000D02*
X147780000Y-99615000D01*
X144160000Y-105735000D02*
X144160000Y-99615000D01*
X147780000Y-105735000D02*
X144160000Y-105735000D01*
X147780000Y-99615000D02*
X147780000Y-105735000D01*
%TO.C,C2*%
X124482000Y-78336267D02*
X124482000Y-78043733D01*
X125502000Y-78336267D02*
X125502000Y-78043733D01*
%TO.C,R2*%
X148777500Y-82545276D02*
X148777500Y-83054724D01*
X149822500Y-82545276D02*
X149822500Y-83054724D01*
%TO.C,C1*%
X106645000Y-86255000D02*
X107270000Y-86255000D01*
X107510000Y-86244437D02*
X107510000Y-86880000D01*
X107510000Y-89635563D02*
X107510000Y-89000000D01*
X108574437Y-85180000D02*
X113030000Y-85180000D01*
X113030000Y-85180000D02*
X113030000Y-86880000D01*
X106957500Y-85942500D02*
X106957500Y-86567500D01*
X107510000Y-86244437D02*
X108574437Y-85180000D01*
X107510000Y-89635563D02*
X108574437Y-90700000D01*
X113030000Y-90700000D02*
X113030000Y-89000000D01*
X108574437Y-90700000D02*
X113030000Y-90700000D01*
%TO.C,D1*%
X110920000Y-93540000D02*
X107620000Y-93540000D01*
X107620000Y-93540000D02*
X107620000Y-100440000D01*
X110920000Y-93540000D02*
X110920000Y-100440000D01*
%TO.C,U1*%
X120730000Y-86190000D02*
X120730000Y-84240000D01*
X120730000Y-86190000D02*
X120730000Y-88140000D01*
X115610000Y-86190000D02*
X115610000Y-89640000D01*
X115610000Y-86190000D02*
X115610000Y-84240000D01*
%TO.C,R1*%
X121922500Y-78454724D02*
X121922500Y-77945276D01*
X120877500Y-78454724D02*
X120877500Y-77945276D01*
%TD*%
M02*
