M48
; DRILL file {KiCad 5.99.0-unknown-5c21f93803~130~ubuntu20.04.1} date Sun Jun 27 12:50:23 2021
; FORMAT={-:-/ absolute / inch / decimal}
; #@! TF.CreationDate,2021-06-27T12:50:23+02:00
; #@! TF.GenerationSoftware,Kicad,Pcbnew,5.99.0-unknown-5c21f93803~130~ubuntu20.04.1
; #@! TF.FileFunction,Plated,1,2,PTH
FMAT,2
INCH
; #@! TA.AperFunction,Plated,PTH,ViaDrill
T1C0.0118
; #@! TA.AperFunction,Plated,PTH,ViaDrill
T2C0.0157
; #@! TA.AperFunction,Plated,PTH,ComponentDrill
T3C0.0374
; #@! TA.AperFunction,Plated,PTH,ComponentDrill
T4C0.0394
; #@! TA.AperFunction,Plated,PTH,ComponentDrill
T5C0.0866
%
G90
G05
T1
X4.6776Y-3.4242
X4.7196Y-3.0425
X4.9796Y-3.1125
X5.1885Y-3.0986
X5.2283Y-3.9173
X5.6455Y-3.2486
X5.6917Y-3.1984
X5.7007Y-3.0986
X5.8937Y-3.7362
X5.9173Y-3.7008
X5.9319Y-3.0803
X5.9319Y-3.185
T2
X4.5461Y-4.0699
X5.0197Y-3.9685
X5.2047Y-3.5
X5.2323Y-3.5472
X5.2677Y-3.5984
X5.4173Y-4.0866
X5.5354Y-3.1496
X5.5354Y-3.2992
X5.6142Y-4.5472
X5.6772Y-3.6496
X5.6772Y-4.5472
T3
X4.2648Y-4.1654
X4.2648Y-4.2638
X4.2648Y-4.3622
X4.2648Y-4.4606
X4.2648Y-4.5591
X6.1289Y-4.5965
X6.1289Y-4.6949
X6.1289Y-4.7933
X6.1289Y-4.8917
X6.1315Y-3.111
X6.1315Y-3.2094
X6.1315Y-3.3079
X6.1315Y-3.4063
X6.1317Y-3.6646
X6.1317Y-3.763
X6.1317Y-3.8614
X6.1317Y-3.9598
T4
X4.2648Y-3.1122
X4.2648Y-3.2106
X4.6289Y-4.3937
X4.7289Y-4.3937
X4.8289Y-4.3937
X4.9289Y-4.3937
X5.0289Y-4.3937
X5.1289Y-4.3937
X5.2289Y-4.3937
X5.3289Y-4.3937
X5.4289Y-4.3937
X5.5289Y-4.3937
X6.1299Y-4.2323
X6.1299Y-4.3307
T5
X5.4724Y-3.9449
T0
M30
