%TF.GenerationSoftware,KiCad,Pcbnew,5.99.0-unknown-5c21f93803~130~ubuntu20.04.1*%
%TF.CreationDate,2021-06-27T12:50:21+02:00*%
%TF.ProjectId,ESP32-Reflow,45535033-322d-4526-9566-6c6f772e6b69,rev?*%
%TF.SameCoordinates,Original*%
%TF.FileFunction,Legend,Bot*%
%TF.FilePolarity,Positive*%
%FSLAX46Y46*%
G04 Gerber Fmt 4.6, Leading zero omitted, Abs format (unit mm)*
G04 Created by KiCad (PCBNEW 5.99.0-unknown-5c21f93803~130~ubuntu20.04.1) date 2021-06-27 12:50:21*
%MOMM*%
%LPD*%
G01*
G04 APERTURE LIST*
%ADD10C,0.100000*%
%ADD11C,0.150000*%
%ADD12C,0.200000*%
%ADD13C,0.010000*%
G04 APERTURE END LIST*
D10*
X111276190Y-116085714D02*
X111314285Y-116123809D01*
X111428571Y-116161904D01*
X111504761Y-116161904D01*
X111619047Y-116123809D01*
X111695238Y-116047619D01*
X111733333Y-115971428D01*
X111771428Y-115819047D01*
X111771428Y-115704761D01*
X111733333Y-115552380D01*
X111695238Y-115476190D01*
X111619047Y-115400000D01*
X111504761Y-115361904D01*
X111428571Y-115361904D01*
X111314285Y-115400000D01*
X111276190Y-115438095D01*
X110552380Y-116161904D02*
X110933333Y-116161904D01*
X110933333Y-115361904D01*
X110285714Y-116161904D02*
X110285714Y-115361904D01*
X109828571Y-116161904D02*
X110171428Y-115704761D01*
X109828571Y-115361904D02*
X110285714Y-115819047D01*
D11*
X112300000Y-117100000D02*
X112300000Y-104500000D01*
D10*
X111920476Y-107986904D02*
X111425238Y-107986904D01*
X111691904Y-108291666D01*
X111577619Y-108291666D01*
X111501428Y-108329761D01*
X111463333Y-108367857D01*
X111425238Y-108444047D01*
X111425238Y-108634523D01*
X111463333Y-108710714D01*
X111501428Y-108748809D01*
X111577619Y-108786904D01*
X111806190Y-108786904D01*
X111882380Y-108748809D01*
X111920476Y-108710714D01*
X111196666Y-107986904D02*
X110930000Y-108786904D01*
X110663333Y-107986904D01*
X110472857Y-107986904D02*
X109977619Y-107986904D01*
X110244285Y-108291666D01*
X110130000Y-108291666D01*
X110053809Y-108329761D01*
X110015714Y-108367857D01*
X109977619Y-108444047D01*
X109977619Y-108634523D01*
X110015714Y-108710714D01*
X110053809Y-108748809D01*
X110130000Y-108786904D01*
X110358571Y-108786904D01*
X110434761Y-108748809D01*
X110472857Y-108710714D01*
D12*
X112947619Y-112752380D02*
X113423809Y-113085714D01*
X112947619Y-113323809D02*
X113947619Y-113323809D01*
X113947619Y-112942857D01*
X113900000Y-112847619D01*
X113852380Y-112800000D01*
X113757142Y-112752380D01*
X113614285Y-112752380D01*
X113519047Y-112800000D01*
X113471428Y-112847619D01*
X113423809Y-112942857D01*
X113423809Y-113323809D01*
X113947619Y-112133333D02*
X113947619Y-111942857D01*
X113900000Y-111847619D01*
X113804761Y-111752380D01*
X113614285Y-111704761D01*
X113280952Y-111704761D01*
X113090476Y-111752380D01*
X112995238Y-111847619D01*
X112947619Y-111942857D01*
X112947619Y-112133333D01*
X112995238Y-112228571D01*
X113090476Y-112323809D01*
X113280952Y-112371428D01*
X113614285Y-112371428D01*
X113804761Y-112323809D01*
X113900000Y-112228571D01*
X113947619Y-112133333D01*
X113947619Y-111419047D02*
X113947619Y-110847619D01*
X112947619Y-111133333D02*
X113947619Y-111133333D01*
X113233333Y-110561904D02*
X113233333Y-110085714D01*
X112947619Y-110657142D02*
X113947619Y-110323809D01*
X112947619Y-109990476D01*
X112947619Y-109085714D02*
X113423809Y-109419047D01*
X112947619Y-109657142D02*
X113947619Y-109657142D01*
X113947619Y-109276190D01*
X113900000Y-109180952D01*
X113852380Y-109133333D01*
X113757142Y-109085714D01*
X113614285Y-109085714D01*
X113519047Y-109133333D01*
X113471428Y-109180952D01*
X113423809Y-109276190D01*
X113423809Y-109657142D01*
X113423809Y-108466666D02*
X112947619Y-108466666D01*
X113947619Y-108800000D02*
X113423809Y-108466666D01*
X113947619Y-108133333D01*
D10*
X111509523Y-105300000D02*
X111585714Y-105261904D01*
X111700000Y-105261904D01*
X111814285Y-105300000D01*
X111890476Y-105376190D01*
X111928571Y-105452380D01*
X111966666Y-105604761D01*
X111966666Y-105719047D01*
X111928571Y-105871428D01*
X111890476Y-105947619D01*
X111814285Y-106023809D01*
X111700000Y-106061904D01*
X111623809Y-106061904D01*
X111509523Y-106023809D01*
X111471428Y-105985714D01*
X111471428Y-105719047D01*
X111623809Y-105719047D01*
X111128571Y-106061904D02*
X111128571Y-105261904D01*
X110671428Y-106061904D01*
X110671428Y-105261904D01*
X110290476Y-106061904D02*
X110290476Y-105261904D01*
X110100000Y-105261904D01*
X109985714Y-105300000D01*
X109909523Y-105376190D01*
X109871428Y-105452380D01*
X109833333Y-105604761D01*
X109833333Y-105719047D01*
X109871428Y-105871428D01*
X109909523Y-105947619D01*
X109985714Y-106023809D01*
X110100000Y-106061904D01*
X110290476Y-106061904D01*
X111615714Y-111148809D02*
X111501428Y-111186904D01*
X111310952Y-111186904D01*
X111234761Y-111148809D01*
X111196666Y-111110714D01*
X111158571Y-111034523D01*
X111158571Y-110958333D01*
X111196666Y-110882142D01*
X111234761Y-110844047D01*
X111310952Y-110805952D01*
X111463333Y-110767857D01*
X111539523Y-110729761D01*
X111577619Y-110691666D01*
X111615714Y-110615476D01*
X111615714Y-110539285D01*
X111577619Y-110463095D01*
X111539523Y-110425000D01*
X111463333Y-110386904D01*
X111272857Y-110386904D01*
X111158571Y-110425000D01*
X110891904Y-110386904D02*
X110701428Y-111186904D01*
X110549047Y-110615476D01*
X110396666Y-111186904D01*
X110206190Y-110386904D01*
X111757142Y-113661904D02*
X111757142Y-112861904D01*
X111566666Y-112861904D01*
X111452380Y-112900000D01*
X111376190Y-112976190D01*
X111338095Y-113052380D01*
X111300000Y-113204761D01*
X111300000Y-113319047D01*
X111338095Y-113471428D01*
X111376190Y-113547619D01*
X111452380Y-113623809D01*
X111566666Y-113661904D01*
X111757142Y-113661904D01*
X110995238Y-113433333D02*
X110614285Y-113433333D01*
X111071428Y-113661904D02*
X110804761Y-112861904D01*
X110538095Y-113661904D01*
X110385714Y-112861904D02*
X109928571Y-112861904D01*
X110157142Y-113661904D02*
X110157142Y-112861904D01*
X140266666Y-109671428D02*
X140266666Y-109290476D01*
X140038095Y-109747619D02*
X140838095Y-109480952D01*
X140038095Y-109214285D01*
X140838095Y-109023809D02*
X140838095Y-108528571D01*
X140533333Y-108795238D01*
X140533333Y-108680952D01*
X140495238Y-108604761D01*
X140457142Y-108566666D01*
X140380952Y-108528571D01*
X140190476Y-108528571D01*
X140114285Y-108566666D01*
X140076190Y-108604761D01*
X140038095Y-108680952D01*
X140038095Y-108909523D01*
X140076190Y-108985714D01*
X140114285Y-109023809D01*
X137766666Y-109671428D02*
X137766666Y-109290476D01*
X137538095Y-109747619D02*
X138338095Y-109480952D01*
X137538095Y-109214285D01*
X138261904Y-108985714D02*
X138300000Y-108947619D01*
X138338095Y-108871428D01*
X138338095Y-108680952D01*
X138300000Y-108604761D01*
X138261904Y-108566666D01*
X138185714Y-108528571D01*
X138109523Y-108528571D01*
X137995238Y-108566666D01*
X137538095Y-109023809D01*
X137538095Y-108528571D01*
X132666666Y-109671428D02*
X132666666Y-109290476D01*
X132438095Y-109747619D02*
X133238095Y-109480952D01*
X132438095Y-109214285D01*
X133238095Y-108795238D02*
X133238095Y-108719047D01*
X133200000Y-108642857D01*
X133161904Y-108604761D01*
X133085714Y-108566666D01*
X132933333Y-108528571D01*
X132742857Y-108528571D01*
X132590476Y-108566666D01*
X132514285Y-108604761D01*
X132476190Y-108642857D01*
X132438095Y-108719047D01*
X132438095Y-108795238D01*
X132476190Y-108871428D01*
X132514285Y-108909523D01*
X132590476Y-108947619D01*
X132742857Y-108985714D01*
X132933333Y-108985714D01*
X133085714Y-108947619D01*
X133161904Y-108909523D01*
X133200000Y-108871428D01*
X133238095Y-108795238D01*
X130091666Y-110065238D02*
X130091666Y-109684285D01*
X129863095Y-110141428D02*
X130663095Y-109874761D01*
X129863095Y-109608095D01*
X129863095Y-108884285D02*
X130244047Y-109150952D01*
X129863095Y-109341428D02*
X130663095Y-109341428D01*
X130663095Y-109036666D01*
X130625000Y-108960476D01*
X130586904Y-108922380D01*
X130510714Y-108884285D01*
X130396428Y-108884285D01*
X130320238Y-108922380D01*
X130282142Y-108960476D01*
X130244047Y-109036666D01*
X130244047Y-109341428D01*
X130663095Y-108655714D02*
X130663095Y-108198571D01*
X129863095Y-108427142D02*
X130663095Y-108427142D01*
X135166666Y-109671428D02*
X135166666Y-109290476D01*
X134938095Y-109747619D02*
X135738095Y-109480952D01*
X134938095Y-109214285D01*
X134938095Y-108528571D02*
X134938095Y-108985714D01*
X134938095Y-108757142D02*
X135738095Y-108757142D01*
X135623809Y-108833333D01*
X135547619Y-108909523D01*
X135509523Y-108985714D01*
X127566666Y-109990476D02*
X127566666Y-109609523D01*
X127338095Y-110066666D02*
X128138095Y-109800000D01*
X127338095Y-109533333D01*
X127338095Y-109266666D02*
X128138095Y-109266666D01*
X128138095Y-109076190D01*
X128100000Y-108961904D01*
X128023809Y-108885714D01*
X127947619Y-108847619D01*
X127795238Y-108809523D01*
X127680952Y-108809523D01*
X127528571Y-108847619D01*
X127452380Y-108885714D01*
X127376190Y-108961904D01*
X127338095Y-109076190D01*
X127338095Y-109266666D01*
X127338095Y-108009523D02*
X127719047Y-108276190D01*
X127338095Y-108466666D02*
X128138095Y-108466666D01*
X128138095Y-108161904D01*
X128100000Y-108085714D01*
X128061904Y-108047619D01*
X127985714Y-108009523D01*
X127871428Y-108009523D01*
X127795238Y-108047619D01*
X127757142Y-108085714D01*
X127719047Y-108161904D01*
X127719047Y-108466666D01*
X124876190Y-110071428D02*
X124838095Y-109957142D01*
X124838095Y-109766666D01*
X124876190Y-109690476D01*
X124914285Y-109652380D01*
X124990476Y-109614285D01*
X125066666Y-109614285D01*
X125142857Y-109652380D01*
X125180952Y-109690476D01*
X125219047Y-109766666D01*
X125257142Y-109919047D01*
X125295238Y-109995238D01*
X125333333Y-110033333D01*
X125409523Y-110071428D01*
X125485714Y-110071428D01*
X125561904Y-110033333D01*
X125600000Y-109995238D01*
X125638095Y-109919047D01*
X125638095Y-109728571D01*
X125600000Y-109614285D01*
X124838095Y-109271428D02*
X125638095Y-109271428D01*
X125638095Y-109080952D01*
X125600000Y-108966666D01*
X125523809Y-108890476D01*
X125447619Y-108852380D01*
X125295238Y-108814285D01*
X125180952Y-108814285D01*
X125028571Y-108852380D01*
X124952380Y-108890476D01*
X124876190Y-108966666D01*
X124838095Y-109080952D01*
X124838095Y-109271428D01*
X125066666Y-108509523D02*
X125066666Y-108128571D01*
X124838095Y-108585714D02*
X125638095Y-108319047D01*
X124838095Y-108052380D01*
X122376190Y-110052380D02*
X122338095Y-109938095D01*
X122338095Y-109747619D01*
X122376190Y-109671428D01*
X122414285Y-109633333D01*
X122490476Y-109595238D01*
X122566666Y-109595238D01*
X122642857Y-109633333D01*
X122680952Y-109671428D01*
X122719047Y-109747619D01*
X122757142Y-109900000D01*
X122795238Y-109976190D01*
X122833333Y-110014285D01*
X122909523Y-110052380D01*
X122985714Y-110052380D01*
X123061904Y-110014285D01*
X123100000Y-109976190D01*
X123138095Y-109900000D01*
X123138095Y-109709523D01*
X123100000Y-109595238D01*
X122414285Y-108795238D02*
X122376190Y-108833333D01*
X122338095Y-108947619D01*
X122338095Y-109023809D01*
X122376190Y-109138095D01*
X122452380Y-109214285D01*
X122528571Y-109252380D01*
X122680952Y-109290476D01*
X122795238Y-109290476D01*
X122947619Y-109252380D01*
X123023809Y-109214285D01*
X123100000Y-109138095D01*
X123138095Y-109023809D01*
X123138095Y-108947619D01*
X123100000Y-108833333D01*
X123061904Y-108795238D01*
X122338095Y-108071428D02*
X122338095Y-108452380D01*
X123138095Y-108452380D01*
D11*
X142000000Y-107800000D02*
X116050000Y-107800000D01*
D12*
X132642857Y-107352380D02*
X133214285Y-107352380D01*
X132928571Y-107352380D02*
X132928571Y-106352380D01*
X133023809Y-106495238D01*
X133119047Y-106590476D01*
X133214285Y-106638095D01*
X131785714Y-106352380D02*
X131976190Y-106352380D01*
X132071428Y-106400000D01*
X132119047Y-106447619D01*
X132214285Y-106590476D01*
X132261904Y-106780952D01*
X132261904Y-107161904D01*
X132214285Y-107257142D01*
X132166666Y-107304761D01*
X132071428Y-107352380D01*
X131880952Y-107352380D01*
X131785714Y-107304761D01*
X131738095Y-107257142D01*
X131690476Y-107161904D01*
X131690476Y-106923809D01*
X131738095Y-106828571D01*
X131785714Y-106780952D01*
X131880952Y-106733333D01*
X132071428Y-106733333D01*
X132166666Y-106780952D01*
X132214285Y-106828571D01*
X132261904Y-106923809D01*
X131261904Y-106971428D02*
X130500000Y-106971428D01*
X129690476Y-106828571D02*
X129547619Y-106876190D01*
X129500000Y-106923809D01*
X129452380Y-107019047D01*
X129452380Y-107161904D01*
X129500000Y-107257142D01*
X129547619Y-107304761D01*
X129642857Y-107352380D01*
X130023809Y-107352380D01*
X130023809Y-106352380D01*
X129690476Y-106352380D01*
X129595238Y-106400000D01*
X129547619Y-106447619D01*
X129500000Y-106542857D01*
X129500000Y-106638095D01*
X129547619Y-106733333D01*
X129595238Y-106780952D01*
X129690476Y-106828571D01*
X130023809Y-106828571D01*
X129023809Y-107352380D02*
X129023809Y-106685714D01*
X129023809Y-106352380D02*
X129071428Y-106400000D01*
X129023809Y-106447619D01*
X128976190Y-106400000D01*
X129023809Y-106352380D01*
X129023809Y-106447619D01*
X128690476Y-106685714D02*
X128309523Y-106685714D01*
X128547619Y-106352380D02*
X128547619Y-107209523D01*
X128500000Y-107304761D01*
X128404761Y-107352380D01*
X128309523Y-107352380D01*
X127261904Y-107066666D02*
X126785714Y-107066666D01*
X127357142Y-107352380D02*
X127023809Y-106352380D01*
X126690476Y-107352380D01*
X126357142Y-107352380D02*
X126357142Y-106352380D01*
X126119047Y-106352380D01*
X125976190Y-106400000D01*
X125880952Y-106495238D01*
X125833333Y-106590476D01*
X125785714Y-106780952D01*
X125785714Y-106923809D01*
X125833333Y-107114285D01*
X125880952Y-107209523D01*
X125976190Y-107304761D01*
X126119047Y-107352380D01*
X126357142Y-107352380D01*
X124785714Y-107257142D02*
X124833333Y-107304761D01*
X124976190Y-107352380D01*
X125071428Y-107352380D01*
X125214285Y-107304761D01*
X125309523Y-107209523D01*
X125357142Y-107114285D01*
X125404761Y-106923809D01*
X125404761Y-106780952D01*
X125357142Y-106590476D01*
X125309523Y-106495238D01*
X125214285Y-106400000D01*
X125071428Y-106352380D01*
X124976190Y-106352380D01*
X124833333Y-106400000D01*
X124785714Y-106447619D01*
D10*
X118038095Y-110160476D02*
X118038095Y-109665238D01*
X117733333Y-109931904D01*
X117733333Y-109817619D01*
X117695238Y-109741428D01*
X117657142Y-109703333D01*
X117580952Y-109665238D01*
X117390476Y-109665238D01*
X117314285Y-109703333D01*
X117276190Y-109741428D01*
X117238095Y-109817619D01*
X117238095Y-110046190D01*
X117276190Y-110122380D01*
X117314285Y-110160476D01*
X118038095Y-109436666D02*
X117238095Y-109170000D01*
X118038095Y-108903333D01*
X118038095Y-108712857D02*
X118038095Y-108217619D01*
X117733333Y-108484285D01*
X117733333Y-108370000D01*
X117695238Y-108293809D01*
X117657142Y-108255714D01*
X117580952Y-108217619D01*
X117390476Y-108217619D01*
X117314285Y-108255714D01*
X117276190Y-108293809D01*
X117238095Y-108370000D01*
X117238095Y-108598571D01*
X117276190Y-108674761D01*
X117314285Y-108712857D01*
X120525000Y-109779523D02*
X120563095Y-109855714D01*
X120563095Y-109970000D01*
X120525000Y-110084285D01*
X120448809Y-110160476D01*
X120372619Y-110198571D01*
X120220238Y-110236666D01*
X120105952Y-110236666D01*
X119953571Y-110198571D01*
X119877380Y-110160476D01*
X119801190Y-110084285D01*
X119763095Y-109970000D01*
X119763095Y-109893809D01*
X119801190Y-109779523D01*
X119839285Y-109741428D01*
X120105952Y-109741428D01*
X120105952Y-109893809D01*
X119763095Y-109398571D02*
X120563095Y-109398571D01*
X119763095Y-108941428D01*
X120563095Y-108941428D01*
X119763095Y-108560476D02*
X120563095Y-108560476D01*
X120563095Y-108370000D01*
X120525000Y-108255714D01*
X120448809Y-108179523D01*
X120372619Y-108141428D01*
X120220238Y-108103333D01*
X120105952Y-108103333D01*
X119953571Y-108141428D01*
X119877380Y-108179523D01*
X119801190Y-108255714D01*
X119763095Y-108370000D01*
X119763095Y-108560476D01*
X153866666Y-116261904D02*
X153333333Y-116261904D01*
X153866666Y-117061904D01*
X153333333Y-117061904D01*
X152571428Y-116985714D02*
X152609523Y-117023809D01*
X152723809Y-117061904D01*
X152800000Y-117061904D01*
X152914285Y-117023809D01*
X152990476Y-116947619D01*
X153028571Y-116871428D01*
X153066666Y-116719047D01*
X153066666Y-116604761D01*
X153028571Y-116452380D01*
X152990476Y-116376190D01*
X152914285Y-116300000D01*
X152800000Y-116261904D01*
X152723809Y-116261904D01*
X152609523Y-116300000D01*
X152571428Y-116338095D01*
X153809523Y-123900000D02*
X153885714Y-123861904D01*
X154000000Y-123861904D01*
X154114285Y-123900000D01*
X154190476Y-123976190D01*
X154228571Y-124052380D01*
X154266666Y-124204761D01*
X154266666Y-124319047D01*
X154228571Y-124471428D01*
X154190476Y-124547619D01*
X154114285Y-124623809D01*
X154000000Y-124661904D01*
X153923809Y-124661904D01*
X153809523Y-124623809D01*
X153771428Y-124585714D01*
X153771428Y-124319047D01*
X153923809Y-124319047D01*
X153428571Y-124661904D02*
X153428571Y-123861904D01*
X152971428Y-124661904D01*
X152971428Y-123861904D01*
X152590476Y-124661904D02*
X152590476Y-123861904D01*
X152400000Y-123861904D01*
X152285714Y-123900000D01*
X152209523Y-123976190D01*
X152171428Y-124052380D01*
X152133333Y-124204761D01*
X152133333Y-124319047D01*
X152171428Y-124471428D01*
X152209523Y-124547619D01*
X152285714Y-124623809D01*
X152400000Y-124661904D01*
X152590476Y-124661904D01*
D11*
X151800000Y-115600000D02*
X151800000Y-125500000D01*
D12*
X151152380Y-117704761D02*
X150152380Y-117704761D01*
X150152380Y-117942857D01*
X150200000Y-118085714D01*
X150295238Y-118180952D01*
X150390476Y-118228571D01*
X150580952Y-118276190D01*
X150723809Y-118276190D01*
X150914285Y-118228571D01*
X151009523Y-118180952D01*
X151104761Y-118085714D01*
X151152380Y-117942857D01*
X151152380Y-117704761D01*
X151152380Y-118704761D02*
X150152380Y-118704761D01*
X151152380Y-119180952D02*
X150152380Y-119180952D01*
X150866666Y-119514285D01*
X150152380Y-119847619D01*
X151152380Y-119847619D01*
X151152380Y-120323809D02*
X150152380Y-120323809D01*
X150866666Y-120657142D01*
X150152380Y-120990476D01*
X151152380Y-120990476D01*
X150628571Y-121466666D02*
X150628571Y-121800000D01*
X151152380Y-121942857D02*
X151152380Y-121466666D01*
X150152380Y-121466666D01*
X150152380Y-121942857D01*
X151152380Y-122942857D02*
X150676190Y-122609523D01*
X151152380Y-122371428D02*
X150152380Y-122371428D01*
X150152380Y-122752380D01*
X150200000Y-122847619D01*
X150247619Y-122895238D01*
X150342857Y-122942857D01*
X150485714Y-122942857D01*
X150580952Y-122895238D01*
X150628571Y-122847619D01*
X150676190Y-122752380D01*
X150676190Y-122371428D01*
D10*
X154160476Y-121136904D02*
X153665238Y-121136904D01*
X153931904Y-121441666D01*
X153817619Y-121441666D01*
X153741428Y-121479761D01*
X153703333Y-121517857D01*
X153665238Y-121594047D01*
X153665238Y-121784523D01*
X153703333Y-121860714D01*
X153741428Y-121898809D01*
X153817619Y-121936904D01*
X154046190Y-121936904D01*
X154122380Y-121898809D01*
X154160476Y-121860714D01*
X153436666Y-121136904D02*
X153170000Y-121936904D01*
X152903333Y-121136904D01*
X152712857Y-121136904D02*
X152217619Y-121136904D01*
X152484285Y-121441666D01*
X152370000Y-121441666D01*
X152293809Y-121479761D01*
X152255714Y-121517857D01*
X152217619Y-121594047D01*
X152217619Y-121784523D01*
X152255714Y-121860714D01*
X152293809Y-121898809D01*
X152370000Y-121936904D01*
X152598571Y-121936904D01*
X152674761Y-121898809D01*
X152712857Y-121860714D01*
X153970000Y-118736904D02*
X153817619Y-118736904D01*
X153741428Y-118775000D01*
X153665238Y-118851190D01*
X153627142Y-119003571D01*
X153627142Y-119270238D01*
X153665238Y-119422619D01*
X153741428Y-119498809D01*
X153817619Y-119536904D01*
X153970000Y-119536904D01*
X154046190Y-119498809D01*
X154122380Y-119422619D01*
X154160476Y-119270238D01*
X154160476Y-119003571D01*
X154122380Y-118851190D01*
X154046190Y-118775000D01*
X153970000Y-118736904D01*
X153284285Y-118736904D02*
X153284285Y-119384523D01*
X153246190Y-119460714D01*
X153208095Y-119498809D01*
X153131904Y-119536904D01*
X152979523Y-119536904D01*
X152903333Y-119498809D01*
X152865238Y-119460714D01*
X152827142Y-119384523D01*
X152827142Y-118736904D01*
X152560476Y-118736904D02*
X152103333Y-118736904D01*
X152331904Y-119536904D02*
X152331904Y-118736904D01*
D11*
X151800000Y-104900000D02*
X151800000Y-112600000D01*
D10*
X153779523Y-86075000D02*
X153855714Y-86036904D01*
X153970000Y-86036904D01*
X154084285Y-86075000D01*
X154160476Y-86151190D01*
X154198571Y-86227380D01*
X154236666Y-86379761D01*
X154236666Y-86494047D01*
X154198571Y-86646428D01*
X154160476Y-86722619D01*
X154084285Y-86798809D01*
X153970000Y-86836904D01*
X153893809Y-86836904D01*
X153779523Y-86798809D01*
X153741428Y-86760714D01*
X153741428Y-86494047D01*
X153893809Y-86494047D01*
X153398571Y-86836904D02*
X153398571Y-86036904D01*
X152941428Y-86836904D01*
X152941428Y-86036904D01*
X152560476Y-86836904D02*
X152560476Y-86036904D01*
X152370000Y-86036904D01*
X152255714Y-86075000D01*
X152179523Y-86151190D01*
X152141428Y-86227380D01*
X152103333Y-86379761D01*
X152103333Y-86494047D01*
X152141428Y-86646428D01*
X152179523Y-86722619D01*
X152255714Y-86798809D01*
X152370000Y-86836904D01*
X152560476Y-86836904D01*
X154122380Y-81798809D02*
X154008095Y-81836904D01*
X153817619Y-81836904D01*
X153741428Y-81798809D01*
X153703333Y-81760714D01*
X153665238Y-81684523D01*
X153665238Y-81608333D01*
X153703333Y-81532142D01*
X153741428Y-81494047D01*
X153817619Y-81455952D01*
X153970000Y-81417857D01*
X154046190Y-81379761D01*
X154084285Y-81341666D01*
X154122380Y-81265476D01*
X154122380Y-81189285D01*
X154084285Y-81113095D01*
X154046190Y-81075000D01*
X153970000Y-81036904D01*
X153779523Y-81036904D01*
X153665238Y-81075000D01*
X152865238Y-81760714D02*
X152903333Y-81798809D01*
X153017619Y-81836904D01*
X153093809Y-81836904D01*
X153208095Y-81798809D01*
X153284285Y-81722619D01*
X153322380Y-81646428D01*
X153360476Y-81494047D01*
X153360476Y-81379761D01*
X153322380Y-81227380D01*
X153284285Y-81151190D01*
X153208095Y-81075000D01*
X153093809Y-81036904D01*
X153017619Y-81036904D01*
X152903333Y-81075000D01*
X152865238Y-81113095D01*
X152141428Y-81836904D02*
X152522380Y-81836904D01*
X152522380Y-81036904D01*
X153703333Y-100936904D02*
X153970000Y-100555952D01*
X154160476Y-100936904D02*
X154160476Y-100136904D01*
X153855714Y-100136904D01*
X153779523Y-100175000D01*
X153741428Y-100213095D01*
X153703333Y-100289285D01*
X153703333Y-100403571D01*
X153741428Y-100479761D01*
X153779523Y-100517857D01*
X153855714Y-100555952D01*
X154160476Y-100555952D01*
X153436666Y-100136904D02*
X152903333Y-100936904D01*
X152903333Y-100136904D02*
X153436666Y-100936904D01*
X152598571Y-100936904D02*
X152598571Y-100136904D01*
X152408095Y-100136904D01*
X152293809Y-100175000D01*
X152217619Y-100251190D01*
X152179523Y-100327380D01*
X152141428Y-100479761D01*
X152141428Y-100594047D01*
X152179523Y-100746428D01*
X152217619Y-100822619D01*
X152293809Y-100898809D01*
X152408095Y-100936904D01*
X152598571Y-100936904D01*
D12*
X137246666Y-116128571D02*
X136913333Y-116128571D01*
X136770476Y-116652380D02*
X137246666Y-116652380D01*
X137246666Y-115652380D01*
X136770476Y-115652380D01*
X136389523Y-116604761D02*
X136246666Y-116652380D01*
X136008571Y-116652380D01*
X135913333Y-116604761D01*
X135865714Y-116557142D01*
X135818095Y-116461904D01*
X135818095Y-116366666D01*
X135865714Y-116271428D01*
X135913333Y-116223809D01*
X136008571Y-116176190D01*
X136199047Y-116128571D01*
X136294285Y-116080952D01*
X136341904Y-116033333D01*
X136389523Y-115938095D01*
X136389523Y-115842857D01*
X136341904Y-115747619D01*
X136294285Y-115700000D01*
X136199047Y-115652380D01*
X135960952Y-115652380D01*
X135818095Y-115700000D01*
X135389523Y-116652380D02*
X135389523Y-115652380D01*
X135008571Y-115652380D01*
X134913333Y-115700000D01*
X134865714Y-115747619D01*
X134818095Y-115842857D01*
X134818095Y-115985714D01*
X134865714Y-116080952D01*
X134913333Y-116128571D01*
X135008571Y-116176190D01*
X135389523Y-116176190D01*
X134484761Y-115652380D02*
X133865714Y-115652380D01*
X134199047Y-116033333D01*
X134056190Y-116033333D01*
X133960952Y-116080952D01*
X133913333Y-116128571D01*
X133865714Y-116223809D01*
X133865714Y-116461904D01*
X133913333Y-116557142D01*
X133960952Y-116604761D01*
X134056190Y-116652380D01*
X134341904Y-116652380D01*
X134437142Y-116604761D01*
X134484761Y-116557142D01*
X133484761Y-115747619D02*
X133437142Y-115700000D01*
X133341904Y-115652380D01*
X133103809Y-115652380D01*
X133008571Y-115700000D01*
X132960952Y-115747619D01*
X132913333Y-115842857D01*
X132913333Y-115938095D01*
X132960952Y-116080952D01*
X133532380Y-116652380D01*
X132913333Y-116652380D01*
X132484761Y-116271428D02*
X131722857Y-116271428D01*
X130675238Y-116652380D02*
X131008571Y-116176190D01*
X131246666Y-116652380D02*
X131246666Y-115652380D01*
X130865714Y-115652380D01*
X130770476Y-115700000D01*
X130722857Y-115747619D01*
X130675238Y-115842857D01*
X130675238Y-115985714D01*
X130722857Y-116080952D01*
X130770476Y-116128571D01*
X130865714Y-116176190D01*
X131246666Y-116176190D01*
X129865714Y-116604761D02*
X129960952Y-116652380D01*
X130151428Y-116652380D01*
X130246666Y-116604761D01*
X130294285Y-116509523D01*
X130294285Y-116128571D01*
X130246666Y-116033333D01*
X130151428Y-115985714D01*
X129960952Y-115985714D01*
X129865714Y-116033333D01*
X129818095Y-116128571D01*
X129818095Y-116223809D01*
X130294285Y-116319047D01*
X129532380Y-115985714D02*
X129151428Y-115985714D01*
X129389523Y-116652380D02*
X129389523Y-115795238D01*
X129341904Y-115700000D01*
X129246666Y-115652380D01*
X129151428Y-115652380D01*
X128675238Y-116652380D02*
X128770476Y-116604761D01*
X128818095Y-116509523D01*
X128818095Y-115652380D01*
X128151428Y-116652380D02*
X128246666Y-116604761D01*
X128294285Y-116557142D01*
X128341904Y-116461904D01*
X128341904Y-116176190D01*
X128294285Y-116080952D01*
X128246666Y-116033333D01*
X128151428Y-115985714D01*
X128008571Y-115985714D01*
X127913333Y-116033333D01*
X127865714Y-116080952D01*
X127818095Y-116176190D01*
X127818095Y-116461904D01*
X127865714Y-116557142D01*
X127913333Y-116604761D01*
X128008571Y-116652380D01*
X128151428Y-116652380D01*
X127484761Y-115985714D02*
X127294285Y-116652380D01*
X127103809Y-116176190D01*
X126913333Y-116652380D01*
X126722857Y-115985714D01*
X151174761Y-94515476D02*
X151222380Y-94658333D01*
X151222380Y-94896428D01*
X151174761Y-94991666D01*
X151127142Y-95039285D01*
X151031904Y-95086904D01*
X150936666Y-95086904D01*
X150841428Y-95039285D01*
X150793809Y-94991666D01*
X150746190Y-94896428D01*
X150698571Y-94705952D01*
X150650952Y-94610714D01*
X150603333Y-94563095D01*
X150508095Y-94515476D01*
X150412857Y-94515476D01*
X150317619Y-94563095D01*
X150270000Y-94610714D01*
X150222380Y-94705952D01*
X150222380Y-94944047D01*
X150270000Y-95086904D01*
X150698571Y-95515476D02*
X150698571Y-95848809D01*
X151222380Y-95991666D02*
X151222380Y-95515476D01*
X150222380Y-95515476D01*
X150222380Y-95991666D01*
X151222380Y-96991666D02*
X150746190Y-96658333D01*
X151222380Y-96420238D02*
X150222380Y-96420238D01*
X150222380Y-96801190D01*
X150270000Y-96896428D01*
X150317619Y-96944047D01*
X150412857Y-96991666D01*
X150555714Y-96991666D01*
X150650952Y-96944047D01*
X150698571Y-96896428D01*
X150746190Y-96801190D01*
X150746190Y-96420238D01*
X151222380Y-97420238D02*
X150222380Y-97420238D01*
X150936666Y-97848809D02*
X150936666Y-98325000D01*
X151222380Y-97753571D02*
X150222380Y-98086904D01*
X151222380Y-98420238D01*
X151222380Y-99229761D02*
X151222380Y-98753571D01*
X150222380Y-98753571D01*
X150322380Y-81679761D02*
X150322380Y-82251190D01*
X151322380Y-81965476D02*
X150322380Y-81965476D01*
X150322380Y-82489285D02*
X151322380Y-82727380D01*
X150608095Y-82917857D01*
X151322380Y-83108333D01*
X150322380Y-83346428D01*
X151322380Y-83727380D02*
X150322380Y-83727380D01*
D10*
X154179523Y-97636904D02*
X153722380Y-97636904D01*
X153950952Y-98436904D02*
X153950952Y-97636904D01*
X153531904Y-97636904D02*
X152998571Y-98436904D01*
X152998571Y-97636904D02*
X153531904Y-98436904D01*
X152693809Y-98436904D02*
X152693809Y-97636904D01*
X152503333Y-97636904D01*
X152389047Y-97675000D01*
X152312857Y-97751190D01*
X152274761Y-97827380D01*
X152236666Y-97979761D01*
X152236666Y-98094047D01*
X152274761Y-98246428D01*
X152312857Y-98322619D01*
X152389047Y-98398809D01*
X152503333Y-98436904D01*
X152693809Y-98436904D01*
X154160476Y-92636904D02*
X153665238Y-92636904D01*
X153931904Y-92941666D01*
X153817619Y-92941666D01*
X153741428Y-92979761D01*
X153703333Y-93017857D01*
X153665238Y-93094047D01*
X153665238Y-93284523D01*
X153703333Y-93360714D01*
X153741428Y-93398809D01*
X153817619Y-93436904D01*
X154046190Y-93436904D01*
X154122380Y-93398809D01*
X154160476Y-93360714D01*
X153436666Y-92636904D02*
X153170000Y-93436904D01*
X152903333Y-92636904D01*
X152712857Y-92636904D02*
X152217619Y-92636904D01*
X152484285Y-92941666D01*
X152370000Y-92941666D01*
X152293809Y-92979761D01*
X152255714Y-93017857D01*
X152217619Y-93094047D01*
X152217619Y-93284523D01*
X152255714Y-93360714D01*
X152293809Y-93398809D01*
X152370000Y-93436904D01*
X152598571Y-93436904D01*
X152674761Y-93398809D01*
X152712857Y-93360714D01*
X153741428Y-110108333D02*
X153360476Y-110108333D01*
X153817619Y-110336904D02*
X153550952Y-109536904D01*
X153284285Y-110336904D01*
X152865238Y-109536904D02*
X152789047Y-109536904D01*
X152712857Y-109575000D01*
X152674761Y-109613095D01*
X152636666Y-109689285D01*
X152598571Y-109841666D01*
X152598571Y-110032142D01*
X152636666Y-110184523D01*
X152674761Y-110260714D01*
X152712857Y-110298809D01*
X152789047Y-110336904D01*
X152865238Y-110336904D01*
X152941428Y-110298809D01*
X152979523Y-110260714D01*
X153017619Y-110184523D01*
X153055714Y-110032142D01*
X153055714Y-109841666D01*
X153017619Y-109689285D01*
X152979523Y-109613095D01*
X152941428Y-109575000D01*
X152865238Y-109536904D01*
X153779523Y-107175000D02*
X153855714Y-107136904D01*
X153970000Y-107136904D01*
X154084285Y-107175000D01*
X154160476Y-107251190D01*
X154198571Y-107327380D01*
X154236666Y-107479761D01*
X154236666Y-107594047D01*
X154198571Y-107746428D01*
X154160476Y-107822619D01*
X154084285Y-107898809D01*
X153970000Y-107936904D01*
X153893809Y-107936904D01*
X153779523Y-107898809D01*
X153741428Y-107860714D01*
X153741428Y-107594047D01*
X153893809Y-107594047D01*
X153398571Y-107936904D02*
X153398571Y-107136904D01*
X152941428Y-107936904D01*
X152941428Y-107136904D01*
X152560476Y-107936904D02*
X152560476Y-107136904D01*
X152370000Y-107136904D01*
X152255714Y-107175000D01*
X152179523Y-107251190D01*
X152141428Y-107327380D01*
X152103333Y-107479761D01*
X152103333Y-107594047D01*
X152141428Y-107746428D01*
X152179523Y-107822619D01*
X152255714Y-107898809D01*
X152370000Y-107936904D01*
X152560476Y-107936904D01*
D12*
X136951428Y-118128571D02*
X137284761Y-118128571D01*
X137284761Y-118652380D02*
X137284761Y-117652380D01*
X136808571Y-117652380D01*
X136427619Y-118557142D02*
X136380000Y-118604761D01*
X136427619Y-118652380D01*
X136475238Y-118604761D01*
X136427619Y-118557142D01*
X136427619Y-118652380D01*
X134856190Y-118128571D02*
X134713333Y-118176190D01*
X134665714Y-118223809D01*
X134618095Y-118319047D01*
X134618095Y-118461904D01*
X134665714Y-118557142D01*
X134713333Y-118604761D01*
X134808571Y-118652380D01*
X135189523Y-118652380D01*
X135189523Y-117652380D01*
X134856190Y-117652380D01*
X134760952Y-117700000D01*
X134713333Y-117747619D01*
X134665714Y-117842857D01*
X134665714Y-117938095D01*
X134713333Y-118033333D01*
X134760952Y-118080952D01*
X134856190Y-118128571D01*
X135189523Y-118128571D01*
X133760952Y-117985714D02*
X133760952Y-118652380D01*
X134189523Y-117985714D02*
X134189523Y-118509523D01*
X134141904Y-118604761D01*
X134046666Y-118652380D01*
X133903809Y-118652380D01*
X133808571Y-118604761D01*
X133760952Y-118557142D01*
X133141904Y-118652380D02*
X133237142Y-118604761D01*
X133284761Y-118509523D01*
X133284761Y-117652380D01*
X132903809Y-117985714D02*
X132522857Y-117985714D01*
X132760952Y-117652380D02*
X132760952Y-118509523D01*
X132713333Y-118604761D01*
X132618095Y-118652380D01*
X132522857Y-118652380D01*
X132189523Y-118652380D02*
X132189523Y-117985714D01*
X132189523Y-118080952D02*
X132141904Y-118033333D01*
X132046666Y-117985714D01*
X131903809Y-117985714D01*
X131808571Y-118033333D01*
X131760952Y-118128571D01*
X131760952Y-118652380D01*
X131760952Y-118128571D02*
X131713333Y-118033333D01*
X131618095Y-117985714D01*
X131475238Y-117985714D01*
X131380000Y-118033333D01*
X131332380Y-118128571D01*
X131332380Y-118652380D01*
X130427619Y-118652380D02*
X130427619Y-118128571D01*
X130475238Y-118033333D01*
X130570476Y-117985714D01*
X130760952Y-117985714D01*
X130856190Y-118033333D01*
X130427619Y-118604761D02*
X130522857Y-118652380D01*
X130760952Y-118652380D01*
X130856190Y-118604761D01*
X130903809Y-118509523D01*
X130903809Y-118414285D01*
X130856190Y-118319047D01*
X130760952Y-118271428D01*
X130522857Y-118271428D01*
X130427619Y-118223809D01*
X129951428Y-117985714D02*
X129951428Y-118652380D01*
X129951428Y-118080952D02*
X129903809Y-118033333D01*
X129808571Y-117985714D01*
X129665714Y-117985714D01*
X129570476Y-118033333D01*
X129522857Y-118128571D01*
X129522857Y-118652380D01*
X129046666Y-117985714D02*
X129046666Y-118652380D01*
X129046666Y-118080952D02*
X128999047Y-118033333D01*
X128903809Y-117985714D01*
X128760952Y-117985714D01*
X128665714Y-118033333D01*
X128618095Y-118128571D01*
X128618095Y-118652380D01*
X127094285Y-117652380D02*
X127094285Y-118366666D01*
X127141904Y-118509523D01*
X127237142Y-118604761D01*
X127380000Y-118652380D01*
X127475238Y-118652380D01*
X126189523Y-117985714D02*
X126189523Y-118652380D01*
X126618095Y-117985714D02*
X126618095Y-118509523D01*
X126570476Y-118604761D01*
X126475238Y-118652380D01*
X126332380Y-118652380D01*
X126237142Y-118604761D01*
X126189523Y-118557142D01*
X125570476Y-118652380D02*
X125665714Y-118604761D01*
X125713333Y-118509523D01*
X125713333Y-117652380D01*
X125189523Y-118652380D02*
X125189523Y-117985714D01*
X125189523Y-117652380D02*
X125237142Y-117700000D01*
X125189523Y-117747619D01*
X125141904Y-117700000D01*
X125189523Y-117652380D01*
X125189523Y-117747619D01*
X123999047Y-117747619D02*
X123951428Y-117700000D01*
X123856190Y-117652380D01*
X123618095Y-117652380D01*
X123522857Y-117700000D01*
X123475238Y-117747619D01*
X123427619Y-117842857D01*
X123427619Y-117938095D01*
X123475238Y-118080952D01*
X124046666Y-118652380D01*
X123427619Y-118652380D01*
X122808571Y-117652380D02*
X122713333Y-117652380D01*
X122618095Y-117700000D01*
X122570476Y-117747619D01*
X122522857Y-117842857D01*
X122475238Y-118033333D01*
X122475238Y-118271428D01*
X122522857Y-118461904D01*
X122570476Y-118557142D01*
X122618095Y-118604761D01*
X122713333Y-118652380D01*
X122808571Y-118652380D01*
X122903809Y-118604761D01*
X122951428Y-118557142D01*
X122999047Y-118461904D01*
X123046666Y-118271428D01*
X123046666Y-118033333D01*
X122999047Y-117842857D01*
X122951428Y-117747619D01*
X122903809Y-117700000D01*
X122808571Y-117652380D01*
X122094285Y-117747619D02*
X122046666Y-117700000D01*
X121951428Y-117652380D01*
X121713333Y-117652380D01*
X121618095Y-117700000D01*
X121570476Y-117747619D01*
X121522857Y-117842857D01*
X121522857Y-117938095D01*
X121570476Y-118080952D01*
X122141904Y-118652380D01*
X121522857Y-118652380D01*
X120570476Y-118652380D02*
X121141904Y-118652380D01*
X120856190Y-118652380D02*
X120856190Y-117652380D01*
X120951428Y-117795238D01*
X121046666Y-117890476D01*
X121141904Y-117938095D01*
D10*
X112036666Y-81136904D02*
X111770000Y-81936904D01*
X111503333Y-81136904D01*
X110779523Y-81860714D02*
X110817619Y-81898809D01*
X110931904Y-81936904D01*
X111008095Y-81936904D01*
X111122380Y-81898809D01*
X111198571Y-81822619D01*
X111236666Y-81746428D01*
X111274761Y-81594047D01*
X111274761Y-81479761D01*
X111236666Y-81327380D01*
X111198571Y-81251190D01*
X111122380Y-81175000D01*
X111008095Y-81136904D01*
X110931904Y-81136904D01*
X110817619Y-81175000D01*
X110779523Y-81213095D01*
X109979523Y-81860714D02*
X110017619Y-81898809D01*
X110131904Y-81936904D01*
X110208095Y-81936904D01*
X110322380Y-81898809D01*
X110398571Y-81822619D01*
X110436666Y-81746428D01*
X110474761Y-81594047D01*
X110474761Y-81479761D01*
X110436666Y-81327380D01*
X110398571Y-81251190D01*
X110322380Y-81175000D01*
X110208095Y-81136904D01*
X110131904Y-81136904D01*
X110017619Y-81175000D01*
X109979523Y-81213095D01*
X154141428Y-84298809D02*
X154027142Y-84336904D01*
X153836666Y-84336904D01*
X153760476Y-84298809D01*
X153722380Y-84260714D01*
X153684285Y-84184523D01*
X153684285Y-84108333D01*
X153722380Y-84032142D01*
X153760476Y-83994047D01*
X153836666Y-83955952D01*
X153989047Y-83917857D01*
X154065238Y-83879761D01*
X154103333Y-83841666D01*
X154141428Y-83765476D01*
X154141428Y-83689285D01*
X154103333Y-83613095D01*
X154065238Y-83575000D01*
X153989047Y-83536904D01*
X153798571Y-83536904D01*
X153684285Y-83575000D01*
X153341428Y-84336904D02*
X153341428Y-83536904D01*
X153150952Y-83536904D01*
X153036666Y-83575000D01*
X152960476Y-83651190D01*
X152922380Y-83727380D01*
X152884285Y-83879761D01*
X152884285Y-83994047D01*
X152922380Y-84146428D01*
X152960476Y-84222619D01*
X153036666Y-84298809D01*
X153150952Y-84336904D01*
X153341428Y-84336904D01*
X152579523Y-84108333D02*
X152198571Y-84108333D01*
X152655714Y-84336904D02*
X152389047Y-83536904D01*
X152122380Y-84336904D01*
X111579523Y-78675000D02*
X111655714Y-78636904D01*
X111770000Y-78636904D01*
X111884285Y-78675000D01*
X111960476Y-78751190D01*
X111998571Y-78827380D01*
X112036666Y-78979761D01*
X112036666Y-79094047D01*
X111998571Y-79246428D01*
X111960476Y-79322619D01*
X111884285Y-79398809D01*
X111770000Y-79436904D01*
X111693809Y-79436904D01*
X111579523Y-79398809D01*
X111541428Y-79360714D01*
X111541428Y-79094047D01*
X111693809Y-79094047D01*
X111198571Y-79436904D02*
X111198571Y-78636904D01*
X110741428Y-79436904D01*
X110741428Y-78636904D01*
X110360476Y-79436904D02*
X110360476Y-78636904D01*
X110170000Y-78636904D01*
X110055714Y-78675000D01*
X109979523Y-78751190D01*
X109941428Y-78827380D01*
X109903333Y-78979761D01*
X109903333Y-79094047D01*
X109941428Y-79246428D01*
X109979523Y-79322619D01*
X110055714Y-79398809D01*
X110170000Y-79436904D01*
X110360476Y-79436904D01*
D12*
X150152380Y-104247619D02*
X150152380Y-104819047D01*
X151152380Y-104533333D02*
X150152380Y-104533333D01*
X151152380Y-105152380D02*
X150152380Y-105152380D01*
X150628571Y-105152380D02*
X150628571Y-105723809D01*
X151152380Y-105723809D02*
X150152380Y-105723809D01*
X150628571Y-106200000D02*
X150628571Y-106533333D01*
X151152380Y-106676190D02*
X151152380Y-106200000D01*
X150152380Y-106200000D01*
X150152380Y-106676190D01*
X151152380Y-107676190D02*
X150676190Y-107342857D01*
X151152380Y-107104761D02*
X150152380Y-107104761D01*
X150152380Y-107485714D01*
X150200000Y-107580952D01*
X150247619Y-107628571D01*
X150342857Y-107676190D01*
X150485714Y-107676190D01*
X150580952Y-107628571D01*
X150628571Y-107580952D01*
X150676190Y-107485714D01*
X150676190Y-107104761D01*
X151152380Y-108104761D02*
X150152380Y-108104761D01*
X150866666Y-108438095D01*
X150152380Y-108771428D01*
X151152380Y-108771428D01*
X151152380Y-109247619D02*
X150152380Y-109247619D01*
X151104761Y-109676190D02*
X151152380Y-109819047D01*
X151152380Y-110057142D01*
X151104761Y-110152380D01*
X151057142Y-110200000D01*
X150961904Y-110247619D01*
X150866666Y-110247619D01*
X150771428Y-110200000D01*
X150723809Y-110152380D01*
X150676190Y-110057142D01*
X150628571Y-109866666D01*
X150580952Y-109771428D01*
X150533333Y-109723809D01*
X150438095Y-109676190D01*
X150342857Y-109676190D01*
X150247619Y-109723809D01*
X150200000Y-109771428D01*
X150152380Y-109866666D01*
X150152380Y-110104761D01*
X150200000Y-110247619D01*
X150152380Y-110533333D02*
X150152380Y-111104761D01*
X151152380Y-110819047D02*
X150152380Y-110819047D01*
X150152380Y-111628571D02*
X150152380Y-111819047D01*
X150200000Y-111914285D01*
X150295238Y-112009523D01*
X150485714Y-112057142D01*
X150819047Y-112057142D01*
X151009523Y-112009523D01*
X151104761Y-111914285D01*
X151152380Y-111819047D01*
X151152380Y-111628571D01*
X151104761Y-111533333D01*
X151009523Y-111438095D01*
X150819047Y-111390476D01*
X150485714Y-111390476D01*
X150295238Y-111438095D01*
X150200000Y-111533333D01*
X150152380Y-111628571D01*
X151152380Y-113057142D02*
X150676190Y-112723809D01*
X151152380Y-112485714D02*
X150152380Y-112485714D01*
X150152380Y-112866666D01*
X150200000Y-112961904D01*
X150247619Y-113009523D01*
X150342857Y-113057142D01*
X150485714Y-113057142D01*
X150580952Y-113009523D01*
X150628571Y-112961904D01*
X150676190Y-112866666D01*
X150676190Y-112485714D01*
D10*
X153779523Y-95175000D02*
X153855714Y-95136904D01*
X153970000Y-95136904D01*
X154084285Y-95175000D01*
X154160476Y-95251190D01*
X154198571Y-95327380D01*
X154236666Y-95479761D01*
X154236666Y-95594047D01*
X154198571Y-95746428D01*
X154160476Y-95822619D01*
X154084285Y-95898809D01*
X153970000Y-95936904D01*
X153893809Y-95936904D01*
X153779523Y-95898809D01*
X153741428Y-95860714D01*
X153741428Y-95594047D01*
X153893809Y-95594047D01*
X153398571Y-95936904D02*
X153398571Y-95136904D01*
X152941428Y-95936904D01*
X152941428Y-95136904D01*
X152560476Y-95936904D02*
X152560476Y-95136904D01*
X152370000Y-95136904D01*
X152255714Y-95175000D01*
X152179523Y-95251190D01*
X152141428Y-95327380D01*
X152103333Y-95479761D01*
X152103333Y-95594047D01*
X152141428Y-95746428D01*
X152179523Y-95822619D01*
X152255714Y-95898809D01*
X152370000Y-95936904D01*
X152560476Y-95936904D01*
D12*
X112817619Y-82684523D02*
X113817619Y-82684523D01*
X113817619Y-82303571D01*
X113770000Y-82208333D01*
X113722380Y-82160714D01*
X113627142Y-82113095D01*
X113484285Y-82113095D01*
X113389047Y-82160714D01*
X113341428Y-82208333D01*
X113293809Y-82303571D01*
X113293809Y-82684523D01*
X113817619Y-81494047D02*
X113817619Y-81303571D01*
X113770000Y-81208333D01*
X113674761Y-81113095D01*
X113484285Y-81065476D01*
X113150952Y-81065476D01*
X112960476Y-81113095D01*
X112865238Y-81208333D01*
X112817619Y-81303571D01*
X112817619Y-81494047D01*
X112865238Y-81589285D01*
X112960476Y-81684523D01*
X113150952Y-81732142D01*
X113484285Y-81732142D01*
X113674761Y-81684523D01*
X113770000Y-81589285D01*
X113817619Y-81494047D01*
X113817619Y-80732142D02*
X112817619Y-80494047D01*
X113531904Y-80303571D01*
X112817619Y-80113095D01*
X113817619Y-79875000D01*
X113341428Y-79494047D02*
X113341428Y-79160714D01*
X112817619Y-79017857D02*
X112817619Y-79494047D01*
X113817619Y-79494047D01*
X113817619Y-79017857D01*
X112817619Y-78017857D02*
X113293809Y-78351190D01*
X112817619Y-78589285D02*
X113817619Y-78589285D01*
X113817619Y-78208333D01*
X113770000Y-78113095D01*
X113722380Y-78065476D01*
X113627142Y-78017857D01*
X113484285Y-78017857D01*
X113389047Y-78065476D01*
X113341428Y-78113095D01*
X113293809Y-78208333D01*
X113293809Y-78589285D01*
D11*
X112400000Y-76575000D02*
X112400000Y-84175000D01*
X151770000Y-91875000D02*
X151770000Y-101775000D01*
X138250000Y-119200000D02*
X119750000Y-119200000D01*
X151770000Y-77875000D02*
X151770000Y-87675000D01*
D10*
X154160476Y-78536904D02*
X153665238Y-78536904D01*
X153931904Y-78841666D01*
X153817619Y-78841666D01*
X153741428Y-78879761D01*
X153703333Y-78917857D01*
X153665238Y-78994047D01*
X153665238Y-79184523D01*
X153703333Y-79260714D01*
X153741428Y-79298809D01*
X153817619Y-79336904D01*
X154046190Y-79336904D01*
X154122380Y-79298809D01*
X154160476Y-79260714D01*
X153436666Y-78536904D02*
X153170000Y-79336904D01*
X152903333Y-78536904D01*
X152712857Y-78536904D02*
X152217619Y-78536904D01*
X152484285Y-78841666D01*
X152370000Y-78841666D01*
X152293809Y-78879761D01*
X152255714Y-78917857D01*
X152217619Y-78994047D01*
X152217619Y-79184523D01*
X152255714Y-79260714D01*
X152293809Y-79298809D01*
X152370000Y-79336904D01*
X152598571Y-79336904D01*
X152674761Y-79298809D01*
X152712857Y-79260714D01*
D13*
%TO.C,REF\u002A\u002A*%
X135927906Y-123491158D02*
X135895381Y-123503736D01*
X135895381Y-123503736D02*
X135845807Y-123528712D01*
X135845807Y-123528712D02*
X135774626Y-123567876D01*
X135774626Y-123567876D02*
X135769084Y-123570988D01*
X135769084Y-123570988D02*
X135703526Y-123608476D01*
X135703526Y-123608476D02*
X135648202Y-123641319D01*
X135648202Y-123641319D02*
X135608545Y-123666205D01*
X135608545Y-123666205D02*
X135589988Y-123679820D01*
X135589988Y-123679820D02*
X135589469Y-123680487D01*
X135589469Y-123680487D02*
X135593952Y-123699390D01*
X135593952Y-123699390D02*
X135614514Y-123741605D01*
X135614514Y-123741605D02*
X135649817Y-123804832D01*
X135649817Y-123804832D02*
X135698520Y-123886772D01*
X135698520Y-123886772D02*
X135759282Y-123985122D01*
X135759282Y-123985122D02*
X135830764Y-124097585D01*
X135830764Y-124097585D02*
X135848555Y-124125165D01*
X135848555Y-124125165D02*
X135894907Y-124201699D01*
X135894907Y-124201699D02*
X135928658Y-124267556D01*
X135928658Y-124267556D02*
X135946847Y-124316782D01*
X135946847Y-124316782D02*
X135948714Y-124326507D01*
X135948714Y-124326507D02*
X135947885Y-124369312D01*
X135947885Y-124369312D02*
X135938606Y-124437209D01*
X135938606Y-124437209D02*
X135922032Y-124525843D01*
X135922032Y-124525843D02*
X135899320Y-124630859D01*
X135899320Y-124630859D02*
X135871627Y-124747902D01*
X135871627Y-124747902D02*
X135840110Y-124872616D01*
X135840110Y-124872616D02*
X135805925Y-125000645D01*
X135805925Y-125000645D02*
X135770229Y-125127634D01*
X135770229Y-125127634D02*
X135734179Y-125249228D01*
X135734179Y-125249228D02*
X135698932Y-125361072D01*
X135698932Y-125361072D02*
X135665644Y-125458810D01*
X135665644Y-125458810D02*
X135635472Y-125538087D01*
X135635472Y-125538087D02*
X135614439Y-125585122D01*
X135614439Y-125585122D02*
X135589663Y-125635225D01*
X135589663Y-125635225D02*
X135566270Y-125683168D01*
X135566270Y-125683168D02*
X135565003Y-125685793D01*
X135565003Y-125685793D02*
X135526301Y-125734220D01*
X135526301Y-125734220D02*
X135469816Y-125766828D01*
X135469816Y-125766828D02*
X135404061Y-125782454D01*
X135404061Y-125782454D02*
X135337549Y-125779937D01*
X135337549Y-125779937D02*
X135278795Y-125758114D01*
X135278795Y-125758114D02*
X135245742Y-125729382D01*
X135245742Y-125729382D02*
X135198141Y-125650583D01*
X135198141Y-125650583D02*
X135163261Y-125552378D01*
X135163261Y-125552378D02*
X135144123Y-125444779D01*
X135144123Y-125444779D02*
X135141412Y-125383780D01*
X135141412Y-125383780D02*
X135152330Y-125269935D01*
X135152330Y-125269935D02*
X135184376Y-125175660D01*
X135184376Y-125175660D02*
X135239274Y-125096379D01*
X135239274Y-125096379D02*
X135256393Y-125078733D01*
X135256393Y-125078733D02*
X135307339Y-125029235D01*
X135307339Y-125029235D02*
X135310837Y-124679362D01*
X135310837Y-124679362D02*
X135314336Y-124329489D01*
X135314336Y-124329489D02*
X135225182Y-124194531D01*
X135225182Y-124194531D02*
X135183346Y-124133445D01*
X135183346Y-124133445D02*
X135143055Y-124078493D01*
X135143055Y-124078493D02*
X135110057Y-124037336D01*
X135110057Y-124037336D02*
X135095874Y-124022192D01*
X135095874Y-124022192D02*
X135055719Y-123984810D01*
X135055719Y-123984810D02*
X135001335Y-124014098D01*
X135001335Y-124014098D02*
X134966961Y-124035084D01*
X134966961Y-124035084D02*
X134948154Y-124051378D01*
X134948154Y-124051378D02*
X134946951Y-124054307D01*
X134946951Y-124054307D02*
X134934097Y-124066728D01*
X134934097Y-124066728D02*
X134912104Y-124075977D01*
X134912104Y-124075977D02*
X134890850Y-124084313D01*
X134890850Y-124084313D02*
X134858306Y-124100149D01*
X134858306Y-124100149D02*
X134811678Y-124125033D01*
X134811678Y-124125033D02*
X134748171Y-124160509D01*
X134748171Y-124160509D02*
X134664992Y-124208123D01*
X134664992Y-124208123D02*
X134559347Y-124269422D01*
X134559347Y-124269422D02*
X134501938Y-124302932D01*
X134501938Y-124302932D02*
X134434406Y-124343071D01*
X134434406Y-124343071D02*
X134390115Y-124371659D01*
X134390115Y-124371659D02*
X134365145Y-124392039D01*
X134365145Y-124392039D02*
X134355577Y-124407553D01*
X134355577Y-124407553D02*
X134357492Y-124421546D01*
X134357492Y-124421546D02*
X134359089Y-124424796D01*
X134359089Y-124424796D02*
X134374624Y-124445266D01*
X134374624Y-124445266D02*
X134407864Y-124483665D01*
X134407864Y-124483665D02*
X134454938Y-124535696D01*
X134454938Y-124535696D02*
X134511972Y-124597066D01*
X134511972Y-124597066D02*
X134561300Y-124649090D01*
X134561300Y-124649090D02*
X134674970Y-124772567D01*
X134674970Y-124772567D02*
X134763895Y-124879591D01*
X134763895Y-124879591D02*
X134828866Y-124971240D01*
X134828866Y-124971240D02*
X134870679Y-125048588D01*
X134870679Y-125048588D02*
X134884783Y-125087866D01*
X134884783Y-125087866D02*
X134890608Y-125122249D01*
X134890608Y-125122249D02*
X134896625Y-125180899D01*
X134896625Y-125180899D02*
X134902304Y-125257117D01*
X134902304Y-125257117D02*
X134907116Y-125344202D01*
X134907116Y-125344202D02*
X134909381Y-125399268D01*
X134909381Y-125399268D02*
X134912541Y-125494464D01*
X134912541Y-125494464D02*
X134913931Y-125564062D01*
X134913931Y-125564062D02*
X134913142Y-125613409D01*
X134913142Y-125613409D02*
X134909765Y-125647854D01*
X134909765Y-125647854D02*
X134903392Y-125672743D01*
X134903392Y-125672743D02*
X134893613Y-125693425D01*
X134893613Y-125693425D02*
X134885933Y-125706053D01*
X134885933Y-125706053D02*
X134841579Y-125754726D01*
X134841579Y-125754726D02*
X134784426Y-125788645D01*
X134784426Y-125788645D02*
X134724292Y-125803438D01*
X134724292Y-125803438D02*
X134679227Y-125798086D01*
X134679227Y-125798086D02*
X134638424Y-125774930D01*
X134638424Y-125774930D02*
X134587276Y-125733462D01*
X134587276Y-125733462D02*
X134532958Y-125680912D01*
X134532958Y-125680912D02*
X134482643Y-125624516D01*
X134482643Y-125624516D02*
X134443506Y-125571505D01*
X134443506Y-125571505D02*
X134429095Y-125545889D01*
X134429095Y-125545889D02*
X134407509Y-125510814D01*
X134407509Y-125510814D02*
X134368247Y-125457389D01*
X134368247Y-125457389D02*
X134314898Y-125389789D01*
X134314898Y-125389789D02*
X134251048Y-125312190D01*
X134251048Y-125312190D02*
X134180285Y-125228768D01*
X134180285Y-125228768D02*
X134106196Y-125143698D01*
X134106196Y-125143698D02*
X134032368Y-125061155D01*
X134032368Y-125061155D02*
X133962389Y-124985316D01*
X133962389Y-124985316D02*
X133899845Y-124920356D01*
X133899845Y-124920356D02*
X133850740Y-124872669D01*
X133850740Y-124872669D02*
X133796221Y-124825032D01*
X133796221Y-124825032D02*
X133750358Y-124789908D01*
X133750358Y-124789908D02*
X133718189Y-124770949D01*
X133718189Y-124770949D02*
X133707511Y-124768864D01*
X133707511Y-124768864D02*
X133691147Y-124777274D01*
X133691147Y-124777274D02*
X133650329Y-124799846D01*
X133650329Y-124799846D02*
X133587414Y-124835224D01*
X133587414Y-124835224D02*
X133504756Y-124882054D01*
X133504756Y-124882054D02*
X133404711Y-124938981D01*
X133404711Y-124938981D02*
X133289634Y-125004649D01*
X133289634Y-125004649D02*
X133161881Y-125077703D01*
X133161881Y-125077703D02*
X133023806Y-125156788D01*
X133023806Y-125156788D02*
X132877766Y-125240548D01*
X132877766Y-125240548D02*
X132726116Y-125327629D01*
X132726116Y-125327629D02*
X132571210Y-125416676D01*
X132571210Y-125416676D02*
X132415405Y-125506332D01*
X132415405Y-125506332D02*
X132261056Y-125595243D01*
X132261056Y-125595243D02*
X132110518Y-125682054D01*
X132110518Y-125682054D02*
X131966146Y-125765409D01*
X131966146Y-125765409D02*
X131830296Y-125843954D01*
X131830296Y-125843954D02*
X131705323Y-125916333D01*
X131705323Y-125916333D02*
X131593583Y-125981190D01*
X131593583Y-125981190D02*
X131497430Y-126037171D01*
X131497430Y-126037171D02*
X131419221Y-126082920D01*
X131419221Y-126082920D02*
X131361311Y-126117083D01*
X131361311Y-126117083D02*
X131326054Y-126138304D01*
X131326054Y-126138304D02*
X131315835Y-126144963D01*
X131315835Y-126144963D02*
X131329598Y-126146280D01*
X131329598Y-126146280D02*
X131372896Y-126147559D01*
X131372896Y-126147559D02*
X131444286Y-126148796D01*
X131444286Y-126148796D02*
X131542327Y-126149983D01*
X131542327Y-126149983D02*
X131665578Y-126151115D01*
X131665578Y-126151115D02*
X131812597Y-126152186D01*
X131812597Y-126152186D02*
X131981943Y-126153189D01*
X131981943Y-126153189D02*
X132172174Y-126154119D01*
X132172174Y-126154119D02*
X132381849Y-126154968D01*
X132381849Y-126154968D02*
X132609527Y-126155732D01*
X132609527Y-126155732D02*
X132853765Y-126156403D01*
X132853765Y-126156403D02*
X133113123Y-126156976D01*
X133113123Y-126156976D02*
X133386159Y-126157444D01*
X133386159Y-126157444D02*
X133671432Y-126157802D01*
X133671432Y-126157802D02*
X133967500Y-126158042D01*
X133967500Y-126158042D02*
X134272921Y-126158159D01*
X134272921Y-126158159D02*
X134401076Y-126158171D01*
X134401076Y-126158171D02*
X137501030Y-126158171D01*
X137501030Y-126158171D02*
X137279947Y-125774847D01*
X137279947Y-125774847D02*
X137233144Y-125693680D01*
X137233144Y-125693680D02*
X137172898Y-125589166D01*
X137172898Y-125589166D02*
X137101222Y-125464801D01*
X137101222Y-125464801D02*
X137020131Y-125324082D01*
X137020131Y-125324082D02*
X136931638Y-125170503D01*
X136931638Y-125170503D02*
X136837760Y-125007562D01*
X136837760Y-125007562D02*
X136740509Y-124838754D01*
X136740509Y-124838754D02*
X136641900Y-124667575D01*
X136641900Y-124667575D02*
X136543947Y-124497521D01*
X136543947Y-124497521D02*
X136519175Y-124454512D01*
X136519175Y-124454512D02*
X136428848Y-124297857D01*
X136428848Y-124297857D02*
X136342711Y-124148803D01*
X136342711Y-124148803D02*
X136262058Y-124009568D01*
X136262058Y-124009568D02*
X136188184Y-123882371D01*
X136188184Y-123882371D02*
X136122383Y-123769432D01*
X136122383Y-123769432D02*
X136065950Y-123672968D01*
X136065950Y-123672968D02*
X136020179Y-123595200D01*
X136020179Y-123595200D02*
X135986365Y-123538346D01*
X135986365Y-123538346D02*
X135965802Y-123504625D01*
X135965802Y-123504625D02*
X135960047Y-123496040D01*
X135960047Y-123496040D02*
X135947942Y-123489189D01*
X135947942Y-123489189D02*
X135927906Y-123491158D01*
X135927906Y-123491158D02*
X135927906Y-123491158D01*
G36*
X135960047Y-123496040D02*
G01*
X135965802Y-123504625D01*
X135986365Y-123538346D01*
X136020179Y-123595200D01*
X136065950Y-123672968D01*
X136122383Y-123769432D01*
X136188184Y-123882371D01*
X136262058Y-124009568D01*
X136342711Y-124148803D01*
X136428848Y-124297857D01*
X136519175Y-124454512D01*
X136543947Y-124497521D01*
X136641900Y-124667575D01*
X136740509Y-124838754D01*
X136837760Y-125007562D01*
X136931638Y-125170503D01*
X137020131Y-125324082D01*
X137101222Y-125464801D01*
X137172898Y-125589166D01*
X137233144Y-125693680D01*
X137279947Y-125774847D01*
X137501030Y-126158171D01*
X134401076Y-126158171D01*
X134272921Y-126158159D01*
X133967500Y-126158042D01*
X133671432Y-126157802D01*
X133386159Y-126157444D01*
X133113123Y-126156976D01*
X132853765Y-126156403D01*
X132609527Y-126155732D01*
X132381849Y-126154968D01*
X132172174Y-126154119D01*
X131981943Y-126153189D01*
X131812597Y-126152186D01*
X131665578Y-126151115D01*
X131542327Y-126149983D01*
X131444286Y-126148796D01*
X131372896Y-126147559D01*
X131329598Y-126146280D01*
X131315835Y-126144963D01*
X131326054Y-126138304D01*
X131361311Y-126117083D01*
X131419221Y-126082920D01*
X131497430Y-126037171D01*
X131593583Y-125981190D01*
X131705323Y-125916333D01*
X131830296Y-125843954D01*
X131966146Y-125765409D01*
X132110518Y-125682054D01*
X132261056Y-125595243D01*
X132415405Y-125506332D01*
X132571210Y-125416676D01*
X132726116Y-125327629D01*
X132877766Y-125240548D01*
X133023806Y-125156788D01*
X133161881Y-125077703D01*
X133289634Y-125004649D01*
X133404711Y-124938981D01*
X133504756Y-124882054D01*
X133587414Y-124835224D01*
X133650329Y-124799846D01*
X133691147Y-124777274D01*
X133707511Y-124768864D01*
X133718189Y-124770949D01*
X133750358Y-124789908D01*
X133796221Y-124825032D01*
X133850740Y-124872669D01*
X133899845Y-124920356D01*
X133962389Y-124985316D01*
X134032368Y-125061155D01*
X134106196Y-125143698D01*
X134180285Y-125228768D01*
X134251048Y-125312190D01*
X134314898Y-125389789D01*
X134368247Y-125457389D01*
X134407509Y-125510814D01*
X134429095Y-125545889D01*
X134443506Y-125571505D01*
X134482643Y-125624516D01*
X134532958Y-125680912D01*
X134587276Y-125733462D01*
X134638424Y-125774930D01*
X134679227Y-125798086D01*
X134724292Y-125803438D01*
X134784426Y-125788645D01*
X134841579Y-125754726D01*
X134885933Y-125706053D01*
X134893613Y-125693425D01*
X134903392Y-125672743D01*
X134909765Y-125647854D01*
X134913142Y-125613409D01*
X134913931Y-125564062D01*
X134912541Y-125494464D01*
X134909381Y-125399268D01*
X134907116Y-125344202D01*
X134902304Y-125257117D01*
X134896625Y-125180899D01*
X134890608Y-125122249D01*
X134884783Y-125087866D01*
X134870679Y-125048588D01*
X134828866Y-124971240D01*
X134763895Y-124879591D01*
X134674970Y-124772567D01*
X134561300Y-124649090D01*
X134511972Y-124597066D01*
X134454938Y-124535696D01*
X134407864Y-124483665D01*
X134374624Y-124445266D01*
X134359089Y-124424796D01*
X134357492Y-124421546D01*
X134355577Y-124407553D01*
X134365145Y-124392039D01*
X134390115Y-124371659D01*
X134434406Y-124343071D01*
X134501938Y-124302932D01*
X134559347Y-124269422D01*
X134664992Y-124208123D01*
X134748171Y-124160509D01*
X134811678Y-124125033D01*
X134858306Y-124100149D01*
X134890850Y-124084313D01*
X134912104Y-124075977D01*
X134934097Y-124066728D01*
X134946951Y-124054307D01*
X134948154Y-124051378D01*
X134966961Y-124035084D01*
X135001335Y-124014098D01*
X135055719Y-123984810D01*
X135095874Y-124022192D01*
X135110057Y-124037336D01*
X135143055Y-124078493D01*
X135183346Y-124133445D01*
X135225182Y-124194531D01*
X135314336Y-124329489D01*
X135310837Y-124679362D01*
X135307339Y-125029235D01*
X135256393Y-125078733D01*
X135239274Y-125096379D01*
X135184376Y-125175660D01*
X135152330Y-125269935D01*
X135141412Y-125383780D01*
X135144123Y-125444779D01*
X135163261Y-125552378D01*
X135198141Y-125650583D01*
X135245742Y-125729382D01*
X135278795Y-125758114D01*
X135337549Y-125779937D01*
X135404061Y-125782454D01*
X135469816Y-125766828D01*
X135526301Y-125734220D01*
X135565003Y-125685793D01*
X135566270Y-125683168D01*
X135589663Y-125635225D01*
X135614439Y-125585122D01*
X135635472Y-125538087D01*
X135665644Y-125458810D01*
X135698932Y-125361072D01*
X135734179Y-125249228D01*
X135770229Y-125127634D01*
X135805925Y-125000645D01*
X135840110Y-124872616D01*
X135871627Y-124747902D01*
X135899320Y-124630859D01*
X135922032Y-124525843D01*
X135938606Y-124437209D01*
X135947885Y-124369312D01*
X135948714Y-124326507D01*
X135946847Y-124316782D01*
X135928658Y-124267556D01*
X135894907Y-124201699D01*
X135848555Y-124125165D01*
X135830764Y-124097585D01*
X135759282Y-123985122D01*
X135698520Y-123886772D01*
X135649817Y-123804832D01*
X135614514Y-123741605D01*
X135593952Y-123699390D01*
X135589469Y-123680487D01*
X135589988Y-123679820D01*
X135608545Y-123666205D01*
X135648202Y-123641319D01*
X135703526Y-123608476D01*
X135769084Y-123570988D01*
X135774626Y-123567876D01*
X135845807Y-123528712D01*
X135895381Y-123503736D01*
X135927906Y-123491158D01*
X135947942Y-123489189D01*
X135960047Y-123496040D01*
G37*
X135960047Y-123496040D02*
X135965802Y-123504625D01*
X135986365Y-123538346D01*
X136020179Y-123595200D01*
X136065950Y-123672968D01*
X136122383Y-123769432D01*
X136188184Y-123882371D01*
X136262058Y-124009568D01*
X136342711Y-124148803D01*
X136428848Y-124297857D01*
X136519175Y-124454512D01*
X136543947Y-124497521D01*
X136641900Y-124667575D01*
X136740509Y-124838754D01*
X136837760Y-125007562D01*
X136931638Y-125170503D01*
X137020131Y-125324082D01*
X137101222Y-125464801D01*
X137172898Y-125589166D01*
X137233144Y-125693680D01*
X137279947Y-125774847D01*
X137501030Y-126158171D01*
X134401076Y-126158171D01*
X134272921Y-126158159D01*
X133967500Y-126158042D01*
X133671432Y-126157802D01*
X133386159Y-126157444D01*
X133113123Y-126156976D01*
X132853765Y-126156403D01*
X132609527Y-126155732D01*
X132381849Y-126154968D01*
X132172174Y-126154119D01*
X131981943Y-126153189D01*
X131812597Y-126152186D01*
X131665578Y-126151115D01*
X131542327Y-126149983D01*
X131444286Y-126148796D01*
X131372896Y-126147559D01*
X131329598Y-126146280D01*
X131315835Y-126144963D01*
X131326054Y-126138304D01*
X131361311Y-126117083D01*
X131419221Y-126082920D01*
X131497430Y-126037171D01*
X131593583Y-125981190D01*
X131705323Y-125916333D01*
X131830296Y-125843954D01*
X131966146Y-125765409D01*
X132110518Y-125682054D01*
X132261056Y-125595243D01*
X132415405Y-125506332D01*
X132571210Y-125416676D01*
X132726116Y-125327629D01*
X132877766Y-125240548D01*
X133023806Y-125156788D01*
X133161881Y-125077703D01*
X133289634Y-125004649D01*
X133404711Y-124938981D01*
X133504756Y-124882054D01*
X133587414Y-124835224D01*
X133650329Y-124799846D01*
X133691147Y-124777274D01*
X133707511Y-124768864D01*
X133718189Y-124770949D01*
X133750358Y-124789908D01*
X133796221Y-124825032D01*
X133850740Y-124872669D01*
X133899845Y-124920356D01*
X133962389Y-124985316D01*
X134032368Y-125061155D01*
X134106196Y-125143698D01*
X134180285Y-125228768D01*
X134251048Y-125312190D01*
X134314898Y-125389789D01*
X134368247Y-125457389D01*
X134407509Y-125510814D01*
X134429095Y-125545889D01*
X134443506Y-125571505D01*
X134482643Y-125624516D01*
X134532958Y-125680912D01*
X134587276Y-125733462D01*
X134638424Y-125774930D01*
X134679227Y-125798086D01*
X134724292Y-125803438D01*
X134784426Y-125788645D01*
X134841579Y-125754726D01*
X134885933Y-125706053D01*
X134893613Y-125693425D01*
X134903392Y-125672743D01*
X134909765Y-125647854D01*
X134913142Y-125613409D01*
X134913931Y-125564062D01*
X134912541Y-125494464D01*
X134909381Y-125399268D01*
X134907116Y-125344202D01*
X134902304Y-125257117D01*
X134896625Y-125180899D01*
X134890608Y-125122249D01*
X134884783Y-125087866D01*
X134870679Y-125048588D01*
X134828866Y-124971240D01*
X134763895Y-124879591D01*
X134674970Y-124772567D01*
X134561300Y-124649090D01*
X134511972Y-124597066D01*
X134454938Y-124535696D01*
X134407864Y-124483665D01*
X134374624Y-124445266D01*
X134359089Y-124424796D01*
X134357492Y-124421546D01*
X134355577Y-124407553D01*
X134365145Y-124392039D01*
X134390115Y-124371659D01*
X134434406Y-124343071D01*
X134501938Y-124302932D01*
X134559347Y-124269422D01*
X134664992Y-124208123D01*
X134748171Y-124160509D01*
X134811678Y-124125033D01*
X134858306Y-124100149D01*
X134890850Y-124084313D01*
X134912104Y-124075977D01*
X134934097Y-124066728D01*
X134946951Y-124054307D01*
X134948154Y-124051378D01*
X134966961Y-124035084D01*
X135001335Y-124014098D01*
X135055719Y-123984810D01*
X135095874Y-124022192D01*
X135110057Y-124037336D01*
X135143055Y-124078493D01*
X135183346Y-124133445D01*
X135225182Y-124194531D01*
X135314336Y-124329489D01*
X135310837Y-124679362D01*
X135307339Y-125029235D01*
X135256393Y-125078733D01*
X135239274Y-125096379D01*
X135184376Y-125175660D01*
X135152330Y-125269935D01*
X135141412Y-125383780D01*
X135144123Y-125444779D01*
X135163261Y-125552378D01*
X135198141Y-125650583D01*
X135245742Y-125729382D01*
X135278795Y-125758114D01*
X135337549Y-125779937D01*
X135404061Y-125782454D01*
X135469816Y-125766828D01*
X135526301Y-125734220D01*
X135565003Y-125685793D01*
X135566270Y-125683168D01*
X135589663Y-125635225D01*
X135614439Y-125585122D01*
X135635472Y-125538087D01*
X135665644Y-125458810D01*
X135698932Y-125361072D01*
X135734179Y-125249228D01*
X135770229Y-125127634D01*
X135805925Y-125000645D01*
X135840110Y-124872616D01*
X135871627Y-124747902D01*
X135899320Y-124630859D01*
X135922032Y-124525843D01*
X135938606Y-124437209D01*
X135947885Y-124369312D01*
X135948714Y-124326507D01*
X135946847Y-124316782D01*
X135928658Y-124267556D01*
X135894907Y-124201699D01*
X135848555Y-124125165D01*
X135830764Y-124097585D01*
X135759282Y-123985122D01*
X135698520Y-123886772D01*
X135649817Y-123804832D01*
X135614514Y-123741605D01*
X135593952Y-123699390D01*
X135589469Y-123680487D01*
X135589988Y-123679820D01*
X135608545Y-123666205D01*
X135648202Y-123641319D01*
X135703526Y-123608476D01*
X135769084Y-123570988D01*
X135774626Y-123567876D01*
X135845807Y-123528712D01*
X135895381Y-123503736D01*
X135927906Y-123491158D01*
X135947942Y-123489189D01*
X135960047Y-123496040D01*
X134085957Y-120285835D02*
X134062935Y-120323245D01*
X134062935Y-120323245D02*
X134027466Y-120382514D01*
X134027466Y-120382514D02*
X133981004Y-120461118D01*
X133981004Y-120461118D02*
X133925004Y-120556538D01*
X133925004Y-120556538D02*
X133860919Y-120666250D01*
X133860919Y-120666250D02*
X133790204Y-120787734D01*
X133790204Y-120787734D02*
X133714313Y-120918468D01*
X133714313Y-120918468D02*
X133634701Y-121055930D01*
X133634701Y-121055930D02*
X133552822Y-121197598D01*
X133552822Y-121197598D02*
X133470130Y-121340951D01*
X133470130Y-121340951D02*
X133388079Y-121483467D01*
X133388079Y-121483467D02*
X133308124Y-121622624D01*
X133308124Y-121622624D02*
X133231719Y-121755901D01*
X133231719Y-121755901D02*
X133160318Y-121880776D01*
X133160318Y-121880776D02*
X133095376Y-121994727D01*
X133095376Y-121994727D02*
X133038347Y-122095233D01*
X133038347Y-122095233D02*
X132990685Y-122179772D01*
X132990685Y-122179772D02*
X132953845Y-122245822D01*
X132953845Y-122245822D02*
X132929280Y-122290862D01*
X132929280Y-122290862D02*
X132918446Y-122312370D01*
X132918446Y-122312370D02*
X132918049Y-122313714D01*
X132918049Y-122313714D02*
X132931499Y-122331965D01*
X132931499Y-122331965D02*
X132968886Y-122359882D01*
X132968886Y-122359882D02*
X133025765Y-122394725D01*
X133025765Y-122394725D02*
X133097688Y-122433754D01*
X133097688Y-122433754D02*
X133172985Y-122470843D01*
X133172985Y-122470843D02*
X133275440Y-122515817D01*
X133275440Y-122515817D02*
X133383183Y-122556226D01*
X133383183Y-122556226D02*
X133499927Y-122592969D01*
X133499927Y-122592969D02*
X133629382Y-122626942D01*
X133629382Y-122626942D02*
X133775260Y-122659044D01*
X133775260Y-122659044D02*
X133941274Y-122690173D01*
X133941274Y-122690173D02*
X134131134Y-122721227D01*
X134131134Y-122721227D02*
X134327531Y-122750145D01*
X134327531Y-122750145D02*
X134498166Y-122775800D01*
X134498166Y-122775800D02*
X134641455Y-122801198D01*
X134641455Y-122801198D02*
X134760992Y-122827602D01*
X134760992Y-122827602D02*
X134860370Y-122856273D01*
X134860370Y-122856273D02*
X134943182Y-122888473D01*
X134943182Y-122888473D02*
X135013022Y-122925465D01*
X135013022Y-122925465D02*
X135073482Y-122968512D01*
X135073482Y-122968512D02*
X135128155Y-123018875D01*
X135128155Y-123018875D02*
X135145786Y-123037583D01*
X135145786Y-123037583D02*
X135184000Y-123081139D01*
X135184000Y-123081139D02*
X135212268Y-123116682D01*
X135212268Y-123116682D02*
X135225382Y-123137583D01*
X135225382Y-123137583D02*
X135225732Y-123139297D01*
X135225732Y-123139297D02*
X135230320Y-123149806D01*
X135230320Y-123149806D02*
X135246242Y-123149924D01*
X135246242Y-123149924D02*
X135276734Y-123138254D01*
X135276734Y-123138254D02*
X135325032Y-123113396D01*
X135325032Y-123113396D02*
X135394373Y-123073952D01*
X135394373Y-123073952D02*
X135442561Y-123045587D01*
X135442561Y-123045587D02*
X135514417Y-123001247D01*
X135514417Y-123001247D02*
X135570258Y-122963279D01*
X135570258Y-122963279D02*
X135606333Y-122934416D01*
X135606333Y-122934416D02*
X135618887Y-122917388D01*
X135618887Y-122917388D02*
X135618879Y-122917264D01*
X135618879Y-122917264D02*
X135611094Y-122901037D01*
X135611094Y-122901037D02*
X135589108Y-122860400D01*
X135589108Y-122860400D02*
X135554197Y-122797567D01*
X135554197Y-122797567D02*
X135507637Y-122714752D01*
X135507637Y-122714752D02*
X135450705Y-122614172D01*
X135450705Y-122614172D02*
X135384677Y-122498040D01*
X135384677Y-122498040D02*
X135310828Y-122368571D01*
X135310828Y-122368571D02*
X135230436Y-122227980D01*
X135230436Y-122227980D02*
X135144776Y-122078482D01*
X135144776Y-122078482D02*
X135055124Y-121922292D01*
X135055124Y-121922292D02*
X134962757Y-121761624D01*
X134962757Y-121761624D02*
X134868951Y-121598693D01*
X134868951Y-121598693D02*
X134774982Y-121435713D01*
X134774982Y-121435713D02*
X134682126Y-121274900D01*
X134682126Y-121274900D02*
X134591660Y-121118468D01*
X134591660Y-121118468D02*
X134504859Y-120968633D01*
X134504859Y-120968633D02*
X134423000Y-120827608D01*
X134423000Y-120827608D02*
X134347359Y-120697609D01*
X134347359Y-120697609D02*
X134279213Y-120580849D01*
X134279213Y-120580849D02*
X134219837Y-120479545D01*
X134219837Y-120479545D02*
X134170507Y-120395911D01*
X134170507Y-120395911D02*
X134132500Y-120332162D01*
X134132500Y-120332162D02*
X134107093Y-120290511D01*
X134107093Y-120290511D02*
X134095560Y-120273175D01*
X134095560Y-120273175D02*
X134095077Y-120272805D01*
X134095077Y-120272805D02*
X134085957Y-120285835D01*
X134085957Y-120285835D02*
X134085957Y-120285835D01*
G36*
X134095560Y-120273175D02*
G01*
X134107093Y-120290511D01*
X134132500Y-120332162D01*
X134170507Y-120395911D01*
X134219837Y-120479545D01*
X134279213Y-120580849D01*
X134347359Y-120697609D01*
X134423000Y-120827608D01*
X134504859Y-120968633D01*
X134591660Y-121118468D01*
X134682126Y-121274900D01*
X134774982Y-121435713D01*
X134868951Y-121598693D01*
X134962757Y-121761624D01*
X135055124Y-121922292D01*
X135144776Y-122078482D01*
X135230436Y-122227980D01*
X135310828Y-122368571D01*
X135384677Y-122498040D01*
X135450705Y-122614172D01*
X135507637Y-122714752D01*
X135554197Y-122797567D01*
X135589108Y-122860400D01*
X135611094Y-122901037D01*
X135618879Y-122917264D01*
X135618887Y-122917388D01*
X135606333Y-122934416D01*
X135570258Y-122963279D01*
X135514417Y-123001247D01*
X135442561Y-123045587D01*
X135394373Y-123073952D01*
X135325032Y-123113396D01*
X135276734Y-123138254D01*
X135246242Y-123149924D01*
X135230320Y-123149806D01*
X135225732Y-123139297D01*
X135225382Y-123137583D01*
X135212268Y-123116682D01*
X135184000Y-123081139D01*
X135145786Y-123037583D01*
X135128155Y-123018875D01*
X135073482Y-122968512D01*
X135013022Y-122925465D01*
X134943182Y-122888473D01*
X134860370Y-122856273D01*
X134760992Y-122827602D01*
X134641455Y-122801198D01*
X134498166Y-122775800D01*
X134327531Y-122750145D01*
X134131134Y-122721227D01*
X133941274Y-122690173D01*
X133775260Y-122659044D01*
X133629382Y-122626942D01*
X133499927Y-122592969D01*
X133383183Y-122556226D01*
X133275440Y-122515817D01*
X133172985Y-122470843D01*
X133097688Y-122433754D01*
X133025765Y-122394725D01*
X132968886Y-122359882D01*
X132931499Y-122331965D01*
X132918049Y-122313714D01*
X132918446Y-122312370D01*
X132929280Y-122290862D01*
X132953845Y-122245822D01*
X132990685Y-122179772D01*
X133038347Y-122095233D01*
X133095376Y-121994727D01*
X133160318Y-121880776D01*
X133231719Y-121755901D01*
X133308124Y-121622624D01*
X133388079Y-121483467D01*
X133470130Y-121340951D01*
X133552822Y-121197598D01*
X133634701Y-121055930D01*
X133714313Y-120918468D01*
X133790204Y-120787734D01*
X133860919Y-120666250D01*
X133925004Y-120556538D01*
X133981004Y-120461118D01*
X134027466Y-120382514D01*
X134062935Y-120323245D01*
X134085957Y-120285835D01*
X134095077Y-120272805D01*
X134095560Y-120273175D01*
G37*
X134095560Y-120273175D02*
X134107093Y-120290511D01*
X134132500Y-120332162D01*
X134170507Y-120395911D01*
X134219837Y-120479545D01*
X134279213Y-120580849D01*
X134347359Y-120697609D01*
X134423000Y-120827608D01*
X134504859Y-120968633D01*
X134591660Y-121118468D01*
X134682126Y-121274900D01*
X134774982Y-121435713D01*
X134868951Y-121598693D01*
X134962757Y-121761624D01*
X135055124Y-121922292D01*
X135144776Y-122078482D01*
X135230436Y-122227980D01*
X135310828Y-122368571D01*
X135384677Y-122498040D01*
X135450705Y-122614172D01*
X135507637Y-122714752D01*
X135554197Y-122797567D01*
X135589108Y-122860400D01*
X135611094Y-122901037D01*
X135618879Y-122917264D01*
X135618887Y-122917388D01*
X135606333Y-122934416D01*
X135570258Y-122963279D01*
X135514417Y-123001247D01*
X135442561Y-123045587D01*
X135394373Y-123073952D01*
X135325032Y-123113396D01*
X135276734Y-123138254D01*
X135246242Y-123149924D01*
X135230320Y-123149806D01*
X135225732Y-123139297D01*
X135225382Y-123137583D01*
X135212268Y-123116682D01*
X135184000Y-123081139D01*
X135145786Y-123037583D01*
X135128155Y-123018875D01*
X135073482Y-122968512D01*
X135013022Y-122925465D01*
X134943182Y-122888473D01*
X134860370Y-122856273D01*
X134760992Y-122827602D01*
X134641455Y-122801198D01*
X134498166Y-122775800D01*
X134327531Y-122750145D01*
X134131134Y-122721227D01*
X133941274Y-122690173D01*
X133775260Y-122659044D01*
X133629382Y-122626942D01*
X133499927Y-122592969D01*
X133383183Y-122556226D01*
X133275440Y-122515817D01*
X133172985Y-122470843D01*
X133097688Y-122433754D01*
X133025765Y-122394725D01*
X132968886Y-122359882D01*
X132931499Y-122331965D01*
X132918049Y-122313714D01*
X132918446Y-122312370D01*
X132929280Y-122290862D01*
X132953845Y-122245822D01*
X132990685Y-122179772D01*
X133038347Y-122095233D01*
X133095376Y-121994727D01*
X133160318Y-121880776D01*
X133231719Y-121755901D01*
X133308124Y-121622624D01*
X133388079Y-121483467D01*
X133470130Y-121340951D01*
X133552822Y-121197598D01*
X133634701Y-121055930D01*
X133714313Y-120918468D01*
X133790204Y-120787734D01*
X133860919Y-120666250D01*
X133925004Y-120556538D01*
X133981004Y-120461118D01*
X134027466Y-120382514D01*
X134062935Y-120323245D01*
X134085957Y-120285835D01*
X134095077Y-120272805D01*
X134095560Y-120273175D01*
X132262472Y-123434619D02*
X132251092Y-123453693D01*
X132251092Y-123453693D02*
X132225512Y-123497421D01*
X132225512Y-123497421D02*
X132186998Y-123563619D01*
X132186998Y-123563619D02*
X132136814Y-123650102D01*
X132136814Y-123650102D02*
X132076225Y-123754685D01*
X132076225Y-123754685D02*
X132006497Y-123875183D01*
X132006497Y-123875183D02*
X131928893Y-124009412D01*
X131928893Y-124009412D02*
X131844680Y-124155187D01*
X131844680Y-124155187D02*
X131755121Y-124310323D01*
X131755121Y-124310323D02*
X131663002Y-124470000D01*
X131663002Y-124470000D02*
X131568924Y-124633117D01*
X131568924Y-124633117D02*
X131478598Y-124789709D01*
X131478598Y-124789709D02*
X131393335Y-124937506D01*
X131393335Y-124937506D02*
X131314443Y-125074240D01*
X131314443Y-125074240D02*
X131243231Y-125197642D01*
X131243231Y-125197642D02*
X131181009Y-125305444D01*
X131181009Y-125305444D02*
X131129087Y-125395377D01*
X131129087Y-125395377D02*
X131088772Y-125465173D01*
X131088772Y-125465173D02*
X131061376Y-125512564D01*
X131061376Y-125512564D02*
X131048493Y-125534786D01*
X131048493Y-125534786D02*
X131027493Y-125572330D01*
X131027493Y-125572330D02*
X131016075Y-125595831D01*
X131016075Y-125595831D02*
X131015449Y-125599920D01*
X131015449Y-125599920D02*
X131029364Y-125592242D01*
X131029364Y-125592242D02*
X131068059Y-125570203D01*
X131068059Y-125570203D02*
X131129513Y-125534971D01*
X131129513Y-125534971D02*
X131211702Y-125487711D01*
X131211702Y-125487711D02*
X131312604Y-125429589D01*
X131312604Y-125429589D02*
X131430195Y-125361771D01*
X131430195Y-125361771D02*
X131562454Y-125285424D01*
X131562454Y-125285424D02*
X131707358Y-125201714D01*
X131707358Y-125201714D02*
X131862883Y-125111806D01*
X131862883Y-125111806D02*
X132027008Y-125016867D01*
X132027008Y-125016867D02*
X132089451Y-124980732D01*
X132089451Y-124980732D02*
X132256513Y-124884083D01*
X132256513Y-124884083D02*
X132415926Y-124791938D01*
X132415926Y-124791938D02*
X132565645Y-124705475D01*
X132565645Y-124705475D02*
X132703624Y-124625871D01*
X132703624Y-124625871D02*
X132827815Y-124554305D01*
X132827815Y-124554305D02*
X132936173Y-124491955D01*
X132936173Y-124491955D02*
X133026652Y-124439998D01*
X133026652Y-124439998D02*
X133097204Y-124399613D01*
X133097204Y-124399613D02*
X133145785Y-124371978D01*
X133145785Y-124371978D02*
X133170346Y-124358272D01*
X133170346Y-124358272D02*
X133172915Y-124356974D01*
X133172915Y-124356974D02*
X133165431Y-124345220D01*
X133165431Y-124345220D02*
X133139386Y-124313795D01*
X133139386Y-124313795D02*
X133097441Y-124265594D01*
X133097441Y-124265594D02*
X133042254Y-124203510D01*
X133042254Y-124203510D02*
X132976483Y-124130439D01*
X132976483Y-124130439D02*
X132902788Y-124049276D01*
X132902788Y-124049276D02*
X132823827Y-123962916D01*
X132823827Y-123962916D02*
X132742260Y-123874253D01*
X132742260Y-123874253D02*
X132660746Y-123786182D01*
X132660746Y-123786182D02*
X132581943Y-123701599D01*
X132581943Y-123701599D02*
X132508510Y-123623397D01*
X132508510Y-123623397D02*
X132443107Y-123554472D01*
X132443107Y-123554472D02*
X132388392Y-123497719D01*
X132388392Y-123497719D02*
X132347023Y-123456032D01*
X132347023Y-123456032D02*
X132332836Y-123442363D01*
X132332836Y-123442363D02*
X132285820Y-123398201D01*
X132285820Y-123398201D02*
X132262472Y-123434619D01*
X132262472Y-123434619D02*
X132262472Y-123434619D01*
G36*
X132332836Y-123442363D02*
G01*
X132347023Y-123456032D01*
X132388392Y-123497719D01*
X132443107Y-123554472D01*
X132508510Y-123623397D01*
X132581943Y-123701599D01*
X132660746Y-123786182D01*
X132742260Y-123874253D01*
X132823827Y-123962916D01*
X132902788Y-124049276D01*
X132976483Y-124130439D01*
X133042254Y-124203510D01*
X133097441Y-124265594D01*
X133139386Y-124313795D01*
X133165431Y-124345220D01*
X133172915Y-124356974D01*
X133170346Y-124358272D01*
X133145785Y-124371978D01*
X133097204Y-124399613D01*
X133026652Y-124439998D01*
X132936173Y-124491955D01*
X132827815Y-124554305D01*
X132703624Y-124625871D01*
X132565645Y-124705475D01*
X132415926Y-124791938D01*
X132256513Y-124884083D01*
X132089451Y-124980732D01*
X132027008Y-125016867D01*
X131862883Y-125111806D01*
X131707358Y-125201714D01*
X131562454Y-125285424D01*
X131430195Y-125361771D01*
X131312604Y-125429589D01*
X131211702Y-125487711D01*
X131129513Y-125534971D01*
X131068059Y-125570203D01*
X131029364Y-125592242D01*
X131015449Y-125599920D01*
X131016075Y-125595831D01*
X131027493Y-125572330D01*
X131048493Y-125534786D01*
X131061376Y-125512564D01*
X131088772Y-125465173D01*
X131129087Y-125395377D01*
X131181009Y-125305444D01*
X131243231Y-125197642D01*
X131314443Y-125074240D01*
X131393335Y-124937506D01*
X131478598Y-124789709D01*
X131568924Y-124633117D01*
X131663002Y-124470000D01*
X131755121Y-124310323D01*
X131844680Y-124155187D01*
X131928893Y-124009412D01*
X132006497Y-123875183D01*
X132076225Y-123754685D01*
X132136814Y-123650102D01*
X132186998Y-123563619D01*
X132225512Y-123497421D01*
X132251092Y-123453693D01*
X132262472Y-123434619D01*
X132285820Y-123398201D01*
X132332836Y-123442363D01*
G37*
X132332836Y-123442363D02*
X132347023Y-123456032D01*
X132388392Y-123497719D01*
X132443107Y-123554472D01*
X132508510Y-123623397D01*
X132581943Y-123701599D01*
X132660746Y-123786182D01*
X132742260Y-123874253D01*
X132823827Y-123962916D01*
X132902788Y-124049276D01*
X132976483Y-124130439D01*
X133042254Y-124203510D01*
X133097441Y-124265594D01*
X133139386Y-124313795D01*
X133165431Y-124345220D01*
X133172915Y-124356974D01*
X133170346Y-124358272D01*
X133145785Y-124371978D01*
X133097204Y-124399613D01*
X133026652Y-124439998D01*
X132936173Y-124491955D01*
X132827815Y-124554305D01*
X132703624Y-124625871D01*
X132565645Y-124705475D01*
X132415926Y-124791938D01*
X132256513Y-124884083D01*
X132089451Y-124980732D01*
X132027008Y-125016867D01*
X131862883Y-125111806D01*
X131707358Y-125201714D01*
X131562454Y-125285424D01*
X131430195Y-125361771D01*
X131312604Y-125429589D01*
X131211702Y-125487711D01*
X131129513Y-125534971D01*
X131068059Y-125570203D01*
X131029364Y-125592242D01*
X131015449Y-125599920D01*
X131016075Y-125595831D01*
X131027493Y-125572330D01*
X131048493Y-125534786D01*
X131061376Y-125512564D01*
X131088772Y-125465173D01*
X131129087Y-125395377D01*
X131181009Y-125305444D01*
X131243231Y-125197642D01*
X131314443Y-125074240D01*
X131393335Y-124937506D01*
X131478598Y-124789709D01*
X131568924Y-124633117D01*
X131663002Y-124470000D01*
X131755121Y-124310323D01*
X131844680Y-124155187D01*
X131928893Y-124009412D01*
X132006497Y-123875183D01*
X132076225Y-123754685D01*
X132136814Y-123650102D01*
X132186998Y-123563619D01*
X132225512Y-123497421D01*
X132251092Y-123453693D01*
X132262472Y-123434619D01*
X132285820Y-123398201D01*
X132332836Y-123442363D01*
X125310813Y-120184315D02*
X125246330Y-120185975D01*
X125246330Y-120185975D02*
X125199697Y-120188945D01*
X125199697Y-120188945D02*
X125179349Y-120192088D01*
X125179349Y-120192088D02*
X125149583Y-120200065D01*
X125149583Y-120200065D02*
X125149583Y-121120530D01*
X125149583Y-121120530D02*
X125359119Y-121113259D01*
X125359119Y-121113259D02*
X125568953Y-121113523D01*
X125568953Y-121113523D02*
X125763141Y-121130382D01*
X125763141Y-121130382D02*
X125947580Y-121165075D01*
X125947580Y-121165075D02*
X126128168Y-121218839D01*
X126128168Y-121218839D02*
X126310803Y-121292911D01*
X126310803Y-121292911D02*
X126386511Y-121328879D01*
X126386511Y-121328879D02*
X126567062Y-121427977D01*
X126567062Y-121427977D02*
X126729702Y-121539326D01*
X126729702Y-121539326D02*
X126882099Y-121668408D01*
X126882099Y-121668408D02*
X126941378Y-121725705D01*
X126941378Y-121725705D02*
X127098015Y-121900861D01*
X127098015Y-121900861D02*
X127233527Y-122091520D01*
X127233527Y-122091520D02*
X127347234Y-122296394D01*
X127347234Y-122296394D02*
X127438456Y-122514193D01*
X127438456Y-122514193D02*
X127506515Y-122743629D01*
X127506515Y-122743629D02*
X127526674Y-122836197D01*
X127526674Y-122836197D02*
X127538823Y-122920244D01*
X127538823Y-122920244D02*
X127546934Y-123023234D01*
X127546934Y-123023234D02*
X127551015Y-123137965D01*
X127551015Y-123137965D02*
X127551074Y-123257234D01*
X127551074Y-123257234D02*
X127547116Y-123373837D01*
X127547116Y-123373837D02*
X127539149Y-123480571D01*
X127539149Y-123480571D02*
X127527181Y-123570233D01*
X127527181Y-123570233D02*
X127525943Y-123577031D01*
X127525943Y-123577031D02*
X127470089Y-123805759D01*
X127470089Y-123805759D02*
X127390701Y-124023965D01*
X127390701Y-124023965D02*
X127289069Y-124230177D01*
X127289069Y-124230177D02*
X127166478Y-124422928D01*
X127166478Y-124422928D02*
X127024219Y-124600748D01*
X127024219Y-124600748D02*
X126863579Y-124762168D01*
X126863579Y-124762168D02*
X126685845Y-124905719D01*
X126685845Y-124905719D02*
X126492307Y-125029931D01*
X126492307Y-125029931D02*
X126284252Y-125133336D01*
X126284252Y-125133336D02*
X126100763Y-125202535D01*
X126100763Y-125202535D02*
X125997623Y-125234118D01*
X125997623Y-125234118D02*
X125902893Y-125258129D01*
X125902893Y-125258129D02*
X125810130Y-125275463D01*
X125810130Y-125275463D02*
X125712894Y-125287016D01*
X125712894Y-125287016D02*
X125604742Y-125293680D01*
X125604742Y-125293680D02*
X125479233Y-125296352D01*
X125479233Y-125296352D02*
X125424089Y-125296504D01*
X125424089Y-125296504D02*
X125149583Y-125296186D01*
X125149583Y-125296186D02*
X125149583Y-126213164D01*
X125149583Y-126213164D02*
X125179349Y-126221141D01*
X125179349Y-126221141D02*
X125204749Y-126224138D01*
X125204749Y-126224138D02*
X125251744Y-126226203D01*
X125251744Y-126226203D02*
X125315490Y-126227382D01*
X125315490Y-126227382D02*
X125391142Y-126227723D01*
X125391142Y-126227723D02*
X125473854Y-126227274D01*
X125473854Y-126227274D02*
X125558783Y-126226083D01*
X125558783Y-126226083D02*
X125641083Y-126224197D01*
X125641083Y-126224197D02*
X125715909Y-126221663D01*
X125715909Y-126221663D02*
X125778417Y-126218531D01*
X125778417Y-126218531D02*
X125823762Y-126214847D01*
X125823762Y-126214847D02*
X125824271Y-126214789D01*
X125824271Y-126214789D02*
X125937271Y-126198341D01*
X125937271Y-126198341D02*
X126064872Y-126173706D01*
X126064872Y-126173706D02*
X126197338Y-126143083D01*
X126197338Y-126143083D02*
X126324934Y-126108667D01*
X126324934Y-126108667D02*
X126406016Y-126083536D01*
X126406016Y-126083536D02*
X126670553Y-125982498D01*
X126670553Y-125982498D02*
X126921277Y-125859513D01*
X126921277Y-125859513D02*
X127157195Y-125715777D01*
X127157195Y-125715777D02*
X127377320Y-125552487D01*
X127377320Y-125552487D02*
X127580660Y-125370838D01*
X127580660Y-125370838D02*
X127766227Y-125172026D01*
X127766227Y-125172026D02*
X127933030Y-124957247D01*
X127933030Y-124957247D02*
X128080079Y-124727698D01*
X128080079Y-124727698D02*
X128206385Y-124484573D01*
X128206385Y-124484573D02*
X128310958Y-124229070D01*
X128310958Y-124229070D02*
X128392808Y-123962383D01*
X128392808Y-123962383D02*
X128450945Y-123685709D01*
X128450945Y-123685709D02*
X128464162Y-123596875D01*
X128464162Y-123596875D02*
X128472618Y-123512107D01*
X128472618Y-123512107D02*
X128478437Y-123408118D01*
X128478437Y-123408118D02*
X128481618Y-123292009D01*
X128481618Y-123292009D02*
X128482161Y-123170887D01*
X128482161Y-123170887D02*
X128480066Y-123051854D01*
X128480066Y-123051854D02*
X128475334Y-122942014D01*
X128475334Y-122942014D02*
X128467963Y-122848472D01*
X128467963Y-122848472D02*
X128464162Y-122816354D01*
X128464162Y-122816354D02*
X128413241Y-122533706D01*
X128413241Y-122533706D02*
X128337795Y-122260614D01*
X128337795Y-122260614D02*
X128238081Y-121997714D01*
X128238081Y-121997714D02*
X128114354Y-121745637D01*
X128114354Y-121745637D02*
X127966872Y-121505017D01*
X127966872Y-121505017D02*
X127888048Y-121394218D01*
X127888048Y-121394218D02*
X127709770Y-121176723D01*
X127709770Y-121176723D02*
X127513767Y-120978344D01*
X127513767Y-120978344D02*
X127301402Y-120799882D01*
X127301402Y-120799882D02*
X127074041Y-120642133D01*
X127074041Y-120642133D02*
X126833047Y-120505897D01*
X126833047Y-120505897D02*
X126579787Y-120391971D01*
X126579787Y-120391971D02*
X126315623Y-120301153D01*
X126315623Y-120301153D02*
X126041921Y-120234241D01*
X126041921Y-120234241D02*
X125851120Y-120202813D01*
X125851120Y-120202813D02*
X125798646Y-120197490D01*
X125798646Y-120197490D02*
X125729782Y-120192930D01*
X125729782Y-120192930D02*
X125649419Y-120189212D01*
X125649419Y-120189212D02*
X125562450Y-120186413D01*
X125562450Y-120186413D02*
X125473764Y-120184612D01*
X125473764Y-120184612D02*
X125388255Y-120183887D01*
X125388255Y-120183887D02*
X125310813Y-120184315D01*
X125310813Y-120184315D02*
X125310813Y-120184315D01*
G36*
X125473764Y-120184612D02*
G01*
X125562450Y-120186413D01*
X125649419Y-120189212D01*
X125729782Y-120192930D01*
X125798646Y-120197490D01*
X125851120Y-120202813D01*
X126041921Y-120234241D01*
X126315623Y-120301153D01*
X126579787Y-120391971D01*
X126833047Y-120505897D01*
X127074041Y-120642133D01*
X127301402Y-120799882D01*
X127513767Y-120978344D01*
X127709770Y-121176723D01*
X127888048Y-121394218D01*
X127966872Y-121505017D01*
X128114354Y-121745637D01*
X128238081Y-121997714D01*
X128337795Y-122260614D01*
X128413241Y-122533706D01*
X128464162Y-122816354D01*
X128467963Y-122848472D01*
X128475334Y-122942014D01*
X128480066Y-123051854D01*
X128482161Y-123170887D01*
X128481618Y-123292009D01*
X128478437Y-123408118D01*
X128472618Y-123512107D01*
X128464162Y-123596875D01*
X128450945Y-123685709D01*
X128392808Y-123962383D01*
X128310958Y-124229070D01*
X128206385Y-124484573D01*
X128080079Y-124727698D01*
X127933030Y-124957247D01*
X127766227Y-125172026D01*
X127580660Y-125370838D01*
X127377320Y-125552487D01*
X127157195Y-125715777D01*
X126921277Y-125859513D01*
X126670553Y-125982498D01*
X126406016Y-126083536D01*
X126324934Y-126108667D01*
X126197338Y-126143083D01*
X126064872Y-126173706D01*
X125937271Y-126198341D01*
X125824271Y-126214789D01*
X125823762Y-126214847D01*
X125778417Y-126218531D01*
X125715909Y-126221663D01*
X125641083Y-126224197D01*
X125558783Y-126226083D01*
X125473854Y-126227274D01*
X125391142Y-126227723D01*
X125315490Y-126227382D01*
X125251744Y-126226203D01*
X125204749Y-126224138D01*
X125179349Y-126221141D01*
X125149583Y-126213164D01*
X125149583Y-125296186D01*
X125424089Y-125296504D01*
X125479233Y-125296352D01*
X125604742Y-125293680D01*
X125712894Y-125287016D01*
X125810130Y-125275463D01*
X125902893Y-125258129D01*
X125997623Y-125234118D01*
X126100763Y-125202535D01*
X126284252Y-125133336D01*
X126492307Y-125029931D01*
X126685845Y-124905719D01*
X126863579Y-124762168D01*
X127024219Y-124600748D01*
X127166478Y-124422928D01*
X127289069Y-124230177D01*
X127390701Y-124023965D01*
X127470089Y-123805759D01*
X127525943Y-123577031D01*
X127527181Y-123570233D01*
X127539149Y-123480571D01*
X127547116Y-123373837D01*
X127551074Y-123257234D01*
X127551015Y-123137965D01*
X127546934Y-123023234D01*
X127538823Y-122920244D01*
X127526674Y-122836197D01*
X127506515Y-122743629D01*
X127438456Y-122514193D01*
X127347234Y-122296394D01*
X127233527Y-122091520D01*
X127098015Y-121900861D01*
X126941378Y-121725705D01*
X126882099Y-121668408D01*
X126729702Y-121539326D01*
X126567062Y-121427977D01*
X126386511Y-121328879D01*
X126310803Y-121292911D01*
X126128168Y-121218839D01*
X125947580Y-121165075D01*
X125763141Y-121130382D01*
X125568953Y-121113523D01*
X125359119Y-121113259D01*
X125149583Y-121120530D01*
X125149583Y-120200065D01*
X125179349Y-120192088D01*
X125199697Y-120188945D01*
X125246330Y-120185975D01*
X125310813Y-120184315D01*
X125388255Y-120183887D01*
X125473764Y-120184612D01*
G37*
X125473764Y-120184612D02*
X125562450Y-120186413D01*
X125649419Y-120189212D01*
X125729782Y-120192930D01*
X125798646Y-120197490D01*
X125851120Y-120202813D01*
X126041921Y-120234241D01*
X126315623Y-120301153D01*
X126579787Y-120391971D01*
X126833047Y-120505897D01*
X127074041Y-120642133D01*
X127301402Y-120799882D01*
X127513767Y-120978344D01*
X127709770Y-121176723D01*
X127888048Y-121394218D01*
X127966872Y-121505017D01*
X128114354Y-121745637D01*
X128238081Y-121997714D01*
X128337795Y-122260614D01*
X128413241Y-122533706D01*
X128464162Y-122816354D01*
X128467963Y-122848472D01*
X128475334Y-122942014D01*
X128480066Y-123051854D01*
X128482161Y-123170887D01*
X128481618Y-123292009D01*
X128478437Y-123408118D01*
X128472618Y-123512107D01*
X128464162Y-123596875D01*
X128450945Y-123685709D01*
X128392808Y-123962383D01*
X128310958Y-124229070D01*
X128206385Y-124484573D01*
X128080079Y-124727698D01*
X127933030Y-124957247D01*
X127766227Y-125172026D01*
X127580660Y-125370838D01*
X127377320Y-125552487D01*
X127157195Y-125715777D01*
X126921277Y-125859513D01*
X126670553Y-125982498D01*
X126406016Y-126083536D01*
X126324934Y-126108667D01*
X126197338Y-126143083D01*
X126064872Y-126173706D01*
X125937271Y-126198341D01*
X125824271Y-126214789D01*
X125823762Y-126214847D01*
X125778417Y-126218531D01*
X125715909Y-126221663D01*
X125641083Y-126224197D01*
X125558783Y-126226083D01*
X125473854Y-126227274D01*
X125391142Y-126227723D01*
X125315490Y-126227382D01*
X125251744Y-126226203D01*
X125204749Y-126224138D01*
X125179349Y-126221141D01*
X125149583Y-126213164D01*
X125149583Y-125296186D01*
X125424089Y-125296504D01*
X125479233Y-125296352D01*
X125604742Y-125293680D01*
X125712894Y-125287016D01*
X125810130Y-125275463D01*
X125902893Y-125258129D01*
X125997623Y-125234118D01*
X126100763Y-125202535D01*
X126284252Y-125133336D01*
X126492307Y-125029931D01*
X126685845Y-124905719D01*
X126863579Y-124762168D01*
X127024219Y-124600748D01*
X127166478Y-124422928D01*
X127289069Y-124230177D01*
X127390701Y-124023965D01*
X127470089Y-123805759D01*
X127525943Y-123577031D01*
X127527181Y-123570233D01*
X127539149Y-123480571D01*
X127547116Y-123373837D01*
X127551074Y-123257234D01*
X127551015Y-123137965D01*
X127546934Y-123023234D01*
X127538823Y-122920244D01*
X127526674Y-122836197D01*
X127506515Y-122743629D01*
X127438456Y-122514193D01*
X127347234Y-122296394D01*
X127233527Y-122091520D01*
X127098015Y-121900861D01*
X126941378Y-121725705D01*
X126882099Y-121668408D01*
X126729702Y-121539326D01*
X126567062Y-121427977D01*
X126386511Y-121328879D01*
X126310803Y-121292911D01*
X126128168Y-121218839D01*
X125947580Y-121165075D01*
X125763141Y-121130382D01*
X125568953Y-121113523D01*
X125359119Y-121113259D01*
X125149583Y-121120530D01*
X125149583Y-120200065D01*
X125179349Y-120192088D01*
X125199697Y-120188945D01*
X125246330Y-120185975D01*
X125310813Y-120184315D01*
X125388255Y-120183887D01*
X125473764Y-120184612D01*
X120016665Y-121116406D02*
X120311015Y-121116695D01*
X120311015Y-121116695D02*
X120412990Y-121117120D01*
X120412990Y-121117120D02*
X120493645Y-121118408D01*
X120493645Y-121118408D02*
X120558112Y-121120914D01*
X120558112Y-121120914D02*
X120611524Y-121124996D01*
X120611524Y-121124996D02*
X120659012Y-121131008D01*
X120659012Y-121131008D02*
X120705711Y-121139308D01*
X120705711Y-121139308D02*
X120739611Y-121146436D01*
X120739611Y-121146436D02*
X120969451Y-121209754D01*
X120969451Y-121209754D02*
X121188768Y-121296012D01*
X121188768Y-121296012D02*
X121395799Y-121404009D01*
X121395799Y-121404009D02*
X121588780Y-121532544D01*
X121588780Y-121532544D02*
X121765951Y-121680418D01*
X121765951Y-121680418D02*
X121925547Y-121846430D01*
X121925547Y-121846430D02*
X122065807Y-122029379D01*
X122065807Y-122029379D02*
X122090446Y-122066449D01*
X122090446Y-122066449D02*
X122142244Y-122153402D01*
X122142244Y-122153402D02*
X122195145Y-122254820D01*
X122195145Y-122254820D02*
X122246164Y-122363866D01*
X122246164Y-122363866D02*
X122292318Y-122473702D01*
X122292318Y-122473702D02*
X122330625Y-122577488D01*
X122330625Y-122577488D02*
X122358102Y-122668388D01*
X122358102Y-122668388D02*
X122364196Y-122693984D01*
X122364196Y-122693984D02*
X122373561Y-122736979D01*
X122373561Y-122736979D02*
X120611979Y-122736979D01*
X120611979Y-122736979D02*
X120611979Y-123676250D01*
X120611979Y-123676250D02*
X122373561Y-123676250D01*
X122373561Y-123676250D02*
X122364196Y-123719244D01*
X122364196Y-123719244D02*
X122339136Y-123810611D01*
X122339136Y-123810611D02*
X122301648Y-123916469D01*
X122301648Y-123916469D02*
X122254815Y-124029878D01*
X122254815Y-124029878D02*
X122201718Y-124143892D01*
X122201718Y-124143892D02*
X122145440Y-124251569D01*
X122145440Y-124251569D02*
X122089064Y-124345967D01*
X122089064Y-124345967D02*
X122079608Y-124360319D01*
X122079608Y-124360319D02*
X121935866Y-124551791D01*
X121935866Y-124551791D02*
X121774667Y-124723630D01*
X121774667Y-124723630D02*
X121597010Y-124875163D01*
X121597010Y-124875163D02*
X121403891Y-125005719D01*
X121403891Y-125005719D02*
X121196309Y-125114624D01*
X121196309Y-125114624D02*
X120975262Y-125201206D01*
X120975262Y-125201206D02*
X120741745Y-125264794D01*
X120741745Y-125264794D02*
X120736044Y-125266021D01*
X120736044Y-125266021D02*
X120683462Y-125276622D01*
X120683462Y-125276622D02*
X120635042Y-125284513D01*
X120635042Y-125284513D02*
X120585391Y-125290078D01*
X120585391Y-125290078D02*
X120529119Y-125293702D01*
X120529119Y-125293702D02*
X120460832Y-125295769D01*
X120460832Y-125295769D02*
X120375141Y-125296664D01*
X120375141Y-125296664D02*
X120304401Y-125296799D01*
X120304401Y-125296799D02*
X120016667Y-125296776D01*
X120016667Y-125296776D02*
X120016667Y-126229479D01*
X120016667Y-126229479D02*
X120304401Y-126227762D01*
X120304401Y-126227762D02*
X120396376Y-126226709D01*
X120396376Y-126226709D02*
X120486109Y-126224766D01*
X120486109Y-126224766D02*
X120567842Y-126222126D01*
X120567842Y-126222126D02*
X120635821Y-126218981D01*
X120635821Y-126218981D02*
X120684289Y-126215526D01*
X120684289Y-126215526D02*
X120691354Y-126214789D01*
X120691354Y-126214789D02*
X120916763Y-126178594D01*
X120916763Y-126178594D02*
X121148614Y-126121376D01*
X121148614Y-126121376D02*
X121380575Y-126045284D01*
X121380575Y-126045284D02*
X121606315Y-125952465D01*
X121606315Y-125952465D02*
X121819501Y-125845068D01*
X121819501Y-125845068D02*
X121875303Y-125813135D01*
X121875303Y-125813135D02*
X122038844Y-125707667D01*
X122038844Y-125707667D02*
X122204786Y-125583545D01*
X122204786Y-125583545D02*
X122366573Y-125446431D01*
X122366573Y-125446431D02*
X122517650Y-125301982D01*
X122517650Y-125301982D02*
X122651460Y-125155859D01*
X122651460Y-125155859D02*
X122688007Y-125111607D01*
X122688007Y-125111607D02*
X122849327Y-124890012D01*
X122849327Y-124890012D02*
X122990652Y-124652378D01*
X122990652Y-124652378D02*
X123110975Y-124401089D01*
X123110975Y-124401089D02*
X123209289Y-124138532D01*
X123209289Y-124138532D02*
X123284588Y-123867092D01*
X123284588Y-123867092D02*
X123335865Y-123589155D01*
X123335865Y-123589155D02*
X123338410Y-123570416D01*
X123338410Y-123570416D02*
X123345359Y-123498751D01*
X123345359Y-123498751D02*
X123350292Y-123408046D01*
X123350292Y-123408046D02*
X123353208Y-123304923D01*
X123353208Y-123304923D02*
X123354105Y-123196009D01*
X123354105Y-123196009D02*
X123352981Y-123087925D01*
X123352981Y-123087925D02*
X123349834Y-122987298D01*
X123349834Y-122987298D02*
X123344662Y-122900752D01*
X123344662Y-122900752D02*
X123338617Y-122842812D01*
X123338617Y-122842812D02*
X123286661Y-122557894D01*
X123286661Y-122557894D02*
X123211431Y-122282354D01*
X123211431Y-122282354D02*
X123113609Y-122017809D01*
X123113609Y-122017809D02*
X122993879Y-121765877D01*
X122993879Y-121765877D02*
X122852924Y-121528177D01*
X122852924Y-121528177D02*
X122691427Y-121306325D01*
X122691427Y-121306325D02*
X122688007Y-121302079D01*
X122688007Y-121302079D02*
X122507720Y-121099121D01*
X122507720Y-121099121D02*
X122308578Y-120912656D01*
X122308578Y-120912656D02*
X122093027Y-120744214D01*
X122093027Y-120744214D02*
X121863515Y-120595325D01*
X121863515Y-120595325D02*
X121622491Y-120467517D01*
X121622491Y-120467517D02*
X121372400Y-120362322D01*
X121372400Y-120362322D02*
X121115691Y-120281267D01*
X121115691Y-120281267D02*
X121015381Y-120256769D01*
X121015381Y-120256769D02*
X120891470Y-120230938D01*
X120891470Y-120230938D02*
X120776300Y-120211592D01*
X120776300Y-120211592D02*
X120662480Y-120197981D01*
X120662480Y-120197981D02*
X120542615Y-120189356D01*
X120542615Y-120189356D02*
X120409313Y-120184968D01*
X120409313Y-120184968D02*
X120297787Y-120184008D01*
X120297787Y-120184008D02*
X120016667Y-120183750D01*
X120016667Y-120183750D02*
X120016665Y-121116406D01*
X120016665Y-121116406D02*
X120016665Y-121116406D01*
G36*
X120297787Y-120184008D02*
G01*
X120409313Y-120184968D01*
X120542615Y-120189356D01*
X120662480Y-120197981D01*
X120776300Y-120211592D01*
X120891470Y-120230938D01*
X121015381Y-120256769D01*
X121115691Y-120281267D01*
X121372400Y-120362322D01*
X121622491Y-120467517D01*
X121863515Y-120595325D01*
X122093027Y-120744214D01*
X122308578Y-120912656D01*
X122507720Y-121099121D01*
X122688007Y-121302079D01*
X122691427Y-121306325D01*
X122852924Y-121528177D01*
X122993879Y-121765877D01*
X123113609Y-122017809D01*
X123211431Y-122282354D01*
X123286661Y-122557894D01*
X123338617Y-122842812D01*
X123344662Y-122900752D01*
X123349834Y-122987298D01*
X123352981Y-123087925D01*
X123354105Y-123196009D01*
X123353208Y-123304923D01*
X123350292Y-123408046D01*
X123345359Y-123498751D01*
X123338410Y-123570416D01*
X123335865Y-123589155D01*
X123284588Y-123867092D01*
X123209289Y-124138532D01*
X123110975Y-124401089D01*
X122990652Y-124652378D01*
X122849327Y-124890012D01*
X122688007Y-125111607D01*
X122651460Y-125155859D01*
X122517650Y-125301982D01*
X122366573Y-125446431D01*
X122204786Y-125583545D01*
X122038844Y-125707667D01*
X121875303Y-125813135D01*
X121819501Y-125845068D01*
X121606315Y-125952465D01*
X121380575Y-126045284D01*
X121148614Y-126121376D01*
X120916763Y-126178594D01*
X120691354Y-126214789D01*
X120684289Y-126215526D01*
X120635821Y-126218981D01*
X120567842Y-126222126D01*
X120486109Y-126224766D01*
X120396376Y-126226709D01*
X120304401Y-126227762D01*
X120016667Y-126229479D01*
X120016667Y-125296776D01*
X120304401Y-125296799D01*
X120375141Y-125296664D01*
X120460832Y-125295769D01*
X120529119Y-125293702D01*
X120585391Y-125290078D01*
X120635042Y-125284513D01*
X120683462Y-125276622D01*
X120736044Y-125266021D01*
X120741745Y-125264794D01*
X120975262Y-125201206D01*
X121196309Y-125114624D01*
X121403891Y-125005719D01*
X121597010Y-124875163D01*
X121774667Y-124723630D01*
X121935866Y-124551791D01*
X122079608Y-124360319D01*
X122089064Y-124345967D01*
X122145440Y-124251569D01*
X122201718Y-124143892D01*
X122254815Y-124029878D01*
X122301648Y-123916469D01*
X122339136Y-123810611D01*
X122364196Y-123719244D01*
X122373561Y-123676250D01*
X120611979Y-123676250D01*
X120611979Y-122736979D01*
X122373561Y-122736979D01*
X122364196Y-122693984D01*
X122358102Y-122668388D01*
X122330625Y-122577488D01*
X122292318Y-122473702D01*
X122246164Y-122363866D01*
X122195145Y-122254820D01*
X122142244Y-122153402D01*
X122090446Y-122066449D01*
X122065807Y-122029379D01*
X121925547Y-121846430D01*
X121765951Y-121680418D01*
X121588780Y-121532544D01*
X121395799Y-121404009D01*
X121188768Y-121296012D01*
X120969451Y-121209754D01*
X120739611Y-121146436D01*
X120705711Y-121139308D01*
X120659012Y-121131008D01*
X120611524Y-121124996D01*
X120558112Y-121120914D01*
X120493645Y-121118408D01*
X120412990Y-121117120D01*
X120311015Y-121116695D01*
X120016665Y-121116406D01*
X120016667Y-120183750D01*
X120297787Y-120184008D01*
G37*
X120297787Y-120184008D02*
X120409313Y-120184968D01*
X120542615Y-120189356D01*
X120662480Y-120197981D01*
X120776300Y-120211592D01*
X120891470Y-120230938D01*
X121015381Y-120256769D01*
X121115691Y-120281267D01*
X121372400Y-120362322D01*
X121622491Y-120467517D01*
X121863515Y-120595325D01*
X122093027Y-120744214D01*
X122308578Y-120912656D01*
X122507720Y-121099121D01*
X122688007Y-121302079D01*
X122691427Y-121306325D01*
X122852924Y-121528177D01*
X122993879Y-121765877D01*
X123113609Y-122017809D01*
X123211431Y-122282354D01*
X123286661Y-122557894D01*
X123338617Y-122842812D01*
X123344662Y-122900752D01*
X123349834Y-122987298D01*
X123352981Y-123087925D01*
X123354105Y-123196009D01*
X123353208Y-123304923D01*
X123350292Y-123408046D01*
X123345359Y-123498751D01*
X123338410Y-123570416D01*
X123335865Y-123589155D01*
X123284588Y-123867092D01*
X123209289Y-124138532D01*
X123110975Y-124401089D01*
X122990652Y-124652378D01*
X122849327Y-124890012D01*
X122688007Y-125111607D01*
X122651460Y-125155859D01*
X122517650Y-125301982D01*
X122366573Y-125446431D01*
X122204786Y-125583545D01*
X122038844Y-125707667D01*
X121875303Y-125813135D01*
X121819501Y-125845068D01*
X121606315Y-125952465D01*
X121380575Y-126045284D01*
X121148614Y-126121376D01*
X120916763Y-126178594D01*
X120691354Y-126214789D01*
X120684289Y-126215526D01*
X120635821Y-126218981D01*
X120567842Y-126222126D01*
X120486109Y-126224766D01*
X120396376Y-126226709D01*
X120304401Y-126227762D01*
X120016667Y-126229479D01*
X120016667Y-125296776D01*
X120304401Y-125296799D01*
X120375141Y-125296664D01*
X120460832Y-125295769D01*
X120529119Y-125293702D01*
X120585391Y-125290078D01*
X120635042Y-125284513D01*
X120683462Y-125276622D01*
X120736044Y-125266021D01*
X120741745Y-125264794D01*
X120975262Y-125201206D01*
X121196309Y-125114624D01*
X121403891Y-125005719D01*
X121597010Y-124875163D01*
X121774667Y-124723630D01*
X121935866Y-124551791D01*
X122079608Y-124360319D01*
X122089064Y-124345967D01*
X122145440Y-124251569D01*
X122201718Y-124143892D01*
X122254815Y-124029878D01*
X122301648Y-123916469D01*
X122339136Y-123810611D01*
X122364196Y-123719244D01*
X122373561Y-123676250D01*
X120611979Y-123676250D01*
X120611979Y-122736979D01*
X122373561Y-122736979D01*
X122364196Y-122693984D01*
X122358102Y-122668388D01*
X122330625Y-122577488D01*
X122292318Y-122473702D01*
X122246164Y-122363866D01*
X122195145Y-122254820D01*
X122142244Y-122153402D01*
X122090446Y-122066449D01*
X122065807Y-122029379D01*
X121925547Y-121846430D01*
X121765951Y-121680418D01*
X121588780Y-121532544D01*
X121395799Y-121404009D01*
X121188768Y-121296012D01*
X120969451Y-121209754D01*
X120739611Y-121146436D01*
X120705711Y-121139308D01*
X120659012Y-121131008D01*
X120611524Y-121124996D01*
X120558112Y-121120914D01*
X120493645Y-121118408D01*
X120412990Y-121117120D01*
X120311015Y-121116695D01*
X120016665Y-121116406D01*
X120016667Y-120183750D01*
X120297787Y-120184008D01*
%TD*%
M02*
